<?xml version="1.0" encoding="UTF-8"?>
<svg id="Layer_1" data-name="Layer 1" xmlns="http://www.w3.org/2000/svg" viewBox="0 0 364.36 215.05">
  <defs>
    <style>
      .cls-1 {
        fill: #b9b29c;
      }

      .cls-2 {
        fill: #d38430;
      }

      .cls-3 {
        fill: #181b1d;
      }

      .cls-4 {
        fill: #afa38e;
      }

      .cls-5 {
        fill: #ca4f56;
      }

      .cls-6 {
        fill: #f7b332;
      }

      .cls-7 {
        fill: #519ab0;
      }

      .cls-8 {
        fill: #353332;
      }

      .cls-9 {
        fill: #f7d675;
      }
    </style>
  </defs>
  <path class="cls-8" d="M333.94,82.93c21.52,37.6,31.43,83.41,27.63,125.32-.17,1.85.03,3.22.44,3.22h1.5c-.02.24,0,.76,0,1l-1,1v1c-44.69-.58-89.57,1.24-134-1-.2-9.8.54-26.53-.17-36.37-1.59-21.95-15.29-37.8-34.44-42.73-20.74-5.34-42.14,3.57-51.19,22.32l-.93.93c-.18.18,0,.76-.09,1-.67.42-.98.72-.44,1-.63,1.44-1.65,3.89-2.63,4.96-3.03,3.28-4.65,9.04-4.71,14.46l-.4,35.41-61.53.57c-23.94.22-47.14-.2-70.51-.48-2.52-8.17-.99-17.33-1.01-25.98,2.96-21.62,5.62-43.64,10.7-65.83,9.98-28.81,25.45-54.47,49.05-75.56C94.56,16.4,141.73-1.88,187.48.15c34.34,1.53,64.9,12.41,93.79,29.96,21.75,13.21,39,32.02,52.67,52.81ZM128.63,21.95c0,.31,0,.76.04,1,.92,5.72,4.09,16.88,8.63,21.16,2.25,7.07,6.44,13.62,8.27,20.84-.56,3.07,1.34,6.73,3.38,9.84,10.87-3.41,20.78-4.77,33.28-5.94l.06-59.49c-5.38-3.68-65.93,6.53-55.48,11.69l1.82.9ZM185.77,11.98l.11,56.93c11-.69,20.06.22,28.81,3.74,1.28.51,2.82-.7,3.41-2.22l20.01-51.59c-5.64-3.52-55.88-15.27-52.34-6.85ZM240.78,23.03c-4.28,6.76-7.55,14.82-9.41,22.56-.23.95-.75,2.46-1.11,3.43-5.28,7.06-7.81,16.37-11.31,25.91,11.39,5.15,20.38,10.03,29.89,18.86,13.95-15.91,31.64-27.64,40.67-42.9-.6-3.91-47.55-35.22-48.73-27.85ZM133.51,80.8c4.3-.64,8.26-2.95,12.52-6.04-3.2-6.2-4.21-13.06-8.64-16.9l-.02-1c-3.35-11.49-7.29-22.86-13.46-31.95-.64-.94-1.98-2.67-2.76-3.27-15.53,5.48-34,17.05-47.7,28.47,13.48,14.73,26.95,25.85,42.22,41.24l17.85-10.54ZM325.4,88.84c-9.99-12.74-17.74-24.75-30-35.1l-42.13,40.49,16.7,20.19,55.43-25.58ZM51.37,72.73c-1.75,1.31-3.27,3.08-4.09,5.01-3.85,2.66-7.03,7.03-8.54,12.21l55.91,25.32,16.01-20.93c-13.1-13.19-26.25-25.88-39.82-37.61-5.05-4.36-9.3,4.87-11.72,7.64-2.58,2.95-6.55,5.01-7.75,8.35ZM151.71,78.01c3.23,16.13,14.02,29.88,17.44,47.35l9.37-1.67c4.76,1.4,3.78-4.57,4.25-9.44,4.27,1.87-.68,6.64,2.93,8.26l.87.05c-.13,3.51,8.07,3.13,9.72.9l12.23-31.69-.13-1c-.03-.26,0-.74.03-1,3.53-.82,5.63-8.18,4.11-10.97l-1-1.84c-7.02-4.23-17.15-5.28-25-3.15l-1,1c-2.57,7.69.38,17.02-1.71,25.67-4.4-7.4,2.35-16.45-3.29-21.68v-2.99l2.05-.61c16.16-4.78-34.14-1.78-30.86,2.8ZM201.51,124.69c1.78,1.84,4.55,3.47,7.05,4.3,3.36,1.11,4.7-3.87,7.06-5.61,10.61-7.8,20.32-16.62,28.67-27.44l-4.74-4.49c-.75-1.31-1.61-1.81-3.19-2.4-1.38-.51-3.44-2.57-4.72-3.24-3.58-3.88-9.12-6.5-15.94-7.58-2.41,17.1-15.58,31.74-14.2,46.46ZM124.4,92.46c-1.35,1.21-2.85,2.71-4.1,4.26l30.09,29.05c.25,1.47.71,3.16,1.51,4.03.67.73,3.84,1.27,4.77.86l10.5-4.6-19.44-46.77c-9.19,2.43-17.85,6.71-23.33,13.17ZM18.51,138.65c-4.72,14.67-5.49,30.24-5.76,46.99l12.51-13.98,4.25-3.39c15.43-9.62,31.56-18.31,51.17-18.45l2.67-8.18,2.22-6.98c1.47-4.63,3.45-8.53,5.79-14.46l-48.04-22.55c-1.66-2.39-4.59-3.88-8.51-5.2-7.39,15.4-16.76,31.26-16.29,46.2ZM272.51,119.54c.4,10.2,7.3,19.86,9.88,31.2,19.97,1.66,36.43,8.07,52.03,18.27,6.57,4.3,11.84,10.71,15.95,17.51.87,1.44,1.73,2.75,3.4,4.13-1.05-22.92-2.12-46.74-12.13-66.15-2.46-10.12-8.04-19.61-12.36-30.49l-56.76,25.52ZM247.98,126.43c5.05-2.84,12.7-3.99,15.46-9.93-11.26-11.1.2-4.9-15.11-16.78-15.4,13.17-20.02,17.44-33.31,32.19l9.48,7.2c9.08-4.51,15.71-8.31,23.48-12.67ZM143.3,140.57l6.55-7.94-25.52-25.75c-2.35-2.37-5.42-7.1-9.88-5.75-3.81,1.15-11.47,11.37-13.79,16.36,11,9.1,28.27,14.48,42.65,23.08ZM87.67,149.81c-.09.64.3,2.16.78,2.45,5.64,3.46-3.42-.28-4.14,2.24-2.44,8.44-5.21,23.07-6.91,32.62,1.96-.95,5.46-2.92,6.12-4.72,5.27-14.17,19.92-20.26,32.67-26.89.41-1,.94-2.62,1.23-3.71l16.44-.73,3.09-5.46c.65-1.15-1.77-3.59-3.1-4.29l-35.74-18.76c-5.25,9.16-9.13,17.99-10.44,27.25ZM231.41,150.62c13.6,4.84,30.01-2.5,47.11.34-1.07-7.22-2.65-13.17-7.01-17.3l-5.02-11.13-39.85,19.84,4.77,8.24ZM37.44,169.1l-.81.32c-5.22,2.07-13.3,10.12-15.17,15.83-2,6.09-6.44,11.93-7.43,18.45-.25.65-.85,1.72-.43,2.25.53.67,2.78,1.24,3.82,1.23l55.19-.53c1.68-18.28,4.38-34.34,8.82-52.65-15.95-.13-32.36,4.85-43.99,15.09ZM252.51,157.84c11.96,6.94,22.29,13.9,31.34,27.33l-5.83-30.03-25.51.47-3.44.13c-1.43.06-2.09.05-.13.87l3.57,1.23ZM291.7,203.68c-.62.84-1.06,1.99-.51,2.55s2.78,1.97,3.86,1.97l55.4-.2c3.14-6.2-1.85-10.78-3.87-14.65-11.95-22.99-35.3-36.73-61.62-37.71,3.28,16.93,5.37,31.86,6.73,48.04ZM78.51,204.48c14.34,3.91,31.6,2.17,46.87.86.02-.29.06-.69.04-.9,1.15-14.86,2.47-30.56,2.1-44.85-8.07-2.45-15.19,3.82-22.81,8.26-12.95,7.54-22.74,22.38-26.19,36.62ZM285.74,206.27c-2.77-11.33-5.63-19.3-12.95-25.18-8.69-12.29-21.56-21.64-37.7-21.58,4.4,15.86,4.84,30.52,4.37,46.76h46.27ZM80.14,189.02c0-.35-.28-.63-.63-.63s-.63.28-.63.63.28.63.63.63.63-.28.63-.63Z"/>
  <path class="cls-3" d="M228.51,213.46c44.43,2.23,89.31.42,134,1"/>
  <path class="cls-3" d="M363.51,211.47h-1.5c-.41,0-.61-1.37-.44-3.22,3.8-41.9-6.11-87.72-27.63-125.32,23.91,36.34,33.5,86.43,29.56,128.54Z"/>
  <path class="cls-3" d="M.44,188.52c-.05-22.56,3.45-44.89,10.7-65.83-5.08,22.19-7.74,44.21-10.7,65.83Z"/>
  <path class="cls-3" d="M141.78,157.6l.93-.93-.93.93Z"/>
  <path class="cls-3" d="M141.24,159.6c-.54-.28-.23-.58.44-1l-.44,1Z"/>
  <path class="cls-3" d="M362.51,213.46l1-1-1,1Z"/>
  <path class="cls-1" d="M43.31,97.66l48.04,22.55c-2.34,5.93-4.32,9.83-5.79,14.46-2.7,0-2.98,4.8-2.22,6.98l-2.67,8.18c-19.61.14-35.73,8.83-51.17,18.45-1.83,1.14-3.23,2.25-4.25,3.39l-12.51,13.98c.28-16.74,1.04-32.31,5.76-46.99,4.14-14.99,8.72-29.17,16.37-42.83l8.43,1.83Z"/>
  <path class="cls-7" d="M341.63,124.51c4.94,20.31,11.76,41.87,8.74,62.02-4.11-6.8-9.38-13.21-15.95-17.51-13.21-12.91-32.33-17.63-51.06-20.01-2.63-10.72-6.71-20.07-10.85-29.46l56.76-25.52c4.32,10.88,9.9,20.36,12.36,30.49Z"/>
  <path class="cls-6" d="M123.91,24.91c3.68,10.83,8.33,21.71,13.46,31.95l.02,1,6.42,16.55c-3.96,1.82-7.37,3.65-10.29,6.39l-17.85,10.54c-15.26-15.4-28.74-26.52-42.22-41.24,13.71-11.42,32.18-22.99,47.7-28.47.78.6,2.12,2.33,2.76,3.27Z"/>
  <path class="cls-6" d="M289.51,50.88c-13.6,12.69-26.76,26.06-40.4,40.67-8.4-7.19-17.36-12.6-28.02-17.66l9.17-24.87c.36-.97.88-2.48,1.11-3.43,3.79-7.28,7.85-14.58,9.41-22.56,1.18-7.37,48.14,23.94,48.73,27.85Z"/>
  <path class="cls-6" d="M145.57,64.95c-1.83-7.22-6.02-13.77-8.27-20.84s-5.07-14.28-8.63-21.16c-.04-.24-.03-.69-.04-1l-1.12-2.44c-1.27-2.75,47.59-11.2,53.02-9.7l-.05,58.01c-11.13-.31-20.54,1.37-30.7,4.33-1.4-2.98-2.5-5.48-4.21-7.2Z"/>
  <path class="cls-6" d="M214.69,72.64c-8.75-3.51-17.81-4.43-28.81-3.74l-.11-56.93c4.19-5.94,42.37,5.43,49.98,8.48-7.07,18.1-13.44,35.4-21.06,52.18Z"/>
  <path class="cls-2" d="M47.28,77.74c1.47-1.02,2.92-2.83,4.09-5.01,1.2-3.34,5.17-5.41,7.75-8.35,2.43-2.77,6.68-12,11.72-7.64,13.57,11.74,26.72,24.42,39.82,37.61l-16.01,20.93-55.91-25.32c1.5-5.18,4.68-9.55,8.54-12.21Z"/>
  <path class="cls-4" d="M346.59,193.35l3.02,12.46-52.2-.26c-2.05-.01-4.37-.85-5.71-1.87-1.37-16.18-3.45-31.11-6.73-48.04,26.32.99,49.67,14.72,61.62,37.71Z"/>
  <path class="cls-2" d="M325.4,88.84l-55.43,25.58-16.7-20.19,42.13-40.49c12.26,10.35,20.01,22.36,30,35.1Z"/>
  <path class="cls-7" d="M14.02,203.71c.99-6.52,5.43-12.36,7.43-18.45,4.94-5.56,10.99-10.23,15.17-15.83l.81-.32c12.46-6.11,25.29-11.71,41.18-12.95-3.12,16.07-5.8,31.81-7.68,48.67-19.93-.59-38.98,1.46-56.91-1.12Z"/>
  <path class="cls-5" d="M285.74,206.27h-46.27c.47-16.24.03-30.9-4.37-46.76,16.14-.05,29,9.29,37.7,21.58,7.32,5.88,10.18,13.85,12.95,25.18Z"/>
  <path class="cls-5" d="M127.51,159.6c-3.11,12.07-3.53,33.67-2.1,44.85.03.22-.02.61-.04.9-15.46-1.62-31.24-.62-46.87-.86,3.45-14.24,13.24-29.08,26.19-36.62,7.62-4.44,14.73-10.71,22.81-8.26Z"/>
  <path class="cls-9" d="M180.51,75.81v2.99l.09,38.99c0,2.58-.28,4.7-2.09,5.89l-9.37,1.67c-3.41-17.47-14.21-31.22-17.44-47.35l25.35-4.6c.65-.12,2.84.16,2.94.54l.51,1.87Z"/>
  <path class="cls-6" d="M231.65,85.81c1.28.67,3.34,2.72,4.72,3.24.17.61.47,2.13,1.13,2.19l2.06.2,4.74,4.49c-8.35,10.82-18.06,19.64-28.67,27.44-2.36,1.74-3.7,6.72-7.06,5.61-2.5-.82-5.27-2.45-7.05-4.3,4.42-14.44,9.95-28.2,16.27-43.47,3.8.67,10.69,2.93,13.87,4.59Z"/>
  <path class="cls-6" d="M150.38,125.76l-30.09-29.05c1.26-1.54,2.75-3.05,4.1-4.26l22.11-11.16,18.38,43.23-11.07,4.97c-1.27-1.46-2.41-2.75-3.43-3.73Z"/>
  <path class="cls-9" d="M211.51,76.97l1,1.84-4.11,10.97c-.02.26-.06.74-.03,1-.55.37-.48.59.13,1l-12.23,31.69-9.72-.9-.87-.05-.18-47.7,1-1c8.36-.26,16.71,1.67,25,3.15Z"/>
  <path class="cls-9" d="M117.42,151.8c-6.07-1.79-12.52-.98-18.91-2.17-1.59-.06-4.33-.06-6,0l-4.84.19c1.31-9.26,5.2-18.09,10.44-27.25l35.74,18.76c1.34.7,3.75,3.14,3.1,4.29l-3.09,5.46-16.44.73Z"/>
  <path class="cls-9" d="M143.3,140.57c-14.38-8.6-31.65-13.98-42.65-23.08,2.32-4.99,9.98-15.21,13.79-16.36,4.46-1.35,7.53,3.38,9.88,5.75l25.52,25.75-6.55,7.94Z"/>
  <path class="cls-9" d="M247.98,126.43c-7.77,4.37-14.4,8.16-23.48,12.67l-9.48-7.2c13.3-14.75,17.91-19.02,33.31-32.19,15.31,11.88,3.85,5.68,15.11,16.78-2.76,5.94-10.42,7.1-15.46,9.93Z"/>
  <path class="cls-9" d="M271.51,133.67c1.55,4.57,3.09,9.19,4.29,15.08-16.18-.28-29.83.51-44.39,1.88l-4.77-8.24,39.85-19.84,5.02,11.13Z"/>
  <path class="cls-3" d="M14.02,203.71c17.93,2.57,36.98.52,56.91,1.12,1.88-16.86,4.56-32.6,7.68-48.67-15.88,1.24-28.71,6.84-41.18,12.95,11.63-10.24,28.04-15.22,43.99-15.09-4.43,18.31-7.14,34.37-8.82,52.65l-55.19.53c-1.04,0-3.3-.56-3.82-1.23-.42-.54.18-1.6.43-2.25Z"/>
  <path class="cls-7" d="M116.19,155.51c-12.75,6.63-27.4,12.72-32.67,26.89l-1.9-.39c-.51-.1-.84-2.02-.72-2.69l4.33-24.82c10.91.05,20.96.32,30.97,1.01Z"/>
  <path class="cls-4" d="M250.09,156.93l-3.21-1.21,31.14-.57,5.83,30.03c-9.05-13.43-21.81-21.3-33.76-28.24Z"/>
  <path class="cls-3" d="M214.69,72.64c7.62-16.78,13.99-34.08,21.06-52.18-7.6-3.05-45.79-14.42-49.98-8.48-3.54-8.42,46.7,3.33,52.34,6.85l-20.01,51.59c-.59,1.52-2.13,2.74-3.41,2.22Z"/>
  <path class="cls-3" d="M145.57,64.95c1.71,1.72,2.81,4.21,4.21,7.2,10.16-2.96,19.57-4.64,30.7-4.33l.05-58.01c-5.43-1.49-54.29,6.95-53.02,9.7l1.12,2.44-1.82-.9c-10.45-5.16,50.1-15.38,55.48-11.69l-.06,59.49c-12.5,1.17-22.41,2.54-33.28,5.94-2.04-3.11-3.94-6.77-3.38-9.84Z"/>
  <path class="cls-3" d="M291.7,203.68c1.34,1.02,3.66,1.86,5.71,1.87l52.2.26-3.02-12.46c2.01,3.87,7.01,8.45,3.87,14.65l-55.4.2c-1.09,0-3.32-1.41-3.86-1.97s-.12-1.71.51-2.55Z"/>
  <path class="cls-3" d="M150.38,125.76c1.01.98,2.16,2.27,3.43,3.73l11.07-4.97-18.38-43.23-22.11,11.16c5.48-6.47,14.14-10.75,23.33-13.17l19.44,46.77-10.5,4.6c-.93.41-4.1-.14-4.77-.86-.8-.87-1.26-2.56-1.51-4.03Z"/>
  <path class="cls-3" d="M185.69,122.51c-3.6-1.62,1.35-6.39-2.93-8.26-.48,4.86.51,10.84-4.25,9.44,1.81-1.19,2.09-3.32,2.09-5.89l-.09-38.99c5.64,5.24-1.11,14.28,3.29,21.68,2.09-8.65-.86-17.99,1.71-25.67l.18,47.7Z"/>
  <path class="cls-3" d="M334.42,169.02c-15.61-10.21-32.07-16.61-52.03-18.27-2.58-11.34-9.48-21-9.88-31.2,4.14,9.4,8.22,18.74,10.85,29.46,18.73,2.38,37.85,7.1,51.06,20.01Z"/>
  <path class="cls-3" d="M231.41,150.62c14.56-1.37,28.2-2.16,44.39-1.88-1.2-5.89-2.74-10.51-4.29-15.08,4.37,4.13,5.95,10.08,7.01,17.3-17.1-2.84-33.51,4.5-47.11-.34Z"/>
  <path class="cls-3" d="M350.37,186.53c3.03-20.16-3.79-41.71-8.74-62.02,10.02,19.42,11.08,43.23,12.13,66.15-1.67-1.38-2.53-2.69-3.4-4.13Z"/>
  <path class="cls-3" d="M231.65,85.81c-3.18-1.67-10.06-3.93-13.87-4.59-6.32,15.27-11.85,29.03-16.27,43.47-1.38-14.72,11.79-29.36,14.2-46.46,6.82,1.08,12.35,3.71,15.94,7.58Z"/>
  <path class="cls-3" d="M92.51,149.62c-.54,2.39.98,3.26,3.64,3.24,1.62-.01,2.63-1.4,2.36-3.24,6.39,1.19,12.84.38,18.91,2.17-.29,1.09-.83,2.71-1.23,3.71-10.02-.7-20.06-.96-30.97-1.01l-4.33,24.82c-.12.67.21,2.58.72,2.69l1.9.39c-.67,1.79-4.16,3.77-6.12,4.72,1.7-9.54,4.47-24.18,6.91-32.62.73-2.51,9.78,1.22,4.14-2.24-.48-.29-.87-1.81-.78-2.45l4.84-.19Z"/>
  <path class="cls-3" d="M230.26,49.01l-9.17,24.87c10.66,5.07,19.62,10.48,28.02,17.66,13.64-14.61,26.8-27.99,40.4-40.67-9.03,15.27-26.72,26.99-40.67,42.9-9.51-8.83-18.5-13.71-29.89-18.86,3.5-9.54,6.03-18.85,11.31-25.91Z"/>
  <path class="cls-3" d="M125.38,205.35c-15.26,1.31-32.53,3.04-46.87-.86,15.63.25,31.4-.76,46.87.86Z"/>
  <path class="cls-3" d="M125.41,204.45c-1.44-11.18-1.02-32.78,2.1-44.85.37,14.28-.95,29.99-2.1,44.85Z"/>
  <path class="cls-3" d="M137.37,56.86c-5.13-10.25-9.79-21.12-13.46-31.95,6.17,9.1,10.11,20.46,13.46,31.95Z"/>
  <path class="cls-3" d="M43.31,97.66l-8.43-1.83c-7.65,13.66-12.23,27.84-16.37,42.83-.47-14.94,8.9-30.8,16.29-46.2,3.93,1.32,6.86,2.81,8.51,5.2Z"/>
  <path class="cls-3" d="M133.51,80.8c2.92-2.74,6.34-4.57,10.29-6.39l-6.42-16.55c4.43,3.84,5.45,10.7,8.64,16.9-4.26,3.09-8.22,5.4-12.52,6.04Z"/>
  <path class="cls-3" d="M231.37,45.59c1.86-7.75,5.12-15.81,9.41-22.56-1.56,7.98-5.62,15.28-9.41,22.56Z"/>
  <path class="cls-3" d="M36.62,169.43c-4.19,5.61-10.24,10.27-15.17,15.83,1.87-5.71,9.96-13.76,15.17-15.83Z"/>
  <path class="cls-3" d="M180.51,75.81l-.51-1.87c-.1-.38-2.29-.66-2.94-.54l-25.35,4.6c-3.29-4.58,47.02-7.58,30.86-2.8l-2.05.61Z"/>
  <path class="cls-3" d="M137.3,44.11c-4.54-4.28-7.71-15.45-8.63-21.16,3.56,6.88,6.31,13.88,8.63,21.16Z"/>
  <path class="cls-3" d="M211.51,76.97c-8.29-1.48-16.64-3.41-25-3.15,7.85-2.13,17.98-1.08,25,3.15Z"/>
  <path class="cls-3" d="M196.28,123.47c-1.64,2.23-9.85,2.62-9.72-.9l9.72.9Z"/>
  <path class="cls-3" d="M208.4,89.78l4.11-10.97c1.52,2.79-.57,10.16-4.11,10.97Z"/>
  <path class="cls-3" d="M239.55,91.44l-2.06-.2c-.66-.06-.96-1.58-1.13-2.19,1.57.59,2.43,1.09,3.19,2.4Z"/>
  <path class="cls-6" d="M47.28,77.74c.82-1.93,2.34-3.7,4.09-5.01-1.17,2.19-2.62,4-4.09,5.01Z"/>
  <circle class="cls-3" cx="79.51" cy="189.02" r=".63"/>
  <path class="cls-3" d="M208.51,91.77c-.61-.4-.69-.63-.13-1l.13,1Z"/>
  <path class="cls-8" d="M98.51,149.62c.27,1.84-.74,3.23-2.36,3.24-2.66.02-4.18-.85-3.64-3.24,1.67-.06,4.41-.06,6,0Z"/>
</svg>