<?xml version="1.0" encoding="UTF-8"?>
<svg id="Layer_1" data-name="Layer 1" xmlns="http://www.w3.org/2000/svg" viewBox="0 0 364.03 216.01">
  <defs>
    <style>
      .cls-1 {
        fill: #16121c;
      }

      .cls-2 {
        fill: #afa38e;
      }

      .cls-3 {
        fill: #343233;
      }

      .cls-4 {
        fill: #f7b332;
      }

      .cls-5 {
        fill: #5199b0;
      }

      .cls-6 {
        fill: #f9d775;
      }

      .cls-7 {
        fill: #d48430;
      }

      .cls-8 {
        fill: #cb4f56;
      }
    </style>
  </defs>
  <g id="_7KbULZ.tif" data-name="7KbULZ.tif">
    <g>
      <g>
        <rect class="cls-2" x="363.03" y="187.14" width="1" height="10.95"/>
        <path class="cls-2" d="M155.83,2.19l-.58,1.7c-29.82,3.87-58.24,17.02-81.95,36.15l-11.69,9.43c-9.58,7.73-21.93,22.17-28.7,32.9-8.44,13.37-5.85,5.96-11.33,18.3-.95,2.13-1.58,3.66-3.34,3.86C38.18,55.6,86.34,18.51,137.76,4.99c5.25-1.38,13.61-2.51,18.07-2.81Z"/>
        <path class="cls-2" d="M15.87,109.53c.29-.93.82-2.4,1.27-3.17l1.1,1.87c.38.64-1.74,1.24-2.37,1.3Z"/>
      </g>
      <g>
        <path class="cls-5" d="M198.03,0c2.97.77,6.38,1.47,10.12,2.1,26.56,4.42,52.09,13.42,73.67,28.77-1.72.61-3.89.13-5.88-1.15C248.77,12.29,217.56,3.92,185.34,2.32c-6.72-.33-12.51-.53-19.13.81-3.55.72-7.7.33-10.97.75l.58-1.7c2.11-.14,5.74-1.7,8.21-1.19l.97.81c.24.2.96,0,.97-.33l.06-1.48h32Z"/>
        <path class="cls-2" d="M166.03,0l-.06,1.48c-.01.32-.73.53-.97.33l-.97-.81v-1h2Z"/>
        <path class="cls-2" d="M362.69,205.96c-.1,2.04.5,6.32-.72,7.97-1.02,1.38-4.99,2.07-6.98,2.07h-120.92c-2.04.01-4.13-1.08-4.81-2.19.21-.16,2.16-.86,3.47-.86l121.15-.02c6.75.81,4.39-5.66,8.82-6.96Z"/>
        <path class="cls-2" d="M134.72,212.21c-.23,2.36-2.6,3.79-5.74,3.79H5.1c-1.09-.01-3.42-.82-3.94-1.52-.41-.56-.69-1.82-.73-2.52,5.19,1.48,10.59.78,16.7.79l104.8.2c4.71,0,8.75-.27,12.79-.74Z"/>
        <path class="cls-1" d="M228.03,211.03l-.21-33.21c-.06-9.55-3.66-16.05-6.63-23.61.63.69,2.44,1.96,2.86,2.96,2.82,6.66,5.87,14.46,5.9,21.89l.14,30.09c0,.4-.19,1.89-.57,1.89h-1.49Z"/>
        <path class="cls-1" d="M135.07,180.17v27.87s-1.53.01-1.53.01c-.38,0-.51-1.44-.51-1.89v-24.12c0-.45.13-1.89.51-1.89h1.53Z"/>
        <path class="cls-1" d="M184.03,133.39c-8.78-.54-17.57,1.28-25,6.07-1.95-5.32,21.93-9.03,25.85-8.14l-.85,2.07Z"/>
        <path class="cls-1" d="M158.03,139.46c-5.67,4.29-10.53,9.11-14.87,14.73,1.82-5.94,8.79-16.05,14.87-14.73Z"/>
        <path class="cls-1" d="M135.07,178.18c-3.7-5.08,2.45-12.78,3.19-13.94l-3.19,13.94Z"/>
        <path class="cls-1" d="M200.03,136.47c-1.33-.58-2.74-1.23-4-1.85l2.7-.33c.78-.09,1.22,1.2,1.3,2.18Z"/>
        <path class="cls-1" d="M219.03,151.31c-.83-.81-1.64-1.94-2.12-2.99.43.09,1.94.16,1.98.71l.14,2.28Z"/>
        <path class="cls-1" d="M195.03,134.54l-6-1.14c1.75-1.39,4.51-.54,6,1.14Z"/>
        <path class="cls-5" d="M351.76,188.85l-1.46-.78c-1.03-4.2-4.26-7.7-7.26-10.88-1.23-1.31-2.54-2.98-3.97-4.01-13-14.53-35.83-22.33-55.03-23.86-.26-.02-.71,0-1,0-1.69-5.42-3.22-11.07-5.86-15.93l-.03-1c-1.41-4.08-3.14-8.79-5.81-12.05,1.37-1.57,4.64-2.82,6.71-3.78l5-2.33c.75-.35,2.07-1.28,2.75-1.8l2.25-.9,3-.89c.32-.1.76-.66,1-.91l1-.08c4.63-1.93,9.59-4.37,14-6.85.23-.07.73-.07,1-.1l6-2.94,1-.07,13-5.6c16.08,28.66,23.44,63.68,23.72,94.75Z"/>
        <path class="cls-2" d="M38.03,96.56c3.62,1.32,7.39,5.53,11,3.98.24.25.73.77,1,1,3.54,2.93,11.84,7,16.31,8.27l2.19.62c.31.09.34-.43.5-.92.85.35,2.21,1.43,3,1.99,4.38,3.08,9.85,5.17,15.07,7.31l1.14,4.51-8.9,24.42c-10.53,1.57-19.94,4.01-30.77,7.56l.46,1c-2.8,1.02-5.92,2.99-8,4.77l-1,.07-1,.96-2,1.08c-1.03.52-2.17,1.23-3,1.92l-2,1.17-2,1c-.1-.5-1.27-.47-1.55-.06-.38.54-1.12,1.64-1.45,2.05l-3.07,3.83c-1.55.84-2.94,2.44-3.95,4.11l-1.98,1.02c-1.23.63-2.21,1.93-2.24,2.99l-2.01,3.98c-.34.67-.75,2-.98,2.79l-1.7.09c1.13-4.09.56-8.59.93-12.83l1.82-.45c1.81-22.35,6.25-45.79,15.87-66.42.89-1.91,1.31-3.79.5-4.81v-1l.81-1.99,2-1.99c1.37-1.37,2.99-1.99,5-1.99Z"/>
        <path class="cls-4" d="M121.92,21.95l.94.95c0,.36-.06.78.04,1l1.9,3.98.06,1-.19,4.82,1.36-.84,10.83,23.89c0,.34-.03.77.05,1,.52,1.6,1.94,4.48,2.95,5.97l.05,1,3.93,9.04-.84,1.9c-1.4.45-2.92,1.15-4.05,1.94-.85.27-2.1.72-2.92,1.06-1.38.57-3.03,1.79-4.08,2.81-.77.15-2.23.72-2.92,1.08-3.35,1.75-9.19,6.09-12,9.05h-2l-2-1.99-1-1c-2.13-2.81-7.19-7.72-10-9.86l-1-1.09c-.24-.26-.73-.76-1-1l-7.97-6.99c-.54-.47-1.41-1.61-2.03-1.96-1.72-2.21-3.78-4.26-6-5.97-.42-.58-1.4-1.53-1.97-2.02l-2.03-1.96c-1.29-1.7-4.2-4.83-6-5.97l-1.02-1.16c.28-.43.87-1.21,1-1.68,2.86-2.42,5.72-4.99,9.02-6.12,1-.34,2.14-1.36,2.29-2.09l4.71-3.88c.45-.37,1.43-.96,1.92-1.29.25-.17.72-.57.91-.82,2.95-.84,5.98-2.56,8.17-4.68l1-.05,1-.97,1-.04,5-2.95,1-.03,1-.94c.25,0,.75.03,1-.05,1.62-.5,4.53-1.94,6-2.98l1-.03,1.95-.99.93.93Z"/>
        <path class="cls-4" d="M250.03,25.01c.24.1.74.05,1,.04.24.26.68.82,1,.93l3,1.01,1,1,1,.04,1,.94,1,.03,3,1.99,1,.05,1,.82c.45.37,1.42,1.08,2,1.12.73.81,1.98,1.51,3.12,1.83l1.72,1.07c1.26,1.13,2.77,2.13,4.32,2.88,1.94,1.74,4.62,3.5,6.84,4.83l2,1.32,1,.88c.77.86,1.92,1.66,3,2.12l1,.87,1.01.97-1.71,3.06c-1.19.79-2.37,1.85-3.3,2.94l-3,2.99-2,1.99c-1.44,1.28-4.01,3.67-5.13,5.38l-3.6,3.61c-1.69,1.02-4.1,3.45-5.27,4.95l-2,1.99c-2.24,1.74-6.24,5.74-8,7.96l-1,1-1.03.96-4.97,4.74-1-.14-.92.11c-.29-.21-.76-.53-.98-.73l-2.1-1.96c-.26-.24-.74-.76-1-1-4.78-4.28-15.22-11.02-22-12.94-.2-.29-.75-.74-1-1l2.14-5.97,1.97-4.98,3.04-6.97.06-1c1.16-1.76,2.31-3.93,2.92-5.97l.88-2.99,1.14-1.99c.13-.23.07-.64.06-1l4.93-10.95.05-1c.72-1.1,1.58-2.74,1.94-3.98l.88-2.99,1.85-1.85c.49-.49,2.35.54,3.14.87l5.01,2.1Z"/>
        <path class="cls-4" d="M180.03,9.95v57.71s-7,.03-7,.03l-1,1c-7.84-.82-16.92,3.85-23.77,3.75l-.07-.84c-1.36-3.57-3.06-7.64-4.97-10.88l-.06-1c-1.48-4.59-3.47-9.82-5.96-13.94,0-.25-.03-.74-.05-1-2.82-7.31-5.6-14.89-8.97-21.9l-.04-1-1-2.86c17.15-6.09,35.18-8.55,52.88-9.09Z"/>
        <path class="cls-4" d="M235.87,19.08l.05.88-1,2.94-.03,1c-6.87,15.27-13.06,31.09-18.98,46.79l-.05,1c-.57.4-1.58.48-3.37-.08-6.49-2.06-19.66-3.98-26.39-4.03-.21,0-.6-.04-.87-.06l.08-57.27c.26-.04.6-.09.81-.09,12.67.2,36.58,4.51,49.75,8.94ZM187.43,27.75c.84-6.29.83-11.02.04-15.9-.56,5.78-.55,10.88-.04,15.9Z"/>
        <path class="cls-7" d="M70.03,55.77l1-.02,2,2.99c.2.29.72.74,1,1,.27.27.77.72,1,1,2.71,3.26,8.41,9.08,12,11.95h1.1c-.02.35-.06.75.02,1,.22.7,1.29,1.84,2.03,1.93l1.76.22,2.88,2.83c.05.25.01.72,0,1,2.09,4.42,6.76,8.5,11.21,10.95.21.28.71.8,1,1,.66.84,2.55,3.17,1.86,4.12l-2.84,3.89c-.44.6-.91,2-1.24,2.7l-1.78.25c-3.08,3.2-5.73,6.48-8.9,10.92l-10.22-4.68-13-5.94-9.04-3.96-17.15-8-2.39-1.18c-.43-.21-.96.4-1.3.89l-3.1-1.36,3.22-4.5c.25-.24.68-.66.93-.86,3.04-2.32,7.51-8.38,9.19-12.19v-1l.75-1h1c2.23-.97,4.67-3.95,5.85-6.19l.22-1.61c2.46-2.22,4.92-4.41,7.52-6.17l3.4.06Z"/>
        <path class="cls-7" d="M316.03,77.64c1.67.81,2.91,2.3,4,3.98-.51.35-.92.57-.64.86.19.19,1.36,1.21,1.43,1.47l1.36,4.5c.26.87-3.37,1.23-2.03,2.28l-.18.76-2.95,1.08c-2.81-1.73-5.7,1.32-9.33,3-4.73,2.18-13.58,6.17-17.67,8.94-.29.2-.75.72-1,1l-1.53-.72c-5.9,3.06-12.18,5.73-18.43,7.95l-10.31-13.06-4.73-6.11c3.5-3.71,10.49-10.7,14.82-14.03,1.1-.85,2.28-1.89,3.18-2.89v-1c.26-.05.67-.02,1,0,1.44-1.15,2.83-2.54,4-3.98l1-1c2.57-2.01,4.99-4.41,7-6.97v-1c.24-.03.78,0,1,0l2-1.99c.27-.27.73-.77,1-1l5.42-4.58c4.82,3.65,8.8,7.8,12.72,12.31l8.86,10.19Z"/>
        <path class="cls-4" d="M146.87,80.8c1.77,5.73,4.21,11.39,6.93,16.76l.08,1c3.54,8.68,7.22,17.52,11.28,25.96,0,.23.04.69.04.92-1.42.47-2.92,1.1-4.17,1.78l-1,.07c-2.29,1.12-4.84,2.12-7.21,2.46-8.94-10.13-18.92-19.54-28.7-28.94l-4.1-4.35c.74-1.02,2.38-2.73,3.01-3.77,3.29-1.42,6.56-3.58,9.15-6.04.52-.05,1.36-.66,1.8-.98l3-1.28c.29-.12.69-.61.93-.86l1.12-.14,4-1.68,1-.94,2.83.04Z"/>
        <path class="cls-4" d="M231.17,85.63l10.86,7.94,1.75,1.19.03,1.75-3.8,4.03c-.24.25-.75.69-1.02.91l-4.97,3.93c-.66.52-1.54,1.48-2.17,2.14l-11.56,12.17c-1.38,1.45-3.85,2.93-5.04,4.66l-1.24,1.08-1,1-2,1.99-1,.78-4.04-1.79c-2.03-.9-4.07-1.62-5.96-1.98l-.37-1.39,17.46-44.68,14.05,6.27Z"/>
        <path class="cls-6" d="M180.03,75.65v46.79l-10.53,1.96-17.3-41.78-.05-1-.74-3.03c-.06-.5,1.95-1.32,2.52-1.42l22.96-3.92c.62-.11,2.84.51,2.97,1.06.09.36.11.83.16,1.34Z"/>
        <path class="cls-6" d="M195.9,123.27l-.93.03-8.88-.98-.87-.05-.09-47.57.94-.94c8.54-.21,17.2,1.3,26.39,3.9-6.04,15.92-11.79,30.45-16.56,45.62Z"/>
        <path class="cls-6" d="M117.85,101.61l15.18,13.86c1.63,1.73,3.2,3.44,5,4.98l2,1.99c1.33,1.41,3.35,3.85,5,4.98l4.52,5.4-7.8,7.08-21.73-11.59-1-.02c-6.08-3.72-12.65-7.2-19.26-10.56l3.43-6.17c.53-.45,1.34-1.49,1.82-2.06l5-5.97c.59-.41,1.47-1.46,2-1.99l2-1.99c1.05.42,2.75,1.44,3.82,2.06Z"/>
        <path class="cls-6" d="M100.03,123.43l4,2.13,1,.06c4.19,3.1,9.29,5.42,14,7.91l1,.07,1,.92,1,.07c1.2,1.46,3.16,2.39,5.1,2.67.24.25.66.72.94.88l5.96,3.33,1,.05,2.11.93-.11,2.87c-1.69,1.52-2.99,3.74-4,5.97h-1c-5.68-.61-11.31-1.02-17-1-.88-.58-2.71-1-4-1h-4l-20.47-.04c2.42-7.5,4.77-14.25,7.59-20.86l.04-1,.94-1,.02-1,1.01-.89c.26-.23.66-.7.88-.95l1.52.92c.41.25,1.43-.86,1.48-1.07Z"/>
        <path class="cls-6" d="M250.03,100.54l1,1,1,1,1,1,1,1,9.72,12.88-13.72,8-1-.08c-4.8,2.44-9.61,4.89-14,7.87l-1,.06-1,.98-1,.04c-2.03,1.08-4.35,2.5-6,3.9-.26.03-.76.05-1,.06l-2.07.95-7.76-6.86-.17-1.91c.28-.27.78-.72,1-1,2.21-1.71,4.27-3.77,6-5.97l1.94-2c2.37-1.54,4.53-3.58,6.14-5.88.74-.32,1.7-1.67,2.26-2.25,1.5-1.09,3.29-2.5,4.66-3.81,2.75-2.63,5.38-5.44,7.7-8.37l2.35-2.22,2.95,1.63Z"/>
        <path class="cls-6" d="M269.14,129.32c.25.07.58.16.79.18.74,2.38,1.69,4.78,2.88,6.88-.05.23.05.74.07,1,1.49,3.78,2.71,7.96,3.15,11.95h-25c-1.36.1-3.06.45-4,1-3.43.11-10.07.62-14,1-.49-.24-1.57-.61-1.88-1.05l-1.38-1.94-2.45-3.9,1.4-1.09c.29-.23-.17-.6-.69-.99l4-2.8,1-.05c4.74-2.48,9.81-4.78,14-7.9.26,0,.73-.04,1-.06l8.08-4.03c1.6,2.34,5.82-3.91,9.25-2.99,1.11.3,2.06,2.65,2.75,4.01.29,1.64.52,2.46,1.02.78ZM272,148.06c-3.62-.88-5.91-.91-8.05-.07l8.05.07Z"/>
        <path class="cls-1" d="M231.17,85.63l-14.05-6.27-17.46,44.68c-3.92.78,12.37-29.82,10.81-33.91-3.92,7.13-6.48,14.23-9.05,21.82-1.36,4.1-3.08,8.37-5.53,11.32,4.77-15.16,10.52-29.7,16.56-45.62-9.19-2.6-17.85-4.11-26.39-3.9l1-1.16c9.28-.36,18.04,1.07,26.64,4.26l-3.61,13.3c4.33-3.08,3.03-7.71,6.11-10.83,2.51-2.54,15.94,4.59,14.97,6.3Z"/>
        <path class="cls-1" d="M27.03,109.5c-8.34,21.07-13.02,43.15-15,65.7-.37,4.24.19,8.74-.93,12.83-2.22-2.66-.65-7.22-.43-11.07,1.3-22.53,5.73-44.03,13.73-65.17.41-1.08,1.79-2.2,2.64-2.29Z"/>
        <path class="cls-1" d="M351.76,188.85c-.28-31.08-7.63-66.09-23.72-94.75l-13,5.6c-.01-.64,1.28-2.65,2.21-2.97l11.27-3.92,6.16,11.3c13.69,25.11,17.86,54.26,18.67,83.03-.46.68-1.47,1.83-1.59,1.71Z"/>
        <path class="cls-1" d="M148.27,72.44c6.85.1,15.92-4.58,23.77-3.75l1-1,7.01-.03v-31.83s1.15-2.37,1.15-2.37c.23-.47-.9-1.5-1.16-1.61v-10.95c1.33-.82,1.33-4.16,0-4.98v-3.98l2.04-.95-.11,55.68c0,1.96-5.09,3.02-7.09,3.04-14.83.13-29.5,8.01-26.61,2.72Z"/>
        <path class="cls-1" d="M180.03,119.45v-1.99c.16-.17.65-.69.8-.92.24-.36-.8-1.63-.8-2.07v-38.82c-.05-.51-.07-.98-.16-1.34-.13-.55-2.35-1.16-2.97-1.06l-22.96,3.92c-.56.1-2.57.92-2.52,1.42l.74,3.03-2.21-.2c.16-1.41.61-4.07,1.59-4.77,2.29-1.63,25.51-5.23,28.29-4.48.9.24,2.23,2.61,2.23,3.86l-.07,46.46-1.95-3.03Z"/>
        <path class="cls-1" d="M180.03,122.44c-1.42,4.02-7.31,1.31-11.2,3.36l-3.8-7.34c-1.23-4.5-3.38-10.32-6.22-13.82-2.27-11.65-6.77-14.31-6.61-22.02l17.3,41.78,10.53-1.96Z"/>
        <path class="cls-1" d="M158.82,104.64c.95,4.85,2.59,9.94,6.22,13.82.42,1.54.36,4.51.12,6.05-4.06-8.44-7.75-17.28-11.28-25.96l4.94,6.09Z"/>
        <path class="cls-1" d="M180.03,9.95c-17.69.54-35.73,3-52.88,9.09l1,2.86-2.13-1.56c-6.95-5.1,52.6-15.16,54.01-10.38Z"/>
        <path class="cls-1" d="M215.9,70.68c5.93-15.7,12.11-31.52,18.98-46.79-.07,1.98-.4,4.43-1.25,6.55l-15.2,37.77c-.52,1.28-1.52,2.35-2.53,2.47Z"/>
        <path class="cls-1" d="M237.03,109.5c-1.37,1.31-3.16,2.72-4.66,3.81l-.57-2.15-5.95,6.22,4.26-1.82c-1.61,2.3-3.77,4.34-6.14,5.88l1.11-3.44-4.77,1.69,11.56-12.17,2.17-2.14,4.97-3.93c-.61,3.37-1.86,4.84-5.58,7.24l3.61.82Z"/>
        <path class="cls-1" d="M235.87,19.08c-13.17-4.43-37.08-8.74-49.75-8.94,1.11-4.51,47.87,4.6,49.75,8.94Z"/>
        <path class="cls-1" d="M107.03,149.32c.4.72.6.72,1,0h3c.88.58,2.71,1,4,1,5.69-.02,11.32.39,17,1-6.55,2.05-14.59.78-21.9.18l-7.81-.64c-5.4-.44-9.7-.66-15.22.18-1.09-2.31-1.13-5.93-.14-8.52l3.68-9.55c.75-1.95,1.92-3.74,3.51-4.56-2.82,6.61-5.17,13.37-7.59,20.86l20.47.04Z"/>
        <path class="cls-1" d="M275.03,149.32c-2.18,1.06-5.76.97-9.02,1.17l-17.97,1.08c-5.23.31-10.64,1.82-15.01-.26,3.93-.37,10.57-.88,14-1,1.06-.03,2.99-.6,4-1h24Z"/>
        <polygon class="cls-1" points="185.23 67.5 184.02 66.61 184.02 10.96 185.31 10.23 185.23 67.5"/>
        <path class="cls-1" d="M339.07,173.18c-6.62-4.8-13.36-10.19-21.16-13.64-9.98-4.42-20.08-6.8-30.92-8.33-1.13-.16-2.63-1.15-2.96-1.88,19.21,1.53,42.04,9.33,55.03,23.86Z"/>
        <path class="cls-1" d="M185.22,122.26l-1.21-.85.03-44.42c0-.8.75-1.96,1.09-2.3l.09,47.57Z"/>
        <path class="cls-1" d="M215.85,71.67l.2,1.56c.05.39-1.71.49-2.09.37-7.79-2.46-16.86-3.89-24.66-4.11-1.02-.03-2.95-1.41-3.21-1.94,6.73.05,19.91,1.97,26.39,4.03,1.78.57,2.79.48,3.37.08Z"/>
        <path class="cls-1" d="M81.03,148.32c1.19-6.47,5.81-18.85,8.19-24.98.35-.9,2.62-2.72,1.93-3.39-.81-.78-2.84-1.73-4.06-2.22-2.14-.86-4.26-1.95-6.06-3.25,3.8-.18,8.05,1.71,11.51,4.58l-9.46,26.56c-.19.53-.51,2.04-.66,2.57-.1.35-1.11.16-1.4.14Z"/>
        <path class="cls-1" d="M265.03,122.44c-1.7,1.37-3.84,2.38-6,2.99l-1,1-1.92,1.09-8.08,4.03c2.02-2.06,3.8-3.22,7.36-5.84l-5.37-.29,13.72-8-9.72-12.88c3.05,3.04,8.27,9.38,11.49,13.5l-10.56,6.21c4.08,2.75,6.24-1.63,8.78-2.97l1.72-.9c.3-.16.42.68.25.96l-.68,1.12Z"/>
        <path class="cls-1" d="M137.16,44.79c.04.16-2.12-.72-2.31-1.21l-5.1-13.26c-1.08-2.81-1.46-5.05-1.56-7.42,3.36,7.01,6.15,14.59,8.97,21.9Z"/>
        <path class="cls-1" d="M136.86,56.74l-10.83-23.89c-.43-.94-.92-2.92-1.17-3.98.69.04,1.88-.04,2.08.5s.63,2.09.9,2.72l7.45,17.52c1,2.36,1.58,4.95,1.57,7.13Z"/>
        <path class="cls-4" d="M103.03,102.53v1.99c-1.35,1.19-3.64,3.07-4,4.98l-1,1-1,1.99-2,1.99c0,.21.02.75,0,1l-22-9.95c-.28.01-.75.07-1,0-1.14-.84-2.6-1.55-4-1.99-.46-.34-1.43-.98-2-1-.98-.81-2.74-1.72-4-1.99-.23-.05-.74,0-1,0-1.7-1.38-3.84-2.4-6-2.99-.64-.64-2.16-1.63-3-1.99l-7-2.99h-1l-1-1c-.31.02-.74.03-1,0l-1-1c.34-.48.87-1.1,1.3-.89l2.39,1.18,17.15,8,9.04,3.96,13,5.94,10.22,4.68c3.17-4.44,5.81-7.72,8.9-10.92Z"/>
        <path class="cls-1" d="M119.03,128.29c-3.76-.07-15.18-6.14-19.17-9.1-2.23-1.66,1.63-6.19,3.35-7.63l-3.43,6.17c6.6,3.36,13.18,6.84,19.26,10.56Z"/>
        <path class="cls-1" d="M283.03,149.32c-3.33-.03-5.79-13.4-5.86-15.93,2.65,4.86,4.17,10.51,5.86,15.93Z"/>
        <path class="cls-1" d="M119.03,133.54c-4.71-2.49-9.81-4.81-14-7.91,3.71.22,14,4.51,14,7.91Z"/>
        <path class="cls-1" d="M235.03,133.18c4.39-2.97,9.2-5.43,14-7.87-.08,3.38-10.25,7.63-14,7.87Z"/>
        <path class="cls-1" d="M143.17,59.73c-2.19,1.4-5.96-10.34-5.96-13.94,2.49,4.11,4.48,9.35,5.96,13.94Z"/>
        <path class="cls-1" d="M319.99,91.49c1.77.28.31.81-.79,1.18l-31.23,14.75c-6.06,2.86-12.15,5.7-17.93,7.05l19-8.96c.25-.27.71-.8,1-1,2.75-.82,5.36-2.24,8.4-3.57l14.6-6.38,1-1,3-1,2.95-1.08Z"/>
        <path class="cls-1" d="M250.03,25.01l-5.01-2.1c-.78-.33-2.64-1.36-3.14-.87l-1.85,1.85c-.54-.7-.79-3.26.18-3.64,1.86-.72,11.41,2.81,9.82,4.75Z"/>
        <path class="cls-1" d="M243.03,87.6c-3.45-1.6-6.53-3.43-10.5-5.63-3.35-1.86-9.61-4.49-11.5-7.31,6.78,1.92,17.22,8.66,22,12.94Z"/>
        <path class="cls-1" d="M95.03,115.47c-.04.54-.99,1.36-1.47,1.12l-1.84-.93c-6.34-3.23-20.25-8.09-18.69-10.14l22,9.95Z"/>
        <path class="cls-1" d="M49.03,100.54l-10-3.98-2-1.99c4.17,0,10.15,2.53,12,5.97Z"/>
        <path class="cls-1" d="M76.03,112.48l-4-1c-.79-.56-2.15-1.64-3-1.99-1.67-.69-4.32-1.97-6-2.99,2.36.34,13.75,2.82,13,5.97Z"/>
        <path class="cls-1" d="M247.03,131.6c-4.19,3.12-9.26,5.42-14,7.9,2.93-3.2,9.13-7.95,14-7.9Z"/>
        <path class="cls-1" d="M276.03,149.32c-.44-3.99-1.67-8.17-3.15-11.95,2.67,1.57,3.52,5.21,4.43,8.74l.7,2.71c.13.51-1.44.49-1.98.49Z"/>
        <path class="cls-1" d="M148.19,71.6c-3.28-1.64-4.79-7.79-4.97-10.88,1.91,3.24,3.61,7.31,4.97,10.88Z"/>
        <path class="cls-1" d="M143.84,73.75l-3.93-9.04c1.69-2.18,6.64,10.12,3.93,9.04Z"/>
        <path class="cls-4" d="M96.03,79.63c2.02,2.56,4.43,4.96,7,6.97l3,3.98c-4.45-2.45-9.12-6.53-11.21-10.95h1.21Z"/>
        <path class="cls-1" d="M247.09,98.91l-2.35,2.22c-.58-.57-1.57-1.69-2.27-1.45l-2.44.86,3.8-4.03c.91.83,2.19,1.81,3.27,2.4Z"/>
        <path class="cls-4" d="M289.03,105.52l-19,8.96c-1.17-.63-2.88-1.97-4-2.99v-1l-4-4.98c-.45-.56-1.43-1.47-2-1.99l-1-1-2-1.99c-4.28-7.8-5.07-4.77-3-6.97l4.73,6.11,10.31,13.06c6.25-2.22,12.53-4.89,18.43-7.95l1.53.72Z"/>
        <path class="cls-1" d="M153.8,97.55c-2.72-5.37-5.16-11.03-6.93-16.76,3.33,1.19,3.23,5.96,4.76,9.33,1.16,2.53,2.43,5.19,2.17,7.43Z"/>
        <path class="cls-1" d="M194.97,123.3c-.87,1.93-9.02,1.31-8.98.63l.09-1.61,8.88.98Z"/>
        <path class="cls-1" d="M277.14,132.39c-.73-.13-1.58-.22-1.78-.75l-1.05-2.73c-1.04-2.71-3.77-5.99-2.98-8.57,2.67,3.26,4.4,7.96,5.81,12.05Z"/>
        <path class="cls-4" d="M300.03,57.74c1.71,2.19,3.77,4.32,6,5.97l3,3.98c.95.99,2.01,2.05,3,2.99l2,2.99c.4.6,1.38,1.63,2,1.99v1.99l-8.86-10.19c-3.92-4.51-7.9-8.66-12.72-12.31l-5.42,4.58c1.71-2.2,3.78-4.29,6-5.97l5,3.98Z"/>
        <path class="cls-1" d="M210.03,129.19c-.38.51-.84,1.27-1.3,1.09l-2.52-1.03c-2.19-.89-5.11-2.34-6.18-3.82,1.89.35,3.93,1.08,5.96,1.98l4.04,1.79Z"/>
        <path class="cls-1" d="M226.03,138.17c1.65-1.41,3.97-2.82,6-3.9-.16,1.09-1.08,3.33-2.18,3.46l-3.82.44Z"/>
        <path class="cls-1" d="M237.17,31.85l-4.93,10.95c-.17-4.22,2.98-11.73,4.93-10.95Z"/>
        <path class="cls-1" d="M139.86,63.71c-1.01-1.49-2.43-4.37-2.95-5.97,1.01.21,2.79.94,2.82,1.89l.13,4.08Z"/>
        <path class="cls-1" d="M230.15,48.78c-.6,2.04-1.76,4.21-2.92,5.97l.1-4.08c.02-.95,1.82-1.69,2.82-1.89Z"/>
        <path class="cls-1" d="M222.17,67.69l-2.14,5.97c-.74-.75-.91-2.82-.54-3.92.27-.83,1.87-1.92,2.68-2.05Z"/>
        <path class="cls-1" d="M118.03,22.03c-1.47,1.04-4.38,2.48-6,2.98.22-1.01.95-2.77,1.89-2.81l4.11-.17Z"/>
        <path class="cls-1" d="M152.83,129.73c2.37-.34,4.91-1.34,7.21-2.46-.73,2.34-4.03,2.35-6.15,3.73-4.21,2.75-8.22,6.77-11.82,10.27l-18.95-9.97c-.55-.29-2.54-.33-2.65-.88l-.43-2.12,21.73,11.59,7.8-7.08-4.52-5.4c1.96,1.33,3.39,2.59,5.75,4.8l2.04-2.48Z"/>
        <path class="cls-1" d="M127.13,137.27c-1.94-.28-3.9-1.22-5.1-2.67,2-.36,4.7.56,5.1,2.67Z"/>
        <path class="cls-1" d="M271.3,69.71l3.6-3.61c-.19,1.85-1.74,3.32-3.6,3.61Z"/>
        <polygon class="cls-4" points="69.03 53.92 70.03 55.77 66.63 55.71 66.48 55.09 69.03 53.92"/>
        <path class="cls-1" d="M56.03,103.53c-1.15-.24-3.05-1.2-4-1.99.52-.4,2.45-1.12,2.81-.4l1.19,2.39Z"/>
        <path class="cls-1" d="M133.03,151.31c1.01-2.23,2.31-4.45,4-5.97-.1,2.54-1.67,4.76-4,5.97Z"/>
        <path class="cls-6" d="M37.03,94.57l2,1.99h-1c-2.01,0-3.63.62-5,1.99l1-3.98h3Z"/>
        <path class="cls-1" d="M41.16,84.72l-3.22,4.5,3.1,1.36,1,1-5.1-1.31c-.38-2.75,1.51-5.08,4.23-5.55Z"/>
        <path class="cls-1" d="M272.81,136.37c-1.19-2.09-2.14-4.5-2.88-6.88,2.01.15,3.28,4.91,2.88,6.88Z"/>
        <path class="cls-4" d="M42.09,83.86l2.94-5.22c1.17-1.08,2.22-2.52,3-3.98l3.25-2.99c-1.68,3.81-6.16,9.87-9.19,12.19Z"/>
        <path class="cls-4" d="M320.17,90.74c-1.34-1.05,2.29-1.41,2.03-2.28l-1.36-4.5c-.08-.26-1.25-1.28-1.43-1.47-.28-.29.13-.52.64-.86l4.59,7.1-4.45,2.01Z"/>
        <path class="cls-1" d="M117.03,91.58c2.81-2.96,8.65-7.3,12-9.05-1.68,5.03-6.48,3.3-10.54,9.51-.24.31-1.14-.22-1.46-.46Z"/>
        <path class="cls-1" d="M227.18,55.74l-3.04,6.97c-.69-.85-.3-2.81.35-4.21l1.18-2.55c.16-.34,1.28-.22,1.51-.21Z"/>
        <path class="cls-1" d="M165.2,125.42c0,.77-.8,2.21-1.56,2.12l-2.61-.33c1.25-.69,2.75-1.31,4.17-1.78Z"/>
        <path class="cls-1" d="M239.16,26.88c-.37,1.25-1.23,2.88-1.94,3.98l-.15-3.39c-.02-.57,1.47-.57,2.09-.59Z"/>
        <path class="cls-1" d="M134.03,141.48l-5.96-3.33c2.42-.81,5.51.73,5.96,3.33Z"/>
        <path class="cls-1" d="M350.3,188.07c-2.78-2.97-5.15-7.15-7.26-10.88,3,3.18,6.23,6.68,7.26,10.88Z"/>
        <path class="cls-1" d="M131.95,81.45c1.05-1.02,2.7-2.24,4.08-2.81-.17.71-.54,2.12-1.22,2.25l-2.86.56Z"/>
        <path class="cls-1" d="M109.03,97.55l2-1.99c.63.09.8,2.3.09,2.23l-2.09-.23Z"/>
        <path class="cls-1" d="M52.03,95.56c-2.12,1.75-5.84-.63-7-2.99l7,2.99Z"/>
        <path class="cls-1" d="M66.03,102.53l-3.37-.1c-.57-.02-.59-1.2-.63-1.89,1.26.28,3.02,1.18,4,1.99Z"/>
        <path class="cls-1" d="M307.03,102.8c-4.41,2.48-9.37,4.92-14,6.85l.2-1.45c.05-.34,11.53-4.67,13.8-5.4Z"/>
        <path class="cls-1" d="M124.8,27.87l-1.9-3.98c.96.05,2.33.55,2.23,1.33l-.33,2.65Z"/>
        <path class="cls-1" d="M285.03,55.74c.92-1.1,2.11-2.15,3.3-2.94.32.99.17,1.84-.51,2.06l-2.79.89Z"/>
        <path class="cls-1" d="M234.92,22.89l1-2.94,1.3,1.58c.44.54-1.9,1.29-2.3,1.36Z"/>
        <path class="cls-1" d="M288.03,47.91c-1.08-.46-2.23-1.26-3-2.12l2.26.16c.55.04.65,1.52.74,1.95Z"/>
        <path class="cls-1" d="M84.03,40.81l-1,1.99c-3.31,1.13-6.16,3.7-9.02,6.12.87-3.23,6.68-7.85,10.02-8.11Z"/>
        <path class="cls-1" d="M101.03,30.04c-2.19,2.12-5.22,3.84-8.17,4.68,1.51-1.89,5.54-4.56,8.17-4.68Z"/>
        <path class="cls-1" d="M45.03,78.64c-.12-1.87,1.15-3.52,3-3.98-.78,1.46-1.83,2.9-3,3.98Z"/>
        <path class="cls-1" d="M269.15,34.8c-1.14-.33-2.39-1.03-3.12-1.83l2.23.12c.54.03.73,1.2.89,1.71Z"/>
        <path class="cls-1" d="M124.12,100.79l-4.17-2.11c-.27-.27-1.32-1.34-1.01-1.54l1.09-.7,4.1,4.35Z"/>
        <path class="cls-1" d="M33.03,98.55l-2,1.99c.2-2.22,1.34-4.41,3-5.97l-1,3.98Z"/>
        <path class="cls-1" d="M136.98,84.37l-3,1.28c.03-.47.69-2.55,1.3-2.22l1.7.94Z"/>
        <path class="cls-1" d="M28.03,169.22c.46-.59,1.35-1.67,2-1.99l2-1c-.22,1.82-2.61,3.1-4,2.99Z"/>
        <path class="cls-1" d="M132.18,86.63c-2.59,2.47-5.86,4.63-9.15,6.04,1.47-2.42,6.32-5.79,9.15-6.04Z"/>
        <path class="cls-1" d="M133.03,115.47l-15.18-13.86c.92.54,3.2,1.17,3.95,1.96l11.24,11.9Z"/>
        <path class="cls-1" d="M320.03,81.63c-1.09-1.69-2.33-3.17-4-3.98v-1.99c2.71,1.59,5.47,4.98,4,5.97Z"/>
        <path class="cls-1" d="M272.03,75.65v1l-2,1c-.53.01-.61-1.48-.04-1.59l2.04-.4Z"/>
        <path class="cls-1" d="M215.03,130.4l.17,1.91-2.22-.31c-.39-.06.18-1.56.57-1.57l1.48-.03Z"/>
        <path class="cls-1" d="M283.03,114.23l-5,2.33c-.01-.62,1.15-2.61,1.98-2.57s2.37.16,3.02.24Z"/>
        <path class="cls-1" d="M114.03,99.54l-2,1.99.89-2.58c.13-.39.63.06,1.11.59Z"/>
        <path class="cls-1" d="M232.17,43.8l-1.14,1.99-.8-1.05c-.19-.25,0-.85.34-.86l1.6-.08Z"/>
        <path class="cls-1" d="M104.03,125.57l-4-2.13-1-1c1.63-.33,5.42,1.44,5,3.13Z"/>
        <path class="cls-1" d="M100.03,76.65c-3.47-.9-6.02-3.91-7.97-6.99l7.97,6.99Z"/>
        <path class="cls-4" d="M110.03,93.57l1,1v1l-2,1.99-2.98,2.03,2.84-3.89c.69-.94-1.2-3.27-1.86-4.12l3,1.99Z"/>
        <path class="cls-1" d="M284.03,44.91l-2-1.32c.22-.11,1.34-1.07,1.46-.65l.54,1.97Z"/>
        <path class="cls-1" d="M232.03,139.55l-4,2.8h-1c-.28-2.01,3.06-2.69,5-2.8Z"/>
        <path class="cls-1" d="M23.96,173.05c-.75,1.76-2.09,3.15-3.95,4.11,1.01-1.67,2.4-3.26,3.95-4.11Z"/>
        <path class="cls-1" d="M211.03,128.41l2-1.99c-.42.74-1.26,1.58-2,1.99Z"/>
        <path class="cls-1" d="M285.03,62.71v1l-2,1c.02-.47.02-1.76.54-1.82l1.46-.17Z"/>
        <path class="cls-1" d="M137.14,142.46l-2.11-.93,2.44-.09c.39-.01.27.13-.33,1.02Z"/>
        <path class="cls-1" d="M61.03,100.54c-2.05-.51-4.91-1.64-6-2.99,2.16.59,4.3,1.6,6,2.99Z"/>
        <path class="cls-1" d="M57.99,63.56l-1.96,2.14c.07-.5.15-1.61.63-1.75l1.32-.39Z"/>
        <path class="cls-1" d="M12.8,187.94c.23-.78.64-2.11.98-2.79l.3,2.48c.04.37-.88.29-1.28.31Z"/>
        <path class="cls-1" d="M90.03,67.69c-1.86-1.07-4.74-4.24-6-5.97,2.22,1.71,4.28,3.77,6,5.97Z"/>
        <path class="cls-1" d="M104.81,102.28c-.32.67-1.23,1.75-1.78,2.24v-1.99l1.78-.25Z"/>
        <path class="cls-1" d="M314.03,99.76l-6,2.94c.7-2.13,4.01-3.26,6-2.94Z"/>
        <path class="cls-4" d="M53.03,69.68l3-3.98,1.96-2.14.9-.07c-1.19,2.24-3.63,5.22-5.85,6.19Z"/>
        <path class="cls-1" d="M74.03,51.76c-.39-.25-1.51-.4-1.98-.47-.31-.05.76-.59.96-.69l1.02,1.16Z"/>
        <path class="cls-1" d="M30.22,103.53l-2.19,2.99c.4-1.37,1.27-2.93,2.19-3.98v1Z"/>
        <path class="cls-1" d="M275.19,38.75c-1.55-.75-3.06-1.75-4.32-2.88.19-.24.72-.9.62-.78,1.24,1.25,2.77,2.84,3.7,3.67Z"/>
        <path class="cls-1" d="M91.96,35.54c-.49.33-1.48.92-1.92,1.29-1.02-.16-.43-1.01.19-1.22.46-.15,1.96-.22,1.73-.07Z"/>
        <path class="cls-1" d="M72.03,105.52c-1.21-.32-2.99-1.25-4-1.99,1.4.45,2.86,1.15,4,1.99Z"/>
        <path class="cls-1" d="M262.03,105.52c-.05.08-.68,1.07-.61.96l-1.39-2.95c.57.52,1.55,1.43,2,1.99Z"/>
        <path class="cls-1" d="M37.03,163.15l-3,1.92c.83-.68,1.97-1.4,3-1.92Z"/>
        <path class="cls-1" d="M105.03,109.5c.79-2.07,3.36-4.84,5-5.97l-5,5.97Z"/>
        <path class="cls-1" d="M309.03,67.69l-3-3.98c1.45,1.07,2.53,2.28,3,3.98Z"/>
        <path class="cls-1" d="M109.03,26.03l-5,2.95c.91-1.67,3.02-2.89,5-2.95Z"/>
        <path class="cls-1" d="M256.03,27.99l-1-1c.58-1.9.79-.19,1,1Z"/>
        <path class="cls-1" d="M314.03,73.66l-2-2.99c.86.82,1.58,1.86,2,2.99Z"/>
        <path class="cls-1" d="M243.79,94.76l-1.75-1.19,1.44.27c.32.06.3.39.31.92Z"/>
        <path class="cls-1" d="M288.03,111.53l-2.25.9c.06-.34.06-1.43.47-1.33l1.78.43Z"/>
        <path class="cls-1" d="M143,75.65c-.47,1.06-2.91,1.57-4.05,1.94,1.13-.79,2.64-1.49,4.05-1.94Z"/>
        <path class="cls-1" d="M262.03,30.99l-3-1.99c1.11.03,2.54,1,3,1.99Z"/>
        <path class="cls-6" d="M83.03,42.8l1-1.99,1.29-.1c-.14.74-1.28,1.75-2.29,2.09Z"/>
        <path class="cls-1" d="M144.03,80.76l-1,.94c.21-1.1.53-2.95,1-.94Z"/>
        <path class="cls-1" d="M214.03,125.42l1.24-1.08c.17.54.31.65-.01.74l-1.22.34Z"/>
        <path class="cls-1" d="M140.03,122.44l-2-1.99c.55.47,1.5,1.47,2,1.99Z"/>
        <path class="cls-1" d="M264.03,31.85l-1-.82,1,.82Z"/>
        <path class="cls-1" d="M249.03,91.32l4.97-4.74c-1.29,1.9-3.02,3.61-4.97,4.74Z"/>
        <path class="cls-1" d="M113.03,89.59c-.27-.27-.79-.71-1-1l1,1Z"/>
        <path class="cls-1" d="M216.03,129.41c1.31-1.68,4.15-4.6,6-5.97-1.73,2.2-3.79,4.26-6,5.97Z"/>
        <path class="cls-1" d="M268.03,124.43l-1-1c.32.16.75.72,1,1Z"/>
        <path class="cls-1" d="M95.14,125.42l1.01-.89-1.01.89Z"/>
        <path class="cls-1" d="M246.13,90.56l-2.1-1.96,2.1,1.96Z"/>
        <path class="cls-1" d="M103.03,86.6c-2.57-2.01-4.98-4.41-7-6.97,2.55,1.98,5.05,4.39,7,6.97Z"/>
        <path class="cls-1" d="M255.03,85.61l1-1c-.22.28-.72.73-1,1Z"/>
        <path class="cls-1" d="M94.19,127.42l.94-1-.94,1Z"/>
        <path class="cls-1" d="M139.03,83.37l-1.12.14c.58-.26.89-.34,1.12-.14Z"/>
        <path class="cls-1" d="M44.03,92.58l-1-1,1,1Z"/>
        <path class="cls-4" d="M268.86,79.54l1.18-1.9,2-1c-.9,1.01-2.08,2.05-3.18,2.89Z"/>
        <path class="cls-1" d="M115.03,91.58h1c-.52.18-.68.19-1,0Z"/>
        <path class="cls-1" d="M102.04,78.74c-.3-.22-.75-.82-1-1.09l1,1.09Z"/>
        <path class="cls-1" d="M247.11,91.29l.92-.11c-.51,1.33-.58,1.52-.92.11Z"/>
        <path class="cls-1" d="M121.03,134.53l-1-.92,1,.92Z"/>
        <path class="cls-1" d="M94.82,78.64l-2.88-2.83c1.06.13,2.68,1.78,2.88,2.83Z"/>
        <path class="cls-1" d="M233.03,134.23l1-.98-1,.98Z"/>
        <path class="cls-1" d="M264.03,76.65l2-1.99c-.44.57-1.43,1.55-2,1.99Z"/>
        <path class="cls-1" d="M95.03,114.47l2-1.99-2,1.99Z"/>
        <path class="cls-1" d="M259.03,102.53c-.56-.48-1.65-1.36-2-1.99l2,1.99Z"/>
        <path class="cls-1" d="M222.96,139.17l2.07-.95-1.03,1.79c-.22.38-.64-.3-1.04-.84Z"/>
        <path class="cls-4" d="M273.03,75.65c1.07-1.31,2.75-2.98,4-3.98-1.17,1.44-2.56,2.83-4,3.98Z"/>
        <path class="cls-1" d="M111.03,94.57l-1-1c.29.2.74.71,1,1Z"/>
        <path class="cls-1" d="M290.05,49.74l-1.01-.97,1.01.97Z"/>
        <path class="cls-4" d="M90.18,75.59c-.74-.09-1.81-1.22-2.03-1.93l2.03,1.93Z"/>
        <path class="cls-1" d="M231.15,150.26l-1.49-.86c-.31-.18-.02-.6.11-1.08l1.38,1.94Z"/>
        <path class="cls-1" d="M102.03,29.99l1-.97-1,.97Z"/>
        <path class="cls-1" d="M291.03,110.64l1-.91c-.24.25-.68.81-1,.91Z"/>
        <path class="cls-1" d="M258.03,28.97l-1-.94,1,.94Z"/>
        <path class="cls-1" d="M88.13,72.67h-1.1v-1c.29.23.8.72,1.1,1Z"/>
        <path class="cls-4" d="M77.03,61.72l2,1.99,1,1c1.53,1.96,5.04,5.45,7,6.97v1c-3.59-2.87-9.29-8.68-12-11.95h1l1,1Z"/>
        <path class="cls-1" d="M98.03,110.49l1-1-1,1Z"/>
        <path class="cls-1" d="M252.03,25.98c-.32-.11-.76-.67-1-.93l1,.93Z"/>
        <path class="cls-1" d="M110.03,26l1-.94-1,.94Z"/>
        <path class="cls-4" d="M278.03,70.68l5-5.97,2-1c-2.01,2.56-4.43,4.96-7,6.97Z"/>
        <path class="cls-1" d="M51.28,70.68l.75-1-.75,1Z"/>
        <path class="cls-1" d="M122.86,22.89l-.94-.95.94.95Z"/>
        <path class="cls-1" d="M27.03,108.5l1-1-1,1Z"/>
        <path class="cls-1" d="M39.03,162.07l1-.96-1,.96Z"/>
        <path class="cls-1" d="M80.03,64.7l-1-1c.27.27.78.72,1,1Z"/>
        <path class="cls-4" d="M286.03,62.71l2-1.99-2,1.99Z"/>
        <path class="cls-1" d="M77.03,61.72l-1-1,1,1Z"/>
        <path class="cls-1" d="M66.63,55.71c-2.6,1.77-5.07,3.95-7.52,6.17,1.75-2.95,4.37-5.42,7.37-6.79l.15.62Z"/>
        <path class="cls-1" d="M280.03,60.72l2-1.99c-.55.55-1.47,1.52-2,1.99Z"/>
        <path class="cls-1" d="M82.07,59.69c-.59-.51-1.6-1.39-2.03-1.96l2.03,1.96Z"/>
        <path class="cls-1" d="M120.99,21.02l-1.95.99,1.05-1.71c.21-.35.45.03.9.72Z"/>
        <path class="cls-1" d="M60.03,105.52c-.32-.16-.75-.72-1-1l1,1Z"/>
        <path class="cls-4" d="M74.03,59.73c-.28-.26-.8-.7-1-1l1,1Z"/>
        <path class="cls-1" d="M58.03,104.52l-1-1,1,1Z"/>
        <path class="cls-1" d="M300.03,57.74l-5-3.98c1.42-1.08,3.97,2.45,5,3.98Z"/>
        <path class="cls-1" d="M253.03,103.53l-1-1,1,1Z"/>
        <path class="cls-1" d="M71.03,55.74l-1,.02-1-1.84c.65-.3,1.6,1.22,2,1.82Z"/>
        <path class="cls-1" d="M251.03,101.53l-1-1c.31.17.74.74,1,1Z"/>
        <path class="cls-6" d="M89.23,123.34l-.98-.03-1.14-4.51v-1.08c1.21.49,3.25,1.44,4.05,2.22.69.67-1.58,2.5-1.93,3.39Z"/>
        <path class="cls-6" d="M126.03,32.85l-1.36.84.19-4.82c.25,1.06.75,3.04,1.17,3.98Z"/>
        <path class="cls-3" d="M180.03,20.9v-4.98c1.33.82,1.33,4.16,0,4.98Z"/>
        <path class="cls-3" d="M180.03,35.84v-3.98c.27.11,1.39,1.15,1.16,1.61l-1.16,2.37Z"/>
        <path class="cls-3" d="M172.03,68.68l1-1-1,1Z"/>
        <path class="cls-7" d="M187.43,27.75c-.5-5.02-.52-10.13.04-15.9.79,4.88.8,9.62-.04,15.9Z"/>
        <path class="cls-4" d="M317.03,92.58l-3,1-1,1-14.6,6.38c-3.04,1.33-5.65,2.75-8.4,3.57,4.09-2.77,12.94-6.76,17.67-8.94,3.63-1.68,6.52-4.73,9.33-3Z"/>
        <path class="cls-3" d="M244.74,101.13c-2.32,2.93-4.96,5.74-7.7,8.37l-3.61-.82c3.71-2.4,4.97-3.87,5.58-7.24.27-.21.78-.65,1.02-.91l2.44-.86c.7-.25,1.7.88,2.27,1.45Z"/>
        <path class="cls-7" d="M234.04,105.38l-2.17,2.14c.63-.66,1.51-1.62,2.17-2.14Z"/>
        <path class="cls-3" d="M180.03,117.46v-2.99c0,.43,1.05,1.71.8,2.07-.16.23-.64.75-.8.92Z"/>
        <path class="cls-2" d="M115.03,150.31c-1.29,0-3.12-.41-4-1,1.29,0,3.12.41,4,1Z"/>
        <path class="cls-3" d="M107.03,149.32h1c-.4.72-.6.72-1,0Z"/>
        <path class="cls-3" d="M232.37,113.31c-.56.58-1.52,1.93-2.26,2.25l-4.26,1.82,5.95-6.22.57,2.15Z"/>
        <path class="cls-3" d="M251.03,149.32c-1.01.4-2.94.96-4,1,.94-.54,2.64-.9,4-1Z"/>
        <path class="cls-3" d="M281.83,30.87c53.92,32.84,81.2,94.51,81.2,156.27v10.95c0,2.55-.22,5.31-.35,7.87-4.43,1.3-2.07,7.77-8.82,6.96l-121.15.02c-1.31,0-3.26.7-3.47.86-.42-.69-1.21-1.99-1.21-2.77h1.49c.38.02.58-1.48.57-1.88l-.14-30.09c-.04-7.43-3.08-15.23-5.9-21.89-.42-1-2.23-2.27-2.86-2.96s-1.6-2.05-2.16-2.91l-.14-2.28c-.03-.55-1.55-.62-1.98-.71-4.97-4.69-10.57-9.13-16.88-11.85-.07-.98-.52-2.28-1.3-2.18l-2.7.33c-.25-.01-.76-.03-1-.08-1.49-1.68-4.25-2.53-6-1.14-1.53.01-3.53.07-5-.02l.85-2.07c-3.91-.89-27.8,2.81-25.85,8.14-.33.01-.77.06-1,0-6.09-1.32-13.05,8.79-14.87,14.73-1,3.27-3.05,7.15-4.9,10.06-.74,1.16-6.89,8.86-3.19,13.94-.03.5,0,1.45,0,1.99h-1.53c-.38-.01-.51,1.42-.51,1.87v24.12c0,.45.13,1.89.51,1.89h1.53c0,1.13-.22,2.94-.34,4.15-4.04.48-8.08.75-12.79.74l-104.8-.2c-6.11-.01-11.51.69-16.7-.79-1.62-32.13.85-73.29,15.44-102.43.63-.06,2.75-.66,2.37-1.3l-1.1-1.87,1.08-1.83c1.75-.21,2.39-1.73,3.34-3.86,5.48-12.34,2.89-4.93,11.33-18.3,6.78-10.73,19.13-25.17,28.7-32.9l11.69-9.43C97,20.9,125.43,7.75,155.25,3.89c3.27-.42,7.42-.03,10.97-.75,6.62-1.34,12.4-1.15,19.13-.81,32.21,1.6,63.42,9.97,90.6,27.4,2,1.28,4.16,1.75,5.88,1.15ZM128.16,21.9l.04,1c.09,2.38.48,4.61,1.56,7.42l5.1,13.26c.19.49,2.35,1.37,2.31,1.21.02.26.05.74.05,1,0,3.59,3.77,15.33,5.96,13.94l.06,1c.17,3.09,1.68,9.24,4.97,10.88l.07.84c-2.9,5.29,11.78-2.59,26.61-2.72,2-.02,7.09-1.07,7.09-3.04l.11-55.68-2.04.95v-1.99c-1.41-4.77-60.96,5.28-54.01,10.38l2.13,1.56ZM186.12,10.14c-.21,0-.56.05-.81.09l-1.29.73v55.65s1.21.89,1.21.89c.26.02.65.06.87.06.27.52,2.19,1.91,3.21,1.94,7.8.22,16.87,1.65,24.66,4.11.38.12,2.14.02,2.09-.37l-.2-1.56.05-1c1.02-.12,2.02-1.19,2.53-2.47l15.2-37.77c.85-2.11,1.18-4.56,1.25-6.55l.03-1c.4-.07,2.74-.83,2.3-1.36l-1.3-1.58-.05-.88c-1.87-4.34-48.64-13.44-49.75-8.94ZM119.03,22l-1,.03-4.11.17c-.94.04-1.67,1.8-1.89,2.81-.25.08-.75.05-1,.05l-1,.94-1,.03c-1.98.07-4.09,1.28-5,2.95l-1,.04-1,.97-1,.05c-2.63.12-6.66,2.79-8.17,4.68-.19.24-.66.65-.91.82.23-.15-1.28-.08-1.73.07-.62.21-1.21,1.06-.19,1.22l-4.71,3.88-1.29.1c-3.35.26-9.15,4.88-10.02,8.11-.13.47-.72,1.25-1,1.68-.21.1-1.27.65-.96.69.48.07,1.59.22,1.98.47,1.8,1.14,4.71,4.28,6,5.97.44.57,1.44,1.44,2.03,1.96s1.55,1.44,1.97,2.02c1.26,1.73,4.14,4.9,6,5.97.62.36,1.49,1.49,2.03,1.96,1.96,3.09,4.51,6.1,7.97,6.99.27.23.76.74,1,1s.71.87,1,1.09c2.81,2.13,7.87,7.05,10,9.86.21.28.73.73,1,1l2,1.99c.32.19.48.18,1,0h1c.32.24,1.22.77,1.46.46,4.06-6.21,8.86-4.48,10.54-9.51.69-.36,2.15-.93,2.92-1.08l2.86-.56c.68-.13,1.05-1.54,1.22-2.25.81-.33,2.07-.78,2.92-1.06,1.14-.37,3.58-.87,4.05-1.94l.84-1.9c2.71,1.08-2.24-11.22-3.93-9.04l-.05-1-.13-4.08c-.03-.95-1.81-1.68-2.82-1.89-.07-.23-.05-.66-.05-1,.01-2.18-.56-4.77-1.57-7.13l-7.45-17.52c-.27-.64-.7-2.18-.9-2.72s-1.39-.47-2.08-.5l-.06-1,.33-2.65c.1-.78-1.27-1.28-2.23-1.33-.1-.21-.05-.64-.04-1l-.94-.95-.93-.93c-.45-.69-.69-1.07-.9-.72l-1.05,1.71ZM240.03,23.89l-.88,2.99c-.62.01-2.11.02-2.09.59l.15,3.39-.05,1c-1.95-.78-5.1,6.73-4.93,10.95.01.35.07.77-.06,1l-1.6.08c-.34.02-.53.61-.34.86l.8,1.05-.88,2.99c-1,.21-2.8.95-2.82,1.89l-.1,4.08-.06,1c-.23-.01-1.35-.14-1.51.21l-1.18,2.55c-.65,1.4-1.04,3.37-.35,4.21l-1.97,4.98c-.82.13-2.41,1.22-2.68,2.05-.36,1.1-.2,3.17.54,3.92.25.25.8.7,1,1,1.89,2.82,8.15,5.45,11.5,7.31,3.97,2.2,7.05,4.03,10.5,5.63.26.24.74.75,1,1l2.1,1.96c.22.2.69.52.98.73.34,1.4.41,1.21.92-.11l1,.14c1.95-1.13,3.68-2.85,4.97-4.74l1.03-.96c.28-.26.78-.72,1-1,1.76-2.22,5.76-6.23,8-7.96.57-.44,1.56-1.42,2-1.99,1.17-1.5,3.58-3.93,5.27-4.95,1.86-.29,3.41-1.76,3.6-3.61,1.12-1.71,3.69-4.1,5.13-5.38.53-.47,1.45-1.44,2-1.99l3-2.99,2.79-.89c.68-.22.83-1.07.51-2.06l1.71-3.06-1.01-.97-1-.87c-.09-.43-.19-1.92-.74-1.95l-2.26-.16-1-.88-.54-1.97c-.12-.43-1.24.54-1.46.65-2.22-1.34-4.9-3.09-6.84-4.83-.92-.83-2.46-2.42-3.7-3.67.09-.12-.44.55-.62.78l-1.72-1.07c-.16-.52-.35-1.68-.89-1.71l-2.23-.12c-.58-.03-1.55-.75-2-1.12l-1-.82-1-.05c-.46-.98-1.89-1.96-3-1.99l-1-.03-1-.94-1-.04c-.21-1.19-.42-2.9-1-1l-3-1.01-1-.93c-.26,0-.76.06-1-.04,1.59-1.95-7.96-5.47-9.82-4.75-.97.38-.72,2.94-.18,3.64ZM295.03,53.75c-2.22,1.69-4.29,3.77-6,5.97-.27.23-.73.73-1,1l-2,1.99c-.22,0-.76-.03-1,0l-1.46.17c-.52.06-.51,1.35-.54,1.82l-5,5.97-1,1c-1.25,1-2.93,2.67-4,3.98-.33-.02-.74-.05-1,0l-2.04.4c-.57.11-.48,1.6.04,1.59l-1.18,1.9c-4.33,3.33-11.32,10.31-14.82,14.03-2.07,2.2-1.28-.83,3,6.97.35.63,1.44,1.51,2,1.99l1,1,1.39,2.95c-.07.11.56-.88.61-.96l4,4.98v1c1.12,1.02,2.83,2.35,4,2.99,5.78-1.35,11.87-4.19,17.93-7.05l31.23-14.75c1.09-.37,2.56-.9.79-1.18l.18-.76,4.45-2.01-4.59-7.1c1.47-1-1.29-4.38-4-5.97-.62-.36-1.6-1.4-2-1.99-.42-1.13-1.14-2.17-2-2.99-.99-.94-2.05-2-3-2.99-.47-1.7-1.55-2.91-3-3.98-2.23-1.65-4.29-3.78-6-5.97-1.03-1.53-3.58-5.06-5-3.98ZM66.48,55.09c-3.01,1.37-5.62,3.84-7.37,6.79l-.22,1.61-.9.07-1.32.39c-.48.14-.56,1.25-.63,1.75l-3,3.98h-1l-.75,1v1l-3.25,2.99c-1.85.47-3.12,2.11-3,3.98l-2.94,5.22c-.25.19-.68.62-.93.86-2.72.47-4.61,2.8-4.23,5.55l5.1,1.31c.26.03.69.02,1,0l1,1h1c1.16,2.36,4.88,4.73,7,2.99.84.36,2.36,1.35,3,1.99,1.09,1.35,3.95,2.47,6,2.99.26,0,.77-.05,1,0,.04.69.06,1.87.63,1.89l3.37.1c.57.02,1.54.66,2,1,1.01.74,2.79,1.67,4,1.99.25.07.72.01,1,0-1.56,2.04,12.35,6.91,18.69,10.14l1.84.93c.48.25,1.44-.58,1.47-1.12.02-.25,0-.78,0-1l2-1.99,1-1.99,1-1c.36-1.91,2.65-3.79,4-4.98.55-.49,1.45-1.57,1.78-2.24s.8-2.1,1.24-2.7l2.98-2.03,2.09.23c.71.08.54-2.13-.09-2.23v-1c-.26-.28-.71-.8-1-1l-3-1.99c-.29-.2-.79-.71-1-1l-3-3.98c-1.95-2.58-4.45-4.99-7-6.97h-1.21c.01-.28.05-.74,0-1-.2-1.05-1.82-2.7-2.88-2.83l-1.76-.22-2.03-1.93c-.08-.25-.03-.65-.02-1-.3-.28-.81-.77-1.1-1-1.96-1.52-5.47-5.01-7-6.97-.22-.28-.73-.73-1-1l-2-1.99-1-1h-1c-.23-.27-.73-.73-1-1l-1-1-2-2.99c-.4-.6-1.35-2.12-2-1.82l-2.55,1.17ZM152.16,81.63l.05,1c-.16,7.71,4.33,10.37,6.61,22.02l-4.94-6.09-.08-1c.26-2.24-1.01-4.9-2.17-7.43-1.54-3.37-1.43-8.14-4.76-9.33l-2.83-.04c-.47-2.01-.79-.16-1,.94l-4,1.68c-.23-.2-.54-.12-1.12.14-.25.25-.65.74-.93.86l-1.7-.94c-.61-.34-1.27,1.74-1.3,2.22-.44.32-1.28.93-1.8.98-2.83.26-7.68,3.62-9.15,6.04-.63,1.04-2.27,2.75-3.01,3.77l-1.09.7c-.3.19.74,1.26,1.01,1.54l4.17,2.11c9.79,9.4,19.76,18.81,28.7,28.94l-2.04,2.48c-2.36-2.22-3.8-3.47-5.75-4.8-1.65-1.12-3.67-3.57-5-4.98-.5-.52-1.45-1.52-2-1.99-1.8-1.54-3.37-3.25-5-4.98l-11.24-11.9c-.75-.79-3.03-1.43-3.95-1.96-1.07-.62-2.76-1.64-3.82-2.06-.48-.53-.98-.97-1.11-.59l-.89,2.58c-.53.53-1.41,1.58-2,1.99-1.64,1.13-4.21,3.9-5,5.97-.48.57-1.29,1.61-1.82,2.06-1.72,1.44-5.58,5.97-3.35,7.63,3.99,2.96,15.41,9.04,19.17,9.1l1,.02.43,2.12c.11.55,2.1.59,2.65.88l18.95,9.97c3.6-3.5,7.61-7.52,11.82-10.27,2.12-1.38,5.42-1.4,6.15-3.73l1-.07,2.61.33c.76.1,1.56-1.35,1.56-2.12,0-.22-.03-.69-.04-.92.23-1.54.3-4.51-.12-6.05l3.8,7.34c3.89-2.05,9.78.66,11.2-3.36v-2.99l1.95,3.03.07-46.46c0-1.24-1.33-3.62-2.23-3.86-2.78-.75-26.01,2.85-28.29,4.48-.99.7-1.43,3.36-1.59,4.77l2.21.2ZM186.07,73.75l-.94.94c-.33.33-1.09,1.5-1.09,2.3l-.03,44.42,1.21.85.87.05-.09,1.61c-.04.68,8.1,1.31,8.98-.63l.93-.03c2.45-2.95,4.17-7.22,5.53-11.32,2.57-7.59,5.12-14.69,9.05-21.82,1.56,4.09-14.73,34.69-10.81,33.91l.37,1.39c1.07,1.48,3.99,2.93,6.18,3.82l2.52,1.03c.45.19.91-.58,1.3-1.09l1-.78c.74-.41,1.58-1.25,2-1.99l1-1,1.22-.34c.32-.09.19-.2.01-.74,1.19-1.73,3.67-3.21,5.04-4.66l4.77-1.69-1.11,3.44-1.94,2c-1.85,1.38-4.69,4.29-6,5.97-.22.28-.72.73-1,1l-1.48.03c-.39,0-.96,1.52-.57,1.57l2.22.31,7.76,6.86c.4.54.82,1.22,1.04.84l1.03-1.79c.24-.01.74-.03,1-.06l3.82-.44c1.1-.13,2.02-2.37,2.18-3.46l1-.04,1-.98,1-.06c3.75-.23,13.92-4.48,14-7.87l1,.08,5.37.29c-3.56,2.63-5.35,3.79-7.36,5.84-.27.02-.74.06-1,.06-4.87-.05-11.07,4.7-14,7.9l-1,.05c-1.94.11-5.28.79-5,2.8l.29,2.07,2.45,3.9c-.13.48-.41.9-.11,1.08l1.49.86c.31.44,1.39.81,1.88,1.05,4.37,2.08,9.78.57,15.01.26l17.97-1.08c3.26-.2,6.84-.11,9.02-1.17h1c.54,0,2.11.02,1.98-.49l-.7-2.71c-.91-3.53-1.76-7.18-4.43-8.74-.02-.26-.12-.76-.07-1,.41-1.97-.87-6.73-2.88-6.88-.21-.02-.54-.11-.79-.18l-1.1-2.9v-1.99c-.25-.28-.68-.84-1-1l-2-1,.68-1.12c.17-.29.05-1.12-.25-.96l-1.72.9c-2.54,1.33-4.7,5.71-8.78,2.97l10.56-6.21c-3.23-4.11-8.45-10.46-11.49-13.5l-1-1-1-1-1-1c-.26-.25-.69-.82-1-1l-2.95-1.63c-1.08-.6-2.35-1.57-3.27-2.4l-.03-1.75c-.01-.53.02-.86-.31-.92l-1.44-.27-10.86-7.94c.97-1.72-12.46-8.85-14.97-6.3-3.08,3.12-1.77,7.75-6.11,10.83l3.61-13.3c-8.6-3.18-17.35-4.62-26.64-4.26l-1,1.16ZM315.03,99.69l-1,.07c-1.99-.31-5.3.81-6,2.94-.27.02-.77.02-1,.1-2.27.73-13.75,5.06-13.8,5.4l-.2,1.45-1,.08-1,.91-3,.89-1.78-.43c-.41-.1-.42.99-.47,1.33-.69.52-2,1.45-2.75,1.8-.65-.08-2.19-.2-3.02-.24s-1.99,1.95-1.98,2.57c-2.07.96-5.33,2.21-6.71,3.78-.79,2.58,1.94,5.86,2.98,8.57l1.05,2.73c.2.53,1.05.62,1.78.75l.03,1c.07,2.53,2.54,15.9,5.86,15.93.29,0,.74-.02,1,0,.33.74,1.83,1.73,2.96,1.88,10.84,1.53,20.94,3.91,30.92,8.33,7.8,3.46,14.54,8.84,21.16,13.64,1.42,1.03,2.73,2.7,3.97,4.01,2.12,3.73,4.48,7.91,7.26,10.88l1.46.78c.12.12,1.13-1.02,1.59-1.71-.81-28.78-4.98-57.92-18.67-83.03l-6.16-11.3-11.27,3.92c-.93.32-2.22,2.33-2.21,2.97ZM31.03,100.54l-.81,1.99c-.92,1.05-1.78,2.61-2.19,3.98v1l-1,1v1c-.85.09-2.23,1.21-2.64,2.29-7.99,21.15-12.43,42.64-13.73,65.17-.22,3.85-1.79,8.41.43,11.07l1.7-.09c.4-.02,1.33.06,1.28-.31l-.3-2.48,2.01-3.98,2.24-2.99,1.98-1.02c1.86-.96,3.2-2.35,3.95-4.11l3.07-3.83h1c1.39.11,3.78-1.16,4-2.99l2-1.17,3-1.92,2-1.08,1-.96,1-.07c5.69.54,9.63-6.04,16.07-4.05l-11.46,5.81c-3.39,1.72-7.46,3.42-8.61,6.56l-1,.07c-2.35.15-5.95,3.67-6.98,5.79-.46.96-2.03,2.53-3.02,2.96-1.7.73-3.28,2.02-3,3.98-.3.3-.69.7-1,1-.24.23-.57.74-.76,1l-.08,1c-4.28,2.93-7.82,9.05-6.16,13.94l-1.06,4.98c-.08.36.22,1.21.48,2h54.5c3.3-.01,3.94-3.47,4.12-5.92,1.19-16.04,4.28-30.51,8-46.51-8.25.14-14.71,1.22-22.97,3.49l.48-2.45c6.12-2.3,22.19-2.52,22.46-5.48.02-.22-.05-.65,0-.87.29.01,1.3.21,1.4-.14.15-.53.47-2.04.66-2.57l9.46-26.56c-3.46-2.87-7.71-4.76-11.51-4.58-1.68.08-3.8-.84-5-1.99.75-3.15-10.64-5.64-13-5.97-.79-.11-2.29-.64-3-1l-1-1h-1l-1-1c-.27.01-.74.05-1,0l-1.19-2.39c-.36-.72-2.28,0-2.81.4h-2c-.27-.23-.76-.74-1-1-1.85-3.44-7.83-5.97-12-5.97h-3c-1.66,1.56-2.8,3.75-3,5.97ZM97.04,123.59c-.22.25-.62.72-.88.95l-1.01.89-.02,1-.94,1-.04,1c-1.59.81-2.76,2.61-3.51,4.56l-3.68,9.55c-1,2.58-.95,6.21.14,8.52,5.52-.84,9.82-.63,15.22-.18l7.81.64c7.31.6,15.35,1.86,21.9-.18h1c2.33-1.21,3.9-3.43,4-5.97l.11-2.87c.61-.89.72-1.04.33-1.02l-2.44.09-1-.05c-.45-2.6-3.54-4.14-5.96-3.33-.28-.16-.7-.63-.94-.88-.4-2.11-3.1-3.03-5.1-2.67l-1-.07-1-.92-1-.07c0-3.41-10.29-7.69-14-7.91l-1-.06c.42-1.69-3.37-3.46-5-3.13-.59.12-1.59.7-2,1.15ZM78.03,187.14c1.82.26,2.73-3.32,4.05-4.73.37.23.49.44.53.21.05-.34.19-1.24.3-1.53.51-1.39,2.12-3.39,3.18-4.58l.72.74c3.19-3.57,6.01-6.73,8.21-10.15l1-.06,1-.79,2.92-2.07c5.49-.89,7.32-4.57,15.18-7l.55-1.17v-1.39s-.38-1.32-.38-1.32h-28.38c-1.63-.01-4.23,1.79-4.43,3.43-1.34,10.77-5.29,20.57-4.45,30.43ZM245.03,154.29l1,1,1,1c.49,1.48,2.11,2.23,4.12,2.97l8.13,3c.95.42,2.7,1.46,3.62,2.05,1.01,1.37,2.53,2.48,4.13,2.93.27.21.71.73.9,1.01,1.79,2.65,6.39,7.32,9.09,9.04.4.26,1.25.7,1.68.9v1c-.3.32-.17.47.33,1l1.97,1.02,2.03,2.96c.23.33.8.86,1,1l1.07-1.86-6.01-29.97-33.01-.04-1.05,1.01ZM284.17,154.42l-.04.9c-.08-.27-1.02,1.75-.89,2.4,1.97,9.64,4.12,23.23,5.31,33.55.62,5.4.73,9.71,2.49,13.78h1v1.49c-.02.38,1.47.54,1.91.54l56.87-.11c-.04-4.07-1.02-6.81-2.17-10.44l-.86-2.73c-.17-.55-1.19-.61-1.9-.7-.09-.25-.07-.74-.08-1l-.95-.87-.09-.75.16-2.6c.04-.59-1.41-.53-1.89-.76l-2.83-2.99-.04-1-2.99-3.08c-1.28-2.83-4.02-5.47-6.74-7.08l-.06-.86c.29-.31,1.15-1.49.69-1.55l-3.02-.38-1-1c-.13-.53-.24-1.71-.78-1.76l-2.22-.23-2-.25c-.51-.44-1.43-1.12-2-1.54l-1-1.19h-1l-5-2.99h0l-3-1,.02-1.44c0-.35-1.26-.9-1.43-.6l-.59,1.04h-1l-1.36.11-.04-.77-1.01-2.03-17.62-3.59c-.72-.15-2.69.87-2.84,1.44ZM107.73,164.17c-1.93,1-4.76,3.45-6.7,4.76l-.54-.92c-5.44,4.46-11.77,9.68-13.78,16.15l-6.72,11.7c-1.15,1.99-3.97,4.93-1.95,7.21l.14,1.81c.02.32.81,1.17,1.47,1.17l44.17.02,1.08-1.15c.02-.22.06-.68.04-.9l1.1-1.05v-28.77s0-1,0-1c.58,2.36,3.07-12.36,1-9.95.14-.52.71-1.46.77-1.99.4-.15,1.42-.58,1.12-.93l-.9-1.06c0-.32.04-.76,0-1l-.35-2.33c-7.26,1.75-15.08,3.3-19.96,8.22ZM239.03,205.06h1l1.07,1.1c15.01-.64,29.79.99,43.93-1.1v-1c2.99-1.13-4.9-14.91-6.9-17.25-2.58-3.01-5.1-6.23-7.23-9.53-1.15-1.79-3.28-3.98-5-5.02l-.97-.9c-.57-1.02-1.75-1.89-2.89-2.14-.28-.21-.76-.74-1-1-.54-2.15-4.1-3.89-6-3.74-.24.02-.73-.05-1-.08-.86-1.3-3.27-3.54-5.06-4.04l-14.19-3.94c-1.8.69-1.49,4.81-.89,6.8,3.85,12.86,2.9,25.54,3.11,38.93l.04,2.33c0,.59,1.39.57,1.99.57Z"/>
        <path class="cls-3" d="M165.03,118.46c-3.63-3.87-5.27-8.97-6.22-13.82,2.84,3.5,4.99,9.32,6.22,13.82Z"/>
        <path class="cls-3" d="M258.03,126.42l1-1-1,1Z"/>
        <path class="cls-7" d="M313.03,94.57l1-1-1,1Z"/>
        <g>
          <path class="cls-5" d="M13.97,204.06l1.06-4.98c1.03-4.8,3.69-9.53,6.16-13.94l.08-1,.76-1c.31-.29.7-.7,1-1,1.15-1.14,2.19-2.53,3-3.98,1-.43,2.56-2,3.02-2.96,2.57-1.65,5.02-3.55,6.98-5.79l1-.07c12.1-8.53,26.6-13.73,42.1-14.22-4.2,16.38-6.57,32.24-8.36,48.93H13.97Z"/>
          <path class="cls-2" d="M304.03,158.27l1.6.33.04.77c-.48.25-.81.38-.58.44.34.1,1.44.42,1.43.44-.01.05.39-.79.51-1h1v1c3.34,2.39,8.04,4.21,12,5.17.57.43,1.49,1.1,2,1.54,2.57,2.24,5.44,4.29,8.39,6.03,2.72,1.6,5.46,4.25,6.74,7.08.72,1.58,1.4,2.73,2.99,3.08l.04,1c.85,2.14,2.24,4.89,3.75,6.28l.82.06.09.75.95.87c0,.26-.01.75.08,1l2.15,5.97c-.44.37-1.13,1.66-.92,2.35l.8,2.61-54.55.04-2.33-18.94-2-9.95-3.15-19.53,13.24,2.67c1.92.39,3.61.63,4.91-.06Z"/>
          <path class="cls-8" d="M128.03,158.27c.04.24,0,.68,0,1l-.23,1.99c-.06.53-.63,1.48-.77,1.99-.66,2.43-1,7.21-1,9.95v1c-3.15,7.62-1.74,22.34-1.1,29.82.02.22-.02.68-.04.9l-10.45-.49-19.44-.02c-5.79,0-11.28-.25-16.84.46l-.14-1.81,1.95-7.21,6.72-11.7c3.47-6.04,8.57-11.36,14.33-15.23,1.94-1.3,4.77-3.76,6.7-4.76,6.33-3.27,13.33-5.92,20.3-5.89Z"/>
          <path class="cls-8" d="M254.03,164.41c.27.03.76.1,1,.08,1.65,1.65,3.79,2.98,6,3.74.24.26.72.79,1,1l2.89,2.14.97.9,5,5.02c2.13,3.3,4.65,6.51,7.23,9.53,2.64,5.66,5.28,11.27,6.9,17.25v1h-46c.5-15.93-.27-31.51-4.72-46.85,7.79,1.18,13.98,3.17,19.72,6.2Z"/>
          <path class="cls-5" d="M115.68,154.6v1.39c-5.36,1.31-11.73,4.68-15.72,8.17l-2.92,2.07-1,.79-1,.06c-3.07,2.98-6.05,6.19-8.93,9.41-1.07,1.19-2.67,3.2-3.18,4.58l-.83,1.32c-1.32,1.42-2.23,4.99-4.05,4.73l6.94-32.91,30.71.37Z"/>
          <path class="cls-2" d="M277.03,155.29c-.28,4.46,1.1,9.69,3,13.94l2,8.96c-.81.33-2.53.38-3.33,0-.43-.21-1.28-.65-1.68-.9-2.52-3.39-5.66-6.63-9.09-9.04-.19-.28-.63-.8-.9-1.01-1.06-.81-2.94-2.17-4.13-2.93-.92-.59-2.67-1.63-3.62-2.05v-1c-1.31-1.88-4.6-3.46-7.24-3.98-1.4-1.79-3.41-2.27-6-1.99l-1-1,29.98-.02c.53,0,1.79.62,2.02,1.02Z"/>
          <path class="cls-1" d="M81.04,149.19c-.27,2.97-16.34,3.18-22.46,5.48l-.48,2.45c8.26-2.27,14.72-3.35,22.97-3.49-3.72,16.01-6.82,30.47-8,46.51-.18,2.44-.82,5.9-4.12,5.9H14.45c-.26-.77-.55-1.63-.48-1.98h56.8c1.78-16.68,4.15-32.54,8.36-48.92-15.5.49-29.99,5.7-42.1,14.22,1.15-3.14,5.22-4.84,8.61-6.56l11.46-5.81c-6.44-1.99-10.39,4.59-16.07,4.05,2.08-1.78,5.2-3.75,8-4.77,10.31-3.75,21.08-6.21,32.01-7.09Z"/>
          <path class="cls-1" d="M292.03,205.06h57.02c-.21-2.12-.47-4.46-1.02-5.97l-2.15-5.97c.7.08,1.72.14,1.9.7l.86,2.73c1.15,3.63,2.13,6.37,2.17,10.44l-56.87.11c-.44,0-1.92-.16-1.92-.54v-1.49Z"/>
          <path class="cls-1" d="M284.03,185.15l-1-1v-2.99c0-.79-.83-2.22-1-2.99l-2-8.96c-.85-3.82-1.17-10.85-3-13.94-.24-.4-1.49-1.02-2.02-1.02l-29.98.02,1.05-1.01,33.01.04,6.01,29.97-1.07,1.86Z"/>
          <path class="cls-1" d="M288.03,175.2l2,9.95.74,10.1c.25,3.38.25,6.76.26,9.81-1.76-4.08-1.87-8.38-2.49-13.78-1.18-10.32-3.34-23.91-5.31-33.55-.13-.65.8-2.67.89-2.4l2.59,10.34c.81,3.25.73,6.6,1.32,9.53Z"/>
          <path class="cls-1" d="M254.03,164.41c-5.74-3.03-11.93-5.02-19.72-6.2,4.45,15.34,5.21,30.93,4.72,46.85-.59,0-1.98.02-1.99-.57l-.04-2.33c-.21-13.39.74-26.08-3.11-38.93-.6-1.99-.91-6.11.89-6.8l14.19,3.94c1.79.5,4.2,2.74,5.06,4.04Z"/>
          <path class="cls-1" d="M124.9,204.92l-1.08,1.15-44.17-.02c-.66,0-1.45-.85-1.47-1.17,5.56-.72,11.05-.47,16.84-.46l19.44.02,10.45.49Z"/>
          <path class="cls-1" d="M115.68,154.6l-30.71-.37-6.94,32.91c-.83-9.86,3.11-19.65,4.45-30.43.2-1.64,2.8-3.45,4.43-3.45h28.38s.38,1.34.38,1.34Z"/>
          <path class="cls-1" d="M124.93,204.02c-.64-7.48-2.05-22.21,1.1-29.82v28.77s-1.1,1.05-1.1,1.05Z"/>
          <path class="cls-1" d="M285.03,205.06c-14.15,2.09-28.93.46-43.93,1.1l-1.07-1.1h45Z"/>
          <path class="cls-1" d="M305.63,158.61l-1.6-.33c-6.54-1.79-13.13-2.98-19.87-3.85.15-.56,2.12-1.58,2.84-1.44l17.62,3.59,1.01,2.03Z"/>
          <path class="cls-1" d="M128.03,158.27c-6.97-.03-13.97,2.63-20.3,5.89,4.88-4.93,12.69-6.47,19.96-8.22l.35,2.33Z"/>
          <path class="cls-1" d="M15.03,199.09c-1.66-4.88,1.88-11,6.16-13.94-2.47,4.41-5.13,9.13-6.16,13.94Z"/>
          <path class="cls-1" d="M126.03,173.21c0-2.74.34-7.53,1-9.95,2.07-2.4-.42,12.31-1,9.95Z"/>
          <path class="cls-1" d="M115.68,156l-.55,1.17c-7.86,2.43-9.69,6.11-15.18,7,4-3.49,10.36-6.86,15.73-8.17Z"/>
          <path class="cls-1" d="M277.03,177.28c-2.71-1.73-7.3-6.39-9.09-9.04,3.43,2.41,6.58,5.65,9.09,9.04Z"/>
          <path class="cls-1" d="M252.03,157.28c1.48,1.89,4.78,2.97,7.24,3.98v1l-8.13-3c-2-.74-3.63-1.49-4.12-2.97l5,1Z"/>
          <path class="cls-6" d="M282.03,178.18c.17.77,1,2.2,1,2.99l-2.03.03-1.97-1.02-.33-1v-1c.8.38,2.52.33,3.33,0Z"/>
          <path class="cls-1" d="M29.06,175.22c1.02-2.11,4.63-5.63,6.98-5.79-1.95,2.23-4.41,4.14-6.98,5.79Z"/>
          <path class="cls-1" d="M285.03,204.06c-1.62-5.98-4.27-11.59-6.9-17.25,2.01,2.34,9.9,16.13,6.9,17.25Z"/>
          <path class="cls-1" d="M344.77,190.5l-.82-.06-.91-3.3c.48.23,1.93.17,1.89.76l-.16,2.6Z"/>
          <path class="cls-1" d="M23.03,182.16c-.28-1.97,1.3-3.25,3-3.98-.81,1.45-1.85,2.84-3,3.98Z"/>
          <path class="cls-1" d="M330.37,172.15l-2.33-1.93,3.02.38c.46.06-.4,1.24-.69,1.55Z"/>
          <path class="cls-1" d="M327.03,169.22c-1.11-.36-2.31-1.12-3-1.99l2.22.23c.53.05.65,1.23.78,1.76Z"/>
          <path class="cls-1" d="M261.03,168.23c-2.21-.76-4.35-2.09-6-3.74,1.9-.15,5.46,1.59,6,3.74Z"/>
          <path class="cls-1" d="M310.03,160.26h-2v-1l.59-1.04c.17-.31,1.43.25,1.43.6l-.02,1.44Z"/>
          <path class="cls-1" d="M101.03,168.92c-5.76,3.88-10.86,9.19-14.33,15.23,2.01-6.47,8.34-11.69,13.78-16.15l.54.92Z"/>
          <path class="cls-1" d="M86.11,176.5c2.88-3.22,5.85-6.43,8.93-9.41-2.2,3.41-5.02,6.58-8.21,10.15l-.72-.74Z"/>
          <path class="cls-6" d="M340.16,183.16c-1.6-.35-2.28-1.5-2.99-3.08l2.99,3.08Z"/>
          <path class="cls-1" d="M79.98,195.86l-1.95,7.21c-2.02-2.28.8-5.22,1.95-7.21Z"/>
          <path class="cls-1" d="M82.09,182.41l.83-1.32c-.11.29-.25,1.19-.3,1.53-.04.23-.16.02-.53-.21Z"/>
          <path class="cls-1" d="M264.93,171.37l-2.89-2.14c1.14.25,2.32,1.12,2.89,2.14Z"/>
          <path class="cls-1" d="M267.03,167.23c-1.6-.45-3.12-1.55-4.13-2.93,1.19.76,3.07,2.11,4.13,2.93Z"/>
          <path class="cls-1" d="M127.81,161.26l.23-1.99.9,1.06c.29.35-.72.78-1.12.93Z"/>
          <path class="cls-1" d="M96.03,167.03l1-.79-1,.79Z"/>
          <path class="cls-1" d="M270.9,177.28l-5-5.02c1.72,1.04,3.84,3.23,5,5.02Z"/>
          <path class="cls-1" d="M279.03,180.17c-.5-.53-.62-.67-.33-1l.33,1Z"/>
          <path class="cls-1" d="M21.28,184.16c.19-.26.52-.77.76-1l-.76,1Z"/>
          <path class="cls-2" d="M284.03,185.15c-.2-.14-.77-.66-1-1l1,1Z"/>
          <path class="cls-1" d="M345.8,192.12l-.95-.87.95.87Z"/>
          <polygon class="cls-6" points="291.03 185.15 290.03 185.15 288.03 175.2 289.03 175.2 291.03 185.15"/>
          <path class="cls-6" d="M259.28,161.26c-2.47-1.01-5.77-2.09-7.24-3.98,2.64.53,5.93,2.1,7.24,3.98Z"/>
        </g>
      </g>
    </g>
  </g>
</svg>