<?xml version="1.0" encoding="UTF-8"?>
<svg id="Layer_1" data-name="Layer 1" xmlns="http://www.w3.org/2000/svg" viewBox="0 0 809.74 482.37">
  <defs>
    <style>
      .cls-1 {
        stroke-width: 22px;
      }

      .cls-1, .cls-2 {
        stroke: #393736;
      }

      .cls-1, .cls-2, .cls-3 {
        fill: none;
        stroke-miterlimit: 10;
      }

      .cls-4 {
        fill: #ffff57;
      }

      .cls-5 {
        fill: #f7931e;
      }

      .cls-6 {
        fill: #29abe2;
      }

      .cls-7 {
        opacity: .77;
      }

      .cls-2 {
        stroke-width: 13px;
      }

      .cls-8 {
        fill: red;
      }

      .cls-9 {
        fill: #d8c38d;
      }

      .cls-3 {
        stroke: #5c4a3f;
        stroke-width: 10px;
      }

      .cls-10 {
        fill: #ff9157;
      }

      .cls-11 {
        fill: #9eb5b4;
      }
    </style>
  </defs>
  <g class="cls-7">
    <g>
      <path class="cls-6" d="M671.66,372.99c-2.88-18.64-7.69-36.68-14.24-53.9l119.52-43.91c14.37,40.68,22.2,84.34,22.2,129.68v66.51h-124.36v-57.64c0-13.84-1.07-27.44-3.12-40.74ZM677.46,466.56h93.95c0-24.9-9.9-48.8-27.52-66.4-17.61-17.6-41.52-27.5-66.43-27.5v93.9Z"/>
      <path class="cls-10" d="M776.94,275.18l-119.52,43.91c-12.32-32.44-30.77-61.97-53.9-87.15l92.45-86.99,3.51-.82c33.71,37.96,60.26,82.37,77.46,131.05Z"/>
      <path class="cls-11" d="M771.41,466.56h-93.95v-93.9c24.91,0,48.82,9.9,66.43,27.5,17.62,17.6,27.52,41.5,27.52,66.4Z"/>
      <path class="cls-5" d="M515.14,167.9c-33.62-15.21-70.82-23.69-109.85-23.69l-.42-133.1v-.11h.4c116.48,0,221.83,51.66,294.21,133.13l-3.51.82-92.45,86.99c-24.7-26.91-54.75-48.84-88.38-64.04Z"/>
      <path class="cls-11" d="M674.78,413.73v57.64h-112.76v-66.51c0-7.01-.47-13.91-1.38-20.69l3.8-.51,107.22-10.67c2.05,13.3,3.12,26.9,3.12,40.74ZM570.26,466.56h68.9c0-17.15-7.27-33.62-20.18-45.74-12.92-12.13-30.46-18.94-48.72-18.94v64.68Z"/>
      <path class="cls-4" d="M671.66,372.99l-107.22,10.67-3.8.51c-1.27-9.46-3.4-18.67-6.3-27.53l3.85-1.09,99.23-36.46c6.55,17.22,11.36,35.26,14.24,53.9Z"/>
      <path class="cls-9" d="M657.42,319.09l-99.23,36.46-3.85,1.09c-6.58-20.09-17.15-38.44-30.74-54.11l5.4-.46,74.52-70.13c23.13,25.18,41.58,54.71,53.9,87.15Z"/>
      <path class="cls-8" d="M639.16,466.56h-68.9v-64.68c18.26,0,35.8,6.81,48.72,18.94,12.91,12.12,20.18,28.59,20.18,45.74Z"/>
      <path class="cls-4" d="M603.52,231.94l-74.52,70.13-5.4.46c-14.37-16.57-32.12-30.14-52.15-39.57l43.69-95.06c33.63,15.2,63.68,37.13,88.38,64.04Z"/>
      <path class="cls-9" d="M515.14,167.9l-43.69,95.06c-20.05-9.47-42.38-14.79-65.84-14.84l-.32-103.91c39.03,0,76.23,8.48,109.85,23.69Z"/>
      <path class="cls-4" d="M405.29,144.21l.32,103.91h-.34c-20.08,0-39.32,3.86-57.03,10.87l-.05-.14-43.85-94.8c31.23-12.78,65.32-19.84,100.93-19.84h.02Z"/>
      <path class="cls-4" d="M404.87,11.11l.42,133.1h-.02c-35.61,0-69.7,7.06-100.93,19.84l-55.62-120.22h0c47.97-21.05,100.8-32.77,156.15-32.83v.11Z"/>
      <path class="cls-4" d="M348.19,258.85l.05.14c-21.2,8.39-40.2,21.29-55.78,37.5h-.01s-77.7-72.64-77.7-72.64c25.41-25.5,55.84-45.99,89.59-59.8l43.85,94.8Z"/>
      <path class="cls-5" d="M248.72,43.83l55.62,120.22c-33.75,13.81-64.18,34.3-89.59,59.8l-95.18-88.98c36.31-38.39,80.19-69.57,129.15-91.04Z"/>
      <path class="cls-5" d="M292.45,296.48h.01c-13.56,14.11-24.53,30.71-32.12,49.01l-.95-.4-102.82-34.61c13.66-32.55,33.57-61.94,58.18-86.63l77.7,72.63Z"/>
      <path class="cls-9" d="M259.39,345.09l.95.4c-5.02,12.11-8.56,24.97-10.38,38.34l-1.24-.17-109.8-10.93c3.37-21.68,9.36-42.55,17.65-62.25l102.82,34.61Z"/>
      <path class="cls-6" d="M248.72,383.66l1.24.17c-.94,6.88-1.43,13.9-1.43,21.03v66.51h-112.77v-57.64c0-13.93,1.08-27.62,3.16-41l109.8,10.93ZM242.9,466.56v-64.68c-18.26,0-35.78,6.81-48.69,18.94-12.91,12.12-20.17,28.59-20.17,45.74h68.86Z"/>
      <path class="cls-8" d="M242.9,401.88v64.68h-68.86c0-17.15,7.26-33.62,20.17-45.74,12.91-12.13,30.43-18.94,48.69-18.94Z"/>
      <path class="cls-10" d="M119.57,134.87l95.18,88.98c-24.61,24.69-44.52,54.08-58.18,86.63l-118.77-39.98-2.34-.48c18.7-50.65,47.58-96.55,84.11-135.15Z"/>
      <path class="cls-11" d="M138.92,372.73c-2.08,13.38-3.16,27.07-3.16,41v-41.07c-24.89,0-48.79,9.9-66.4,27.5-17.6,17.6-27.5,41.5-27.5,66.4h93.9v4.81H11.4v-66.51c0-47.26,8.51-92.7,24.06-134.84l2.34.48,118.77,39.98c-8.29,19.7-14.28,40.57-17.65,62.25Z"/>
      <path class="cls-6" d="M135.76,413.73v52.83H41.86c0-24.9,9.9-48.8,27.5-66.4,17.61-17.6,41.51-27.5,66.4-27.5v41.07Z"/>
    </g>
    <g>
      <path class="cls-3" d="M248.72,43.83c-48.96,21.47-92.84,52.65-129.15,91.04-36.53,38.6-65.41,84.5-84.11,135.15-15.55,42.14-24.06,87.58-24.06,134.84v66.51h237.13v-66.51c0-7.13.49-14.15,1.43-21.03,1.82-13.37,5.36-26.23,10.38-38.34,7.59-18.3,18.56-34.9,32.12-49,15.58-16.21,34.58-29.11,55.78-37.5,17.71-7.01,36.95-10.87,57.03-10.87h.34c23.46.05,45.79,5.37,65.84,14.84,20.03,9.43,37.78,23,52.15,39.57,13.59,15.67,24.16,34.02,30.74,54.11,2.9,8.86,5.03,18.07,6.3,27.53.91,6.78,1.38,13.68,1.38,20.69v66.51h237.12v-66.51c0-45.34-7.83-89-22.2-129.68-17.2-48.68-43.75-93.09-77.46-131.05C627.1,62.66,521.75,11,405.27,11h-.4c-55.35.06-108.18,11.78-156.15,32.82"/>
      <line class="cls-3" x1="135.76" y1="466.56" x2="135.76" y2="471.37"/>
      <path class="cls-3" d="M674.78,471.37v-57.64c0-13.84-1.07-27.44-3.12-40.74-2.88-18.64-7.69-36.68-14.24-53.9-12.32-32.44-30.77-61.97-53.9-87.15-24.7-26.91-54.75-48.84-88.38-64.04-33.62-15.21-70.82-23.69-109.85-23.69h-.02c-35.61,0-69.7,7.06-100.93,19.84-33.75,13.81-64.18,34.3-89.59,59.8-24.61,24.69-44.52,54.08-58.18,86.63-8.29,19.7-14.28,40.57-17.65,62.25-2.08,13.38-3.16,27.07-3.16,41"/>
      <polyline class="cls-3" points="37.8 270.5 156.57 310.48 259.39 345.09"/>
      <polyline class="cls-3" points="777.66 274.92 776.94 275.18 657.42 319.09 558.19 355.55"/>
      <polyline class="cls-3" points="404.87 11.11 405.29 144.21 405.61 248.12 405.61 248.13"/>
      <polyline class="cls-3" points="248.72 43.82 248.72 43.83 304.34 164.05 348.19 258.85"/>
      <polyline class="cls-3" points="119.31 134.63 119.57 134.87 214.75 223.85 292.45 296.48"/>
      <polyline class="cls-3" points="567.41 54.15 515.14 167.9 471.45 262.96"/>
      <polyline class="cls-3" points="695.97 144.95 603.52 231.94 529 302.07"/>
      <polyline class="cls-3" points="138.24 372.66 138.92 372.73 248.72 383.66"/>
      <path class="cls-3" d="M135.76,466.56H41.86c0-24.9,9.9-48.8,27.5-66.4,17.61-17.6,41.51-27.5,66.4-27.5v93.9Z"/>
      <path class="cls-3" d="M242.9,466.56h-68.86c0-17.15,7.26-33.62,20.17-45.74,12.91-12.13,30.43-18.94,48.69-18.94v64.68Z"/>
      <polyline class="cls-3" points="674.98 372.66 671.66 372.99 564.44 383.66"/>
      <path class="cls-3" d="M677.46,466.56h93.95c0-24.9-9.9-48.8-27.52-66.4-17.61-17.6-41.52-27.5-66.43-27.5v93.9Z"/>
      <path class="cls-3" d="M570.26,466.56h68.9c0-17.15-7.27-33.62-20.18-45.74-12.92-12.13-30.46-18.94-48.72-18.94v64.68Z"/>
    </g>
  </g>
  <g>
    <path class="cls-1" d="M699.08,144.13C626.7,62.66,521.35,11,404.87,11h-.4c-55.35.06-108.19,11.78-156.16,32.83-48.95,21.47-92.83,52.65-129.14,91.04-36.53,38.6-65.41,84.5-84.11,135.15-15.55,42.14-24.06,87.58-24.06,134.84v66.51h237.12v-66.51c0-7.13.49-14.15,1.43-21.03,1.82-13.37,5.36-26.23,10.39-38.34,7.58-18.3,18.56-34.9,32.12-49,15.58-16.21,34.57-29.11,55.78-37.5,17.71-7.01,36.95-10.87,57.03-10.87h.34c23.46.05,45.79,5.37,65.84,14.84,20.02,9.43,37.77,23,52.14,39.57,13.59,15.67,24.16,34.02,30.74,54.11,2.9,8.86,5.03,18.07,6.3,27.53.91,6.78,1.38,13.68,1.38,20.69v66.51h237.13v-66.51c0-45.35-7.83-89.01-22.2-129.69-17.2-48.67-43.75-93.09-77.46-131.04Z"/>
    <line class="cls-2" x1="135.35" y1="466.55" x2="135.35" y2="471.37"/>
    <path class="cls-2" d="M674.38,471.37v-57.64c0-13.84-1.07-27.44-3.12-40.74-2.88-18.64-7.69-36.68-14.24-53.9-12.32-32.44-30.77-61.97-53.9-87.15-24.7-26.91-54.76-48.84-88.39-64.04-33.62-15.21-70.82-23.69-109.84-23.69h-.02c-35.61,0-69.7,7.06-100.94,19.84-33.75,13.81-64.17,34.3-89.58,59.8-24.61,24.69-44.52,54.08-58.19,86.62-8.29,19.71-14.28,40.57-17.65,62.26-2.08,13.38-3.16,27.07-3.16,41"/>
    <polyline class="cls-2" points="37.4 270.5 156.16 310.47 258.99 345.09"/>
    <polyline class="cls-2" points="777.25 274.91 776.54 275.17 657.02 319.09 557.79 355.55"/>
    <polyline class="cls-2" points="404.47 11.11 404.89 144.21 405.21 248.12 405.21 248.13"/>
    <polyline class="cls-2" points="248.31 43.82 248.31 43.83 303.93 164.05 347.78 258.85"/>
    <polyline class="cls-2" points="118.91 134.63 119.17 134.87 214.35 223.85 292.05 296.48"/>
    <polyline class="cls-2" points="567.01 54.14 514.73 167.9 471.05 262.96"/>
    <polyline class="cls-2" points="695.56 144.95 603.12 231.94 528.59 302.07"/>
    <polyline class="cls-2" points="137.83 372.66 138.51 372.73 248.31 383.66"/>
    <path class="cls-2" d="M135.35,466.55H41.46c0-24.89,9.9-48.79,27.5-66.39s41.5-27.5,66.39-27.5v93.89Z"/>
    <path class="cls-2" d="M242.5,466.55h-68.86c0-17.14,7.26-33.61,20.16-45.73,12.91-12.13,30.44-18.95,48.7-18.95v64.68Z"/>
    <polyline class="cls-2" points="674.58 372.66 671.26 372.99 564.03 383.66"/>
    <path class="cls-2" d="M677.06,466.55h93.95c0-24.89-9.91-48.79-27.52-66.39s-41.52-27.5-66.43-27.5v93.89Z"/>
    <path class="cls-2" d="M569.86,466.55h68.89c0-17.14-7.26-33.61-20.18-45.73-12.91-12.13-30.45-18.95-48.71-18.95v64.68Z"/>
  </g>
</svg>