<?xml version="1.0" encoding="UTF-8"?>
<svg id="Layer_1" data-name="Layer 1" xmlns="http://www.w3.org/2000/svg" viewBox="0 0 272.22 584.17">
  <defs>
    <style>
      .cls-1 {
        fill: #d66b31;
      }

      .cls-2 {
        fill: #efd278;
      }

      .cls-3, .cls-4 {
        fill: #b7ad96;
      }

      .cls-5 {
        fill: #f3aa38;
      }

      .cls-6 {
        fill: #a1b4b2;
      }

      .cls-7 {
        fill: #dd9138;
      }

      .cls-4 {
        stroke: #000;
        stroke-miterlimit: 10;
        stroke-width: .25px;
      }

      .cls-8 {
        fill: #4ca0b3;
      }

      .cls-9 {
        fill: #14111b;
      }

      .cls-10 {
        fill: #fefefe;
      }

      .cls-11 {
        fill: #f8b531;
      }

      .cls-12 {
        fill: #d68630;
      }

      .cls-13 {
        fill: #363332;
      }

      .cls-14 {
        fill: #bfab4b;
      }
    </style>
  </defs>
  <g id="wOlNxj.tif">
    <g id="Wkcxcz.tif">
      <g>
        <path class="cls-13" d="M163.39,74.83c-.01.21-.03.62-.08.83l-2.74,1.26,1.78-5.6-.78-1.39,1-3c2.66,1.06,2.85-6.48,4.99-7.99-.41,3.09-1.23,6.09-2.25,9.51l-1.91,6.38Z"/>
        <path class="cls-13" d="M147.64,4.32l.32,2.07c9.63,2.36,12.56,6.21,20.75,8.45,9.52,7.24,13.22,5.8,21.29,13.69,1.73,1.7,4.45,3.04,6.25,4.53l4.91,4.09c2.25,1.87,4.22,4.26,6.28,5.81.84,1.48,2.37,2.67,3.99,3,3.67,2.75,9.47,8.55,11.97,11.98l.22,1.45c.05.33.45.27,1.07.32,4.68,6.43,11.15,12.4,13.67,17.2.94,1.79,1.8,3.53,3.16,4.99l1.91,2.91v2.45c.01.57,1.47.64,1.99.7.77,1.19,1.5,2.59,2.08,3.93l.44,3.8c.09.74,1.91,1.11,2.57,1.19.06.24-.05.82.11,1l.91,1c.16.18.11.63.13,1,.14.58.39,1.51.65,2l2.09,3.9c-.23.09-1.27.41-1.1.71l.92,1.63,4.57,12.29c6.47,17.41,9.11,35,11.44,53.86l.05,402.61c0,1.79.86,5.44-.37,5.43l-4.71-.03-81.66-.03c-1.8,0-5.69.91-6.2-.48-.43-1.16.16-3.8.16-5.87V175.09c.01.35-1.14-7.19-1.56-7.21l-1.45-.1c-.09-.49-.12-1.47-.15-2,3.37.88-5.62-18.64-7.66-16.78-.24-.37-.84-1.04-1.15-1.36-.01-2.13-1.84-3.73-3.97-4.02l-3.99-3.66c-.45-.42-1.41-.89-1.99-1.15l-1-.85c-.09-.91-1.7-2.96-2.78-3.27l-10.98-3.06c-.78-.22-3.55,1.01-3.19,1.31-.74-.12-2.18-.09-2.99-.1-2.89-1.88-8.78-1.38-9.97,2.11l-7.03,2.28c-2.3.75-5.71,3.69-6.93,5.56-.46.04-1.78.06-1.79.58,0,.38-.15,1.11-.2,1.42l-.88,1c-.45.06-1.93.15-1.96.7l-.15,2.3-.84,1c-2.21-2.15-10.95,18.3-6.98,18.97-.11.49-.12,1.48-.12,2-.25-.38-2.03.45-2.03,1.74l.02,150.42c0,2.17,1.31,4.66,1.97,5.61v3c.21-.54-1,1.33-1,1.62v41.69c0,.29,1.21,2.16,1,1.62v6.99c-1.54,1.95-1.54,6.04,0,7.99v6.99c-1.59,3-1.59,7.98,0,10.98v4.99c-.31.18-1.1.99-1.1,1.5s.79,1.32,1.1,1.5v2c-1.43,1.25-1.43,4.74,0,5.99v2c-.02-.27-1.02,1.66-1.02,2.34v18.42c0,.54.98,2.48,1.02,2.21v21.97c-1.54,1.95-1.54,6.04,0,7.99v13.98c-.15-.03-1.55,1.17-1.1,1.42l1.1.58v20.97l-1.18,2.39c-.23.47.9,1.47,1.18,1.6v60.91H0v-3c1.21.17,2.23-1.16,2.24-2.5s-1.03-2.66-2.24-2.49v-6.99c.05.39,2.01-.71,2.01-1.54l-.02-37.13c0-1.05-.1-2.22-.48-2.23l-1.52-.04v-3l1.47-.04c.37-.01.57-1.4.57-1.85v-7.21c0-.44-.19-1.83-.56-1.85l-1.47-.04v-4.99c.5.11,1.99-.34,1.99-1.14l.05-329.57c0-4.39,4.42-28.86,1.77-26.76l.14-2,1.48-.05c.37-.01.18-1.54.3-1.98l4.84-18.24c.21-.8-.25-2.84-.59-2.69,2.04-5.4,3.55-11.16,6.18-16.83,3.64-7.85,7.98-15.11,12.4-22.6,5.61-9.52,11.49-18.39,19.36-25.71,1.31-1.22,2.42-2.06,3.31-3.69,1.42-2.6,4.03-5.38,6.61-7.07,2.81-1.83,6.41-3.76,7-7.09,1.57-1.15,3.26-2.19,5.09-3.84,12.87-11.57,27.03-21.62,43.08-28.54,26.82-11.57,15.93-11.57,34.65-5.14ZM156.58,77.91h1.99l1.99-1c-.25.8.99,2.35,1.74,2.73l2.25,1.13c-5.05-.49,11.34,6.94,8.98,4.92l1.99,1.2,1,1,4.84,4.19c.58.5,2.42,1.07,3.13.8,2.02-.77,4.74-4.11,5.98-5.99,1.89-2.86,6.5-6.98,8.98-8.99.27-.22.76-.74,1-1,1.04-1.15,2.84-2.98,3.99-3.99.26-.23.78-.72,1-1,1.57-1.98,4.96-5.38,7.15-7.06l2.34-1.04c.63-.28.01-2.79-.56-3.35l-8.84-8.63c-.76-.75-2.47-1.67-3.33-1.79-6.75-.9-1.45-4.41-11.72-9.07,2.18-.76-9.17-10.26-10.98-6.96s-10.27,20.64-8.88,22.9c-.03.22-.08.61-.15.81l-2.93,1.23c.24-1.8,1.09-3.94,1.88-6.02l3.33-8.76.65-1.72c.11-.3-.35-.3-.87-.47.25-.52.54-1.67,1-2,1.3-.93,2.29-3.08,1.99-4.99-.05-.31-.11-.78,0-1l2.06-.52c.51-.13-.78-1.05-1.06-1.48l-1.99-3c-1.1-1.74-4.26-3.74-6.14-3.84l-.89-.05c2.33-2.58-26.11-15.14-29.82-15.27l-.02,65.48,16.02,3.29c.92.19,2.96-.31,2.9-.68ZM99.86,27.15c-.3.14-.76.63-.99.87l-2.89,3c-1.34,4.01,2,8.66,3.56,12.99l6.94,19.3c-6.84-9.41-6.87-21.11-13.85-28.21-3.15-1.99-9.93,7.97-17.44,10.44l-3.2,4.64c-3.72.95-6.28,2.77-8.16,5.77l-6.16,5.48c-.34.3-1.3,2.05-.93,2.1l2.18.33.8,1.04-.03,3.44-2.76-1.5c-.41-.22-.71.48-1.08,1.1-.76,0-3,.63-3.57,1.32l-4.46,5.34-4.47,5.88c-2.72,3.58-5.31,7.79-7.63,11.61-.9.46-2.29,1.36-3.25,2.08-.75.56.89,2.99,1.86,3.42l24.91,11.28,11.9,6.15c2.24-1.68,5.08-5.88,5.78-8.26.06-.19.05-.56.08-.76,2.46-1.05,4.61-3.49,4.88-6.1l.89-1,1-1,1-1c.73-.36.74-.56,0-1l-2.99-2v-1c-.26-.28-.72-.78-1-1l-4.99-3.9c-1.11-1.5-2.51-2.91-3.99-4.09l-1.99-2c-1.18-1.54-3.6-3.87-4.99-4.99-.34-.27-.99-.85-1.32-1.15l-2.76-3.97,4.73-1c2.37,2.03,6.68,5.69,8.32,8.11.21.31.7.87,1,1.09,2.01,1.44,5.53,4.9,6.98,6.9.21.29.73.73,1,1l2.99,3,1.99,2h1l.63,1.04c.18.29,1.25-.3,1.27-.65l.1-1.53,1-.86,2.37-.1c.55-.02.57-1.46.6-1.98.03-.2.07-.49.13-.66.8,1.67,15-7.06,16.6-8.56,3.64-.52,7.86-1.03,11.78-1.93l12.66-2.91c-1.32-21.95,1.48-43.04-1.51-62.83-3.29-1.95-7.07.43-10.78,1.93-12.7,5.11-10.78,7.34-23.73,13.29ZM211.43,71.92c-.16,0-1.25-.04-1.36.27l-.63,1.73-6.98,7.99c-2.2,1.7-4.29,3.79-5.98,5.99-1.43,1.17-2.81,2.57-3.99,3.99l-1,1-1.99,1-1,1-1,1c-.73.36-.74.56,0,1l1.99,1c.5.59,1.41,1.58,1.99,2l2.22,2.95c.67.89,1.63,2.23,2.05,3.19,1.31,2.98,3.5,6.29,5.76,8.51-1.23,5.34,8.3,16.2,7.73,23.84-3.83-3.73-2.82-8.93-6.73-10.66l-.07-.89-.1-2.36c-.02-.57-1.52-.6-2-.61l-.03-1c-.03-.63-.24-2-.85-2h-1.99l-4.94,1.17.88-2.9c.79-.41,2.08-1.54,3.29-2.5l-4.22-6.75c-.2-.32-.79-.75-1.11-1l-.07-1.11c-1.16-3.42-4.38-6.73-7.61-9.27l-8.81,8.24.08-3.85,5.26-5.6c-1.6-1.98-4.67-4.11-6.7-5.35-.11-2.71-10.55-7.77-13.67-7.72-1.1.02-2.17,2.08-3.08,3.44l.55-3.54c.07-.48-.3-.76-.91-1.14-5.27-3.13-11.75-3.68-17.87-2.57l.04,31.75c0,.46-1.11,2.2-.96,1.69-.11-6.01-.04-12.04-.45-18.03-.67,9.73-1.49,19.32.63,27.83,1.66.07,4.28-.05,5.69-.53.35-.12.71-.41,1.8-1.17l.87,4.26c2.65.76,6.56,1.52,8.47,2.58l8.98,4.98,1.92.93.52,2.22c.42,1.81,3.23-4.16,7.06-2.75l-2.64,3.56c-.26.35-1.23,1.29-1.03,1.57l1.09,1.51,2.31,4.52c.63,1.23,4.01.61,5.52.98,2.63.66,6,1.65,8.1,1.97l-.33,2.25c13.37,6.73,15.68,11.1,25.18,20.32.64.62,2.73,1.35,2.71,2.24l-.04,1.65c0,.31.58,1.06.81.84l2.46-2.41,2.65,19.39c.13.03,1.12.18,1.49.18h3.99l-4.1,1.93,39.82.11c.12-.88.29-1.68.18-2.03l-.65-2c-5.86-17.95-4.65-18.98-21.22-31.95l-3.22-5.99c8.81,4.21,16.92,12.02,22.28,20.61.35.55.28,2.83.89,2.89l3.49.32c.8.07.06-2.78-.01-3.76-1.49-20.21-6.04-39.99-13.94-58.73-.58-1.37-1.52-2.65-2.31-3.17l-1.4-3.1c.35-3.17-1-5.48-3.51-9.19-2.17.92-4.18,2.38-5.33,4.36l-.99.03c-4.85.17-13.33,4.75-18.22,7.1l-13.46,6.43c-.49.24-1.36-1.65-1.24-1.88,2.39-1.13,4.86-2.42,6.98-3.86,3.58.36,6.64-2.22,10.03-3.73,7.63-3.39,14.24-6.22,21.59-10.93l-2.87-1.3c-.38-1.38-2.02-2.88-2.75-4.01l-6.27-9.79c-3.27-5.1-6.76-9.62-10.81-13.87-2.55-.95-4.45,3.59-6.93,4.67ZM114.69,91.89v-1l-1.26-8.28c-3.68,1.11-5.14,1.67-6.49,3.38-4.33,1.58-11.8,7.14-15.31,10.13-.24.2-.75.48-1.13.71l5.24,7.32-1.76.8c-1.07-1.37-3.33-3.16-5.5-4.06-3.49-1.44-4.86,5.74-7.61,7.05-.49.23-1.88.04-1.92.58l-.16,2.34-1.01,1.24c-1.41.54-2.63,2.23-2.46,3.62v1.12s2.52,3.3,2.52,3.3l-3.82-.67c-.61-.11-.9.6-1.07,1.53.02.33.13.72-.03.89l-.9.95c-.17.18.12.83-.07,1l-1.07.97c-.17.15-.13.69-.2.92-.79.62-1.75,1.97-2.36,3.15l-1.01,1.96c-.2.39-1.19-2-1.04-2.41l3.89-10.26c.1-.27-.26-1.64-.4-1.87-.15-.26-.51-.27-.71-.08l-.96.89c-8.61-2.61-3.05-3.09-10.8-4.67.32-.34.67-.5.51-.69-.25-.29-1.25-1.21-1.63-1.4l-19.3-9.52c-1.66-.82-6.14-3.5-7.18-1.13l-9.73,22.09c-7.07,16.05-8.48,33.4-10.29,50.78-.06.54-1.03,2.46-.53,2.66l3.51,1.38,1.32-5.83c.33-.44.67-1.46.86-2.02l11.12-12.09c1.43-1.56,7.02-.64,5.76-3.87.98-.12,2.51-.47,3.21-1,1.61-.1,4.16-.52,5.51-1.14l1.93-.89c.38-.18.97,1.46.56,1.56l-2.04.53c-1.8.46-4.03,2.16-4.6,3.8-8.34,5.56-14.6,12.87-20.37,20.98-3.52,4.95-6.53,11.05-5.78,18.1h37.95c1.08,0,2.17-1.95,1.78-2h1l1.48-.04c.38-.01.26-1.32.39-2.06l5.23-30.76c.17-1.01-.51-3.81-.81-4.08.41-1.84.64-4.24.8-5.99.07-.7.44-2.53.43-2.52-3.46.52-6.26,1.05-9.24.78l11.93-3.84,4.81-14.3c1.38,4.97-1.31,8.55-1.55,12.67.82,1.6,1.19,3.47.66,5.04-.28,0-.81.12-1.16.18l-1.36.17c-.36.04-.65,1.12-.83,1.71-.64,7.01-4.03,13.82-2.47,20l.8.9,2.05,3.68c-1.93,7.46-8.88,12.8-6.82,20.47l32.41-.15-8.82-1.84h9.97c1.37-4.19.87-9.55,1.29-14.85l.8-10.22c.37-4.69,2.96-10.18,1.63-14-1.21-3.8-13.5,7.86-17.68,7.94-.4-.42-.63-.82-.66-.54-.05.36-.28,1.93-.27,1.9l-1.03.09c-4.27,1.5-6.64,5.72-10.33,10.26l-.52-4.5,10.89-10.28c1.26-.4,2.48-1.41,2.99-2.59.24-.06.64-.15.86-.23,3.47-1.22,10.45-3.81,12.85-6.9l-.12-.74c1.6-1.09,1.65-1.31-.71-.56-1.5-1-2.77-1.91-3.29-2.5l13.93.76,2.18-4.78,1.16-1.96c2.14-1.06,4.16-2.74,5.09-4.84l3.88-2.29,3.94-2.32c7.07-2.97,9.92.14,12.4-6.89.18-.52.68-.12,1.65.11,1.17.55,2.89.67,3.93.15l1.03.04c1.34,3.54,1.95-45.66-.35-42.9l-.76-.07c.02-.39.2-2.32-.38-2.22l-2.18.39-14.5,2.65c-4.95.9,3.55,16.1,3.08,19.03l-3.35-7.34c-.14-.31-1.52-.75-1.52-.68ZM215.42,192.74c-.96-10.77-4.96-11.96-7.76-18.97-1.87-4.68-10.63-14.65-13.14-13.16-4.93-2.61-9.43-6.15-15-6.86l-1.12,2c3.58,10.79,4.59,21.67,4.02,33.12-.06,1.19.51,3.57,1.14,4.36.76.95,3.02,1.56,5.08,1.56l25.31-.07c.41,0,2.38-1.3,1.47-1.98ZM10.97,198.73v1l-2.02-.97.21,32.88h40.49s.32-30.53.32-30.53c.02-1.82-2.63-4.4-4.17-4.4l-33.4.02c-.79,0-1.73,1.75-1.43,2ZM53.85,198.73v1c.17-.5-.99,1.24-.99,1.65v30.22s36.8.13,36.8.13l.29-28.86c.02-1.69.22-3.75-.05-4.95-.32-1.43-3.28-1.32-5.38-1.31l-29.22.16c-.82,0-1.72,1.65-1.45,1.95ZM203.45,198.73c-6.35-.01-12.89-.33-19.02.79l-1.89-.42-.05,28.96c0,.64,1.48,1.75,1.9,1.79l.75.08-.58,1.78,32.87-.12-4-1.91c1.07,0,3.68.12,4.99,0,1.55-.14,1.59-29.85,0-30.95-.16-.02-.57-.07-.99-.07l-7.99.07,7.94-1.82c-10.69-.25-21.61-.35-32.86.28-.26,1.68,20.49-.8,18.93,1.55ZM223.4,229.68c.11.27.64.94,1,1,8.73,1.53,26.05.95,35.37,1.01.8,0,1.98-1.94,1.53-2,.28,0,.75,0,1,0,1.54.06,1.69-33.15-.2-30.76-.26-.02-.64-.06-.86-.06.38-.07-.58-2.24-1.58-2.23l-36.89.3-.35,31.71c0,.08,1.22,1.32.99,1.04ZM10.97,295.58h36.9c-.16.47,1-1.15,1-2.04v-55.55c.01-1.66-1.1-3.73-2.01-4.43l-37.76.37-.17,60.44c0,.68,1.53,1.22,2.05,1.22ZM87.76,233.68h-33.41v1h33.41v-1ZM184.5,294.59v2c-.29.09,1.57,1,2.26,1h32.65s-.08-63.51-.08-63.51c-13.16-1.98-18.43,2.18-30.42.14-1.58-.27-6.36-.57-6.36,1.32l-.03,61.07,1.99-2.02ZM224.4,235.67c-1.21,1.07-.27,3.21-.2,5.2.27,7.49.12,14.78-.03,22.43l-.26,13.35c-.08,3.95.2,7.82-.29,11.86-.33,2.74-1.22,6.35,1.78,7.07l-.73,1.99h36.55s-.92-1.99-.92-1.99c2.02-15.92.64-44.94,1-59.91,0-.36-.22-1.03-.56-2.01h-34.68c-.45.01-2.5,1.35-1.67,2.01ZM53.85,282.6l-.03,10.9c0,.78,1.71,2.33,2.03,2.08l-1.98,1.97,35.86-.16.07-60.49c0-.37-.72-1.23-1.03-1.23l-31.42-.03c-2.57,0-3.56.83-3.49,2.02l-2.01-2.03.17,60.08c.94-3.93.86-7.16.8-11.31l1.04-1.8ZM47.87,302.57c-.32.01-.74.04-1,0-8.72-1.49-25.68-.97-35.75-1.01l-.15,71.91s-.79-.89-1-1.12l-.49-70.56-.34,74.58,36.9.13c.61,0,2.38-1.21,1.84-1.03v-1c-.07.5,1-1.07,1-1.62l-.03-72.91c-13.21-.53-25.01-.63-38.68.15.79,1.34,37.73-.36,37.72.99v1.5ZM88.26,299.28l-34.41.3v1.29s34.42-.3,34.42-.3v-1.29ZM218.41,302.57h-1c3.23-1.37-39.99-2.1-32.91,1l-1.97-2,.42,73.87.53-60.52c.22-.23,1.18-1.59,1.03-1.37v60.91c0,.29.05.74,0,1-.06.32.9.99,1.5.99l31.28.04c.27-.29,1.06-.98,1.12-1.04v-1c.31,0,1.02-.79,1.02-1.61l-.05-72.95c-11.87-.48-22.37-.58-34.7.18.51,1.34,33.74-.36,33.74.98v1.51ZM229.38,301.57h-4.99c-.39,0-1.51-.33-1.61.05-.15.57-.43,2.14-.43,2.89l.09,71.73,36.07.33c1.12.01,3.09-1.09,2.79-1.11l1-1c2.16-22.39.42-48.94,1.09-71.37.01-.46-1.14-1.98-1.09-1.52h-1c0-.53-.56-2.04-1.51-2.04l-35.21.14,4.81,1.9ZM88.56,375.27c.02-.26.06-.65.06-.86,2.57.45,1.45-22.99,1.44-25.23l-.33-46.28c0-.51-.8-1.36-1.11-1.36l-34.45.03c-.19,3.48-.32,6.82-.32,9.99l-1.87-10.13-.09,74.81,36.62.31.05-1.28ZM12.97,380.46c.08-.5-1.99.85-1.99,2.11v60.55c12.27.25,23.57.77,35.87-.54.18-15.48-.6-44.37,1.03-59.13l.49,59.97.56-60.97c0-1.04-1.28-3.49-2.2-4l-31.62-.02c-.9,0-2.3,1.6-2.14,2.03ZM52.86,380.46c-1.85,8.8-.72,18.29-1.04,27.77l1.91.2c3.83-7.57,7.83-15.34,14.69-21.16,5.05-4.29,8.23-1.65,10.37-6.81l.82-1.98-24.48-.04c-.74,0-2.78.97-2.27,2.02ZM192.48,380.46c2.06,1.7,4.58,3.12,7.03,3.98l5.38,3.74c2.84,2.88,5.52,7.82,8.45,9.9.94,2.89,2.2,5.34,4.32,9.05.03,1.93.21.7.53-.82,1.89,3.7,1.68-27.61.23-24.86v-1c0-.52-.65-2-1.53-2h-23.99s-.41,2-.41,2ZM223.4,379.46v63.9h38.9v-64.9h-38.9v2c-2.22,18.04-.5,43.39-.88,64.79l38.77.23c.86-.7,2.02-2.87,2.02-4.34l-.04-57.92c0-.96-.65-1.75-.97-1.75v-3h-38.9v1ZM64.74,398.29c-2.87.41-5.65,6.53-5.61,9.16,0,.12-.05.45-.13,1.04l-1.47.12c-.37.03-.66.93-.93,1.6-4.4,11.18-6.27,23.11-3.76,35.14l33.36.04c.93,0,1.9-2.02,1.52-2.13l.88-.05c1.93-19.99,1.86-41.31.04-61.67-5.43.41-11.77,3.58-15.68,7.8l-8.22,8.95ZM217.41,443.36v-1c3.32-14.15-.12-31.47-8.38-44.16-.56-.87-2.17-1.72-3.25-2.07-5.5-4.91-10.37-11.6-18.29-13.44-.07-.24-2.21-1.26-2.99-1.25-.37,0-1.12.14-1.99.27l-.03,59.59c0,1,1.25,3.94,2.25,4.04h31.14c.41.01,2.38-1.31,1.54-1.99ZM10.97,449.35v1c-.57-.2-1.23-.34-1.99-.55v69.76c0,.61,1.06,2.18.99,1.68l1.99,1c8.74,1.88,24.78,1.27,32.91,0,.74-.12,2.23,0,2.99,0,.31,0,1.02-.83,1.02-1.57l-.04-71.1-1.97,1.78c-.2-1.65-2.27-2.28-3.99-2l3.75-1.92-35.87-.08c-.6,0-.28,2.59.21,2ZM53.85,522.25h1c.23.21,1.12,1.17,1.5.94l1.49-.94h30.92c.09.28,1.05-1.52,1.05-2.19l-.13-72.45-32.02-.39c-1.08-.01-3.48.61-4.29,1.21-.98.72-1.52,2.9-1.52,5.2l.03,67.4c0,.64,1.48,1.22,1.99,1.22ZM217.41,449.35l-32.98-.16-1.93.05.07,73.73,31.43.38c.76,0,2.75-1.07,2.41-1.11h1c.31.35,2.01-.5,2.01-1.86l-.06-72.46c-11.98-.8-22.63-.87-34.51-.04,3.54,1.65,29.11-1.04,32.56,1.46ZM231.38,449.35h-6.98c-.36,0-1.12.17-2.21.39,1.17,24.26-1.39,48.89,1.41,71.51l.8,1-1.02.89c-.22.2.94,1.11,1.6,1.11h36.85c.71-1.49,1.54-3.74,1.53-4.94l-.16-71.86-38.66.04,6.84,1.87ZM44.88,573.17c.93.03,2.04-1.58,2.04-2.77l-.05-35.17,1.79,38.01.13-45.07-1.92,4.06-.07-4h-14.89s1.8-1.01,1.8-1.01c4.8.05,8.64.09,13.27-.68l-37.95-.18-.1,44.74c0,1.17,1.27,3.56,1.98,4.12l36.01-.1-2.04-1.95ZM61.83,528.24c-1.78,3.72-4.84,7.97-5.86,11.98-4.57-2.55-4.25,26.3-4.16,28.7l.15,4.45c.04,1.04,2.72,1.88,3.81,1.88l33.95-.27-.07-48.47-26.15-.37c-.88-.01-1.96,2.12-1.67,2.11ZM184.41,574.17s.45.79.59,1.07c10.55-.68,22.31,1.31,32.16-1.31.03-.26.08-.63.08-.83l1.2-1.16-.05-42.2c0-.6-.7-1.56-.99-1.56l-33-.28v46.28ZM262.29,528.24h-38.9c-.04-.29-1.09,1.62-1.08,2.14l.24,44.59,40.7-.11.02-45.34c0-.38-1.19-1.63-.99-1.29Z"/>
        <path class="cls-13" d="M53.85,383.45c-.5-.24-.83-.31-.85-.63l-.14-2.37h1v3Z"/>
        <path class="cls-9" d="M174.5,167.77l1.45.1c.42.03,1.57,7.56,1.57,7.21v400.8c-.01,2.07-.6,4.72-.18,5.87.51,1.39,4.4.48,6.2.48l81.66.03,4.71.03c1.23,0,.37-3.64.37-5.43l-.05-402.61c-2.33-18.86-4.97-36.45-11.44-53.86l-4.57-12.29-.92-1.63c-.17-.3.87-.62,1.1-.71,11.49,21.45,15.16,45.67,17.8,70.69l.02,407.64-96.7.06V180.04c.05-4.07-.49-9.42-1.03-12.26Z"/>
        <path class="cls-9" d="M0,507.27L.05,184.03c0-5.23,1.95-30.3,3.76-34.23,2.65-2.1-1.77,22.38-1.77,26.76l-.05,329.57c0,.79-1.49,1.24-1.99,1.14Z"/>
        <path class="cls-9" d="M168.71,14.84c-8.18-2.24-11.11-6.09-20.75-8.45l-.32-2.07c3.79,1.3,19.56,7.05,21.07,10.52Z"/>
        <path class="cls-9" d="M3.95,147.8c.4-5.93,3.76-16.96,6.02-22.97.34-.15.8,1.89.59,2.69l-4.84,18.24c-.12.44.08,1.97-.3,1.98l-1.48.05Z"/>
        <path class="cls-9" d="M104.87,149.8c-2.39,4.98-5.82,14.06-6.98,18.97-3.96-.68,4.77-21.12,6.98-18.97Z"/>
        <path class="cls-9" d="M154.58,137.96c-4.41-1.98-12.6-4.29-16.95-5.02-.36-.3,2.41-1.53,3.19-1.31l10.98,3.06c1.08.3,2.69,2.35,2.78,3.27Z"/>
        <path class="cls-9" d="M0,523.24v-10.98l1.47.04c.37.01.56,1.4.56,1.85v7.21c0,.44-.19,1.83-.57,1.85l-1.47.04Z"/>
        <path class="cls-9" d="M134.64,132.85l-9.97,2.11c1.19-3.5,7.09-4,9.97-2.11Z"/>
        <path class="cls-9" d="M174.35,165.78c-1.2-4.78-5.17-12.88-7.66-16.78,2.04-1.86,11.03,17.66,7.66,16.78Z"/>
        <path class="cls-9" d="M165.54,147.64c-1.04-1.06-2.89-3.02-3.97-4.02,2.13.29,3.96,1.88,3.97,4.02Z"/>
        <path class="cls-9" d="M250.51,96.88c-.66-.09-2.49-.45-2.57-1.19l-.44-3.8c1.19,1,2.65,3.54,3.01,4.99Z"/>
        <path class="cls-9" d="M47.91,59.69l3.31-3.69c-.89,1.63-2,2.48-3.31,3.69Z"/>
        <path class="cls-9" d="M245.42,87.96c-.52-.05-1.98-.12-1.99-.7v-2.45c.75.86,1.5,2.05,1.99,3.15Z"/>
        <path class="cls-9" d="M107.82,145.81c-.38,1.1-1.2,2.28-2.11,3l.15-2.3c.04-.55,1.51-.63,1.96-.7Z"/>
        <path class="cls-9" d="M57.83,48.93c1.95-2.34,4.48-5.25,7-7.09-.59,3.33-4.19,5.26-7,7.09Z"/>
        <path class="cls-9" d="M110.7,142.81c-.39.61-1.4,1.51-1.99,2,.05-.31.19-1.04.2-1.42.01-.52,1.34-.54,1.79-.58Z"/>
        <path class="cls-9" d="M211.43,45.96c-1.62-.33-3.15-1.51-3.99-3l3.99,3Z"/>
        <path class="cls-9" d="M252.32,101.87c-.26-.49-.51-1.42-.65-2l.65,2Z"/>
        <path class="cls-9" d="M224.69,59.71c-.62-.05-1.02,0-1.07-.32l-.22-1.45,1.29,1.77Z"/>
        <path class="cls-9" d="M241.51,81.9c-1.36-1.46-2.22-3.2-3.16-4.99,1.24,1.5,2.34,3.24,3.16,4.99Z"/>
        <path class="cls-9" d="M157.58,139.97l-1.99-1.15c.59.26,1.54.73,1.99,1.15Z"/>
        <path class="cls-9" d="M251.53,98.88l-.91-1,.91,1Z"/>
        <polygon class="cls-2" points="217.41 449.35 217.41 522.25 216.42 522.25 184.53 522.24 184.43 449.2 217.41 449.35"/>
        <path class="cls-2" d="M217.41,235.67v30.29c0,.43,1.16,2.17,1,1.66v2c.22-.45-1,1.23-1,1.7v24.26s-1.99,0-1.99,0h-30.92v-38.94l.28-20.97h32.63Z"/>
        <path class="cls-8" d="M245.2,107.86l1.4,3.1c1.32,4.88,3.07,9.78,5.05,14.98,5.69,15.02,7.83,30.6,9.69,46.78-10.76-6.22.91-2.88-14.61-15.32-9.36-7.5-19.16-11.91-31.42-13.56-2.81-1.08-3.3-6.28-4.29-8.83l-6.35-16.35,15.49-7.03c5.55-2.52,10.78-4.87,15.2-8.55l.99-.03,5.29-2.26c1.47,3.21,2.31,4.97,3.55,7.08Z"/>
        <path class="cls-4" d="M57.93,111.92c3.02.81,5.6,2.17,8.17,3.67,2.05,1.05,3.18,2.76,2.51,5.18-1.4,5.22-3.51,10.56-4.95,15.48-1.44,3.77-1.39,6.95-5.81,8.4-7.17,2.28-16.39,2.72-22.94,7.15-3.97,2.68-5.88,4.97-8.48,7.3-1.99,1.62-3.55,3.38-5.54,5.51-2.09,1.64-9.33,11.87-11.31,10.32-.42-.36.09-1.1.09-2.38,0-2.84,1.23-6.03,1.44-8.9.27-2.9.77-5.84,1.26-8.68.39-2.88-.52-5.55.09-8.57,1.42-5.47,3.62-11.52,4.9-16.99.81-7.11,5.26-13.12,9.07-20.03,1.92-3,.88-9.87,5.21-9.52,5.44,1.21,9.82,4.69,14.88,7.38,3.77,2.21,7.24,3.5,11.23,4.61l.18.05Z"/>
        <path class="cls-11" d="M134.38,11.93l.27,62.32c-6.78.82-13.21,1.98-20.1,3.66l-4.96-10.97c-.06-.54-.55-1.5-.72-2.02-2.89-8.6-9.27-24.76-12.89-33.91l2.89-3,.99-.87c12.95-5.95,11.03-8.18,23.73-13.29,3.71-1.49,7.49-3.88,10.78-1.93ZM131.81,72.85c1.64-21.19.56-40.36.79-60.11l-4.04,1.72,2.86,1.26c.67.3-.21,54.52.39,57.13Z"/>
        <path class="cls-11" d="M92.63,35.1l16.69,42.95c-4,4.53-13.59,7.66-14.47,10.12-.06.16-.1.46-.13.66-1.1.29-2.31,1.13-2.97,2.07l-1,.86-1.99,1.14h-1l-1.99-2-2.99-3-1-1c-1.45-2-4.97-5.46-6.98-6.9l-1-1.09c-1.65-2.42-5.95-6.08-8.32-8.11-1.84-1.58-3.38-4.8-5.76-5.9l-.8-1.04c-.32-4.32,2.05-3.37,4.91-7.91,1.88-2.99,4.44-4.81,8.16-5.77l3.2-4.64c7.51-2.47,14.28-12.43,17.44-10.44Z"/>
        <path class="cls-11" d="M190.49,40.96c10.27,4.66,4.97,8.17,11.72,9.07,3.2,4.22,6.9,8.12,10.92,11.97l-.53,2.85c-2.2,1.68-5.59,5.08-7.15,7.06l-1,1c-1.15,1.01-2.95,2.85-3.99,3.99l-1,1c-2.48,2-7.08,6.13-8.98,8.99-2.2,1.7-4.29,3.79-5.98,5.99-.71.27-2.56-.3-3.13-.8l-4.84-4.19c-.26-.28-.69-.82-1-1l-1.99-1.2c-2.55-2.06-5.84-3.52-8.98-4.92l-2.25-1.13,1-3.98c.05-.21.07-.62.08-.83.88-.85,2.17-2.64,2.8-4.49l4.29-12.63c.07-.2.12-.59.15-.81l7.23-15.39c1.08-2.29,2.26-5.96,4.25-6.42,3.09,2.55,5.55,4.6,8.38,5.88Z"/>
        <path class="cls-3" d="M217.41,528.17l-.17,44.93c0,.2-.05.58-.08.83-7.26-1.21-25.58-1.26-32.75.25v-46.28s33,.28,33,.28Z"/>
        <path class="cls-3" d="M205.78,396.14c5.41,9.27,10.58,18.69,10.6,30.2l1.03,17.02h-32.91s-.78-58.91-.78-58.91c0-1.36-.19-2.5.78-3,7.92,1.83,15.77,9.78,21.28,14.69Z"/>
        <path class="cls-7" d="M167.5,25.1l.89.05c.25.54.73,1.46,1.15,1.84l5.1,4.54-7.2,18.21-6.84,17.29c-.55,1.38-.91,3.61-1.04,4.9l-2.73,3.98c-5.54-1.32-9.46-2.03-16.35-2.67l.46-47.66c.04-4.14-.58-7.95.46-11.55,9.19.6,7.7,3.33,19.38,7.65,2.63.97,4.73,2,6.72,3.43Z"/>
        <path class="cls-3" d="M240.21,159.13c17.1,13.42,15.84,14.49,21.89,33.07-.43.32-2.46,1.05-3.54,1.05h-37.07c-.26-2.2-.61-6.58-1.02-9.16l-5.53-35.06c4.13-.68,22.55,7.97,25.27,10.1Z"/>
        <path class="cls-12" d="M235.44,90.9l-2.22.29,4.77,4.22c-6.68,3.64-12.74,5.97-19.16,9.07l-13.36,6.44c-.86.41-3.36,1.29-3.92.54l-2.07-2.73c-.94-1.24-2.44-2.43-3.72-2.7-.43-.97-1.38-2.31-2.05-3.19.31-.18.17-1.27-.25-1.56l-1.97-1.39c-.59-.41-1.49-1.41-1.99-2v-3.99l1.99-1c.32-.16.75-.71,1-1,1.18-1.43,2.56-2.82,3.99-3.99,2.18-1.78,4.12-3.86,5.98-5.99l6.98-7.99c.54-.25,1.56-.65,1.99-1l6.93-5.67c4.05,4.25,7.54,8.77,10.81,13.87l6.27,9.79Z"/>
        <path class="cls-2" d="M203.45,198.73h5.98l7.99-.07v28.34c0,.43,1.19,2.17.99,1.69v1c-1.31.12-3.92,0-4.99,0l-28.29.25-.75-.08.04-30.34c6.13-1.12,12.67-.8,19.02-.79Z"/>
        <path class="cls-12" d="M64.82,78.93l4.99,2.97,1.99,2c.66,1.65,2.36,2.81,3.99,4.09l4.99,3.9,1,1v1c.81,1.32.83,3.56.09,4.56l-1.88,2.52c-1.15,1.4-2.7,3.58-2.98,5.01-.04.19-.03.57-.08.76-.56.07-2.17.86-2.67,1.46l-3.92,4.7-11.78-5.51c-3.58-2.46-7.33-4.03-11.3-5.85l-9.76-4.46c-1.83-.84-2.61-3.28-1.76-5.01,2.31-3.82,4.91-8.03,7.63-11.61l3.59,1.96c9.14-4.85,10.98-1.96,17.88-3.49Z"/>
        <path class="cls-1" d="M194.52,160.6c3.71,4.88,8.4,9.17,13.14,13.16,2.8,7.01,6.8,8.2,7.76,18.97h-27.92c-.38.25-2.97-.39-2.94-1.58.22-10.87-1.1-25.98-5.03-37.42,5.57.72,10.06,4.25,15,6.86Z"/>
        <path class="cls-11" d="M114.69,90.89v1l10.25,27.98c.5,1.36.76,3.87.03,4.76-.61.74-2.91,1.48-3.87,1.63l-2.75.44c-.53.08-1.22-1.47-1.62-1.91l-7.6-8.32-8.45-9.52-5.05-6.03c-1.41-1.69-2.97-3.38-3.99-4.81,3.51-2.99,10.98-8.55,15.31-10.13,1.15-.42,3.91-.84,4.78-.96l2.97,5.87Z"/>
        <path class="cls-9" d="M235.37,103.07c-4.42,3.68-9.65,6.03-15.2,8.55l-15.49,7.03,6.35,16.35c.99,2.54,1.48,7.74,4.29,8.83,12.26,1.66,22.06,6.06,31.42,13.56,15.52,12.44,3.85,9.1,14.61,15.32-1.87-16.18-4-31.75-9.69-46.78-1.97-5.2-3.73-10.1-5.05-14.98.79.51,1.73,1.8,2.31,3.17,7.91,18.75,12.46,38.52,13.94,58.73.07.98.82,3.83.01,3.76l-3.49-.32c-.6-.06-.54-2.33-.89-2.89-5.36-8.59-13.47-16.4-22.28-20.61l3.22,5.99c-2.63-2.06-20.49-10.42-24.49-9.76l5.36,33.88c.39,2.49.74,6.73.99,8.85l.12.99c-.36,0-1.35-.15-1.49-.18l-2.65-19.39-2.46,2.41c-.22.22-.81-.53-.81-.84l.04-1.65c.02-.89-2.07-1.62-2.71-2.24,1.12-2.31,1.45-4.98.11-7.07l-2.52-15.86-16.12-.19c-.64,0-2.61,1.05-2.3,1.07-1.02,0-3.02-.36-4.02-.51-2.1-.32-5.46-1.31-8.1-1.97-1.51-.38-4.89.24-5.52-.98l-2.31-4.52,4.2,4.48c4.39-.74,9.11-1.49,13.68-1.73l19.39-.99-5.29-14.87c3.91,1.73,2.89,6.94,6.73,10.66.57-7.63-8.96-18.5-7.73-23.84l.94.18c-.12.23.74,2.12,1.24,1.88l13.46-6.43c4.9-2.34,13.37-6.93,18.22-7.1ZM216.24,170.02c.28-8.27-3.06-15.35-3.45-22.57-.18-3.32,17.04,4.48,18.49,3.26-4.72-2.81-13.28-4.66-18.13-6.06-.89-.26-2.59-3.64-3.03-2.92-.35.57-1.75,2.79-2.42,2.82l-17.16.72,17.88.67c5,5.55,3.68,17.68,7.83,24.08ZM188.56,146.29c-1.97-.25-3.71-.25-5.12.03,1.97.25,3.71.25,5.12-.03ZM233.51,151.8c0-.35-.28-.63-.63-.63s-.63.28-.63.63.28.63.63.63.63-.28.63-.63Z"/>
        <path class="cls-11" d="M191.3,107.75l.07,1.11,1.11,1,4.22,6.75c-1.21.96-2.5,2.09-3.29,2.5l-14.2,7.38c-1.91.99-11.51,9.58-13.67,8.21l-1.92-.93-5.03-5.29,6.07-7.44,9-9.99c3.43-3.81,6.65-6.66,10.73-10.59,5.33,4.07,2.75,6.17,6.9,7.28Z"/>
        <path class="cls-2" d="M199.46,120.84l.85,2,.03,1,2.1,2.97.07.89,5.29,14.87-19.39.99c-4.56.23-9.29.99-13.68,1.73l-4.2-4.48-1.09-1.51c-.2-.28.77-1.22,1.03-1.57l2.64-3.56c3.24-1.61,7.9-4.15,11.51-6.16l12.83-7.16h1.99Z"/>
        <path class="cls-2" d="M93.98,104.94c-.03,4.53,5.33,6.99,8.06,10.57s5.58,6.96,9.13,9.75c.94.74,3.27,2.93,2.63,3.8l-2.1,2.87-3.88,2.29c-2.17-1.47-4.49-2.96-6.98-4.39l-9.72-5.56c-2.1-1.2-5.54-2.87-7.48-3.36-.2-.05-.61-.1-.82-.08-1.5-2.43-4.55-3.48-7.49-3.99v-1.12c1.48-.5,2.53-2.05,2.46-3.62l1.01-1.24c.9-.67,1.73-1.85,2.08-2.92,2.75-1.31,4.12-8.49,7.61-7.05,2.17.9,4.43,2.69,5.5,4.06Z"/>
        <path class="cls-2" d="M102.72,139.06l-1.16,1.96-4.14,3.63c-10.73-1.66-20.68-2.16-32.23-1.5l5.49-17.42c.07-.23.04-.77.2-.92l1.07-.97c.18-.17-.1-.82.07-1l.9-.95c.16-.17.05-.56.03-.89,2.6.61,5.52,1.78,8.21,3.4l12.35,7.46c3.46,2.09,8.47,3.2,9.22,7.2Z"/>
        <path class="cls-11" d="M156.42,82.98c-1.13,2.45-1.85,5.29-2.09,7.85-3.07,5.62-4.83,12.12-7.39,18.47-1.89,4.69-3.41,9.13-3.44,13.82-1.41.48-4.02.59-5.69.53l-.19-9.8c-.15.51.96-1.23.96-1.69l-.04-31.75c6.11-1.12,12.6-.56,17.87,2.57Z"/>
        <path class="cls-2" d="M133.52,80.06l.76.07c.03.26.07.63.07.85-1.26,13.77-.56,27.94-.75,42.01-1.03.52-2.76.4-3.93-.15-3.78-13.16-8.85-25.78-13.76-39.73,4.5-1.76,12.5-3.52,17.6-3.05Z"/>
        <path class="cls-2" d="M173.53,91.93c-.77-.22-3.77-.07-3.83.93l-.55,9.4c-12.45,6.79-4.07,10.3-12.03,12.25-2.05.5-3.45,2.72-4.25,4.82-1.3.11-3.22,0-3.92.83-1.01,1.2.12,4.66,1.46,4.66l5.18.02c-.28,1.04-2.43,2.28-3.46,1.87l-5.91-2.36,11.66-34.14,1.96-6c3.12-.05,13.56,5.01,13.67,7.72Z"/>
        <path class="cls-9" d="M159.86,84.21l-1.96,6-11.66,34.14,5.91,2.36c1.03.41,3.19-.83,3.46-1.87.42-1.59,1.69-3.38,3.24-4.69,3.79-3.22,6.47-6.74,9.73-10.3l6.4-6.98-.08,3.85,8.81-8.24c3.23,2.55,6.44,5.85,7.61,9.27-4.15-1.11-1.58-3.21-6.9-7.28-4.09,3.92-7.3,6.78-10.73,10.59l-9,9.99-6.07,7.44,5.03,5.29-8.98-4.98c-1.91-1.06-5.82-1.82-8.47-2.58l-.87-4.26c-1.09.77-1.46,1.05-1.8,1.17.03-4.69,1.55-9.14,3.44-13.82,2.55-6.35,4.31-12.85,7.39-18.47l.64,3.15,1.53-2.86c-.43-1.62-.82-3.05-2.17-.29.24-2.57.96-5.4,2.09-7.85.61.38.99.65.91,1.14l-.55,3.54c.9-1.36,1.98-3.43,3.08-3.44Z"/>
        <path class="cls-9" d="M133.52,80.06c-5.1-.47-13.1,1.29-17.6,3.05,4.91,13.95,9.98,26.57,13.76,39.73-.97-.23-1.47-.63-1.65-.11-2.47,7.02-5.33,3.91-12.4,6.89l-3.94,2.32,2.1-2.87c.63-.87-1.7-3.06-2.63-3.8-3.56-2.79-6.41-6.17-9.13-9.75s-8.09-6.04-8.06-10.57l1.76-.8-5.24-7.32c.39-.23.89-.51,1.13-.71,1.02,1.42,2.58,3.12,3.99,4.81l5.05,6.03,8.45,9.52,7.6,8.32c.4.44,1.1,1.99,1.62,1.91l2.75-.44c.97-.16,3.26-.89,3.87-1.63.73-.89.47-3.4-.03-4.76l-10.25-27.98c0-.07,1.37.37,1.52.68l3.35,7.34c.47-2.94-8.03-18.13-3.08-19.03l14.5-2.65,2.18-.39c.58-.1.4,1.83.38,2.22Z"/>
        <path class="cls-9" d="M114.69,90.89l-2.97-5.87c-.87.12-3.64.54-4.78.96,1.35-1.7,2.82-2.27,6.49-3.38l1.26,8.28Z"/>
        <path class="cls-11" d="M173.53,91.93c2.03,1.23,5.1,3.36,6.7,5.35l-5.26,5.6-6.4,6.98c-3.26,3.55-5.94,7.08-9.73,10.3-1.54,1.31-2.81,3.1-3.24,4.69l-5.18-.02c-1.34,0-2.48-3.47-1.46-4.66.7-.83,2.62-.72,3.92-.83.8-2.1,2.21-4.32,4.25-4.82,7.96-1.94-.42-5.46,12.03-12.25l.55-9.4c.06-1,3.06-1.15,3.83-.93Z"/>
        <path class="cls-3" d="M188.29,147.29l20.33.03,5.25,17.95c1.63,2.51,1.23,5.71-.13,8.49-11.61-11.07-14.43-16.31-30.76-24.39l.4-2.7c1.22.18,3.67.61,4.91.62Z"/>
        <path class="cls-2" d="M262.29,528.24v44.93l-1.99,1h-36.9v-45.93h38.9ZM261.3,529.24h-35.9v42.94h35.9v-42.94Z"/>
        <path class="cls-9" d="M94.85,88.16c.88-2.46,10.47-5.59,14.47-10.12l-16.69-42.95c6.98,7.1,7.01,18.81,13.85,28.21l-6.94-19.3c-1.56-4.33-4.91-8.98-3.56-12.99,3.62,9.16,10,25.32,12.89,33.91l-2.75-.61c1.22,5.62,2.93,8.92,5.31,12.39-.79-3.79-1.58-7.57-1.84-9.77l4.96,10.97c6.89-1.68,13.32-2.84,20.1-3.66l-.27-62.32c2.99,19.79.19,40.88,1.51,62.83l-12.66,2.91c-3.92.9-8.13,1.41-11.78,1.93-1.6,1.5-15.8,10.23-16.6,8.56Z"/>
        <path class="cls-11" d="M262.29,380.46v1h-35.42c-.86,0-1.48,1.47-1.48,2v55.92c0,.61.08,1.81.14,3l34.74-.02.5-58.8.53,56.07c0,.49,1.21,2.19.99,1.74v2h-38.9v-33.95c.05.27,1.01-1.65,1.01-2.29v-22.16c0-.85-.99-2.77-1.01-2.5v-3.99h38.9v64.9h-38.9v-63.9l2.97,1.03,35.93-.03Z"/>
        <path class="cls-5" d="M247.33,235.67h13.96c-.36,14.97,1.02,43.99-1,59.91h-34.91c-2.99-.72-2.11-4.33-1.78-7.07.49-4.04.21-7.91.29-11.86l.26-13.35c.15-7.65.3-14.94.03-22.43-.07-1.98-1.01-4.13.2-5.2h22.94ZM260.3,236.67h-34.91v57.91h34.91v-57.91Z"/>
        <path class="cls-2" d="M217.41,302.57v68.48c0,1.34,1.12,2.86,1,2.41v1h-33.91v-70.89c-7.08-3.1,36.15-2.37,32.91-1ZM185.5,308.56v64.9h30.92v-70.89h-30.87s-.05,5.99-.05,5.99Z"/>
        <path class="cls-11" d="M229.38,301.57h4.99v1l-8.22.32-.62,10.61-.17,59.97h34.96s-.02-24.96-.02-24.96c-.01-15.38.8-30.98-1-45.93l-2.99-1h4.99v71.89c-9.11,1.49-26.75.97-36.9,1,.07-.25,0-.72,0-1v-71.89h4.99Z"/>
        <path class="cls-5" d="M261.24,198.86c.22,0,.6.04.86.06l.2,30.76c-.25,0-.71,0-1,0l-33.06-.03c-.95,0-3.11.69-3.84,1.03-.36-.06-.88-.72-1-1l.77-8.9c.66-7.62-1.53-14.33-.16-22.12l37.23.2ZM254.31,228.68h5.98s0-4.99,0-4.99v-3c0-6.73.57-13.8-1-20.14h-1.99s-1-.04-1-.04l-4.99.21c-.37-.35-1.4-1-1.99-1h-23.76s-.39,28.9-.39,28.9l29.14.06Z"/>
        <path class="cls-9" d="M184.5,381.46v61.91s32.91,0,32.91,0c.84.68-1.13,2-1.54,2h-31.14c-1-.11-2.25-3.05-2.25-4.05l.03-59.59c.87-.13,1.62-.27,1.99-.27Z"/>
        <path class="cls-3" d="M213.34,398.08c-2.93-2.08-5.61-7.02-8.45-9.9l-5.38-3.74-1.12-2.97,18.03-.02-.03,19.11-3.06-2.47Z"/>
        <path class="cls-5" d="M141.41,14.01c-1.04,3.6-.42,7.41-.46,11.55l-.46,47.66c6.88.64,10.81,1.35,16.35,2.67l2.73-3.98h1l-1.99,5.99h-1.99c-5.6-1.91-11.43-2.87-17.99-3.3l.15-60.05c0-.88.98-3.06,1.24-2.69l.77,1.1.66,1.03Z"/>
        <path class="cls-9" d="M184.5,296.58h29.3c.38,0,2.12-1.17,1.62-1h1.99c.31,0,1-.89,1-1.39v-24.57s0-2,0-2v-30.27c0-.79-.71-1.68-1-1.68h-32.63s-.28,20.97-.28,20.97c-1.5,1.6-1.5,5.39,0,6.99v10.98c-.22.26-1.15,1.12-.91,1.51l.91,1.49v9.99c-1.34.86-1.34,4.13,0,4.99v2l-1.99,2.02.03-61.07c0-1.89,4.78-1.59,6.36-1.32,11.99,2.05,17.26-2.12,30.42-.14l.08,63.51h-32.65c-.69,0-2.55-.91-2.26-1Z"/>
        <path class="cls-7" d="M55.85,67.92c.63.94,2.01,2.54,2.99,3,.46,2.27,1.7,4.58,3.88,4.89l.56,1.4c.18.46.98.58,1.54.71v1.02c-6.9,1.53-8.74-1.36-17.88,3.49l-3.59-1.96,4.47-5.88,4.46-5.34c.57-.69,2.82-1.32,3.57-1.32Z"/>
        <path class="cls-9" d="M217.41,522.25v-72.89c-3.46-2.51-29.03.19-32.56-1.46,11.88-.83,22.53-.76,34.51.04l.06,72.46c0,1.36-1.71,2.21-2.01,1.86Z"/>
        <path class="cls-9" d="M184.43,449.2l.1,73.04h31.88c.35.05-1.65,1.13-2.41,1.12l-31.43-.38-.07-73.73,1.93-.05Z"/>
        <path class="cls-9" d="M224.4,449.35v13.98l-.31,29.86c-.04,4.04-.79,7.55-.16,11.54.88,5.61.2,11.17-.33,16.52-2.8-22.61-.23-47.24-1.41-71.51,1.08-.22,1.84-.39,2.21-.39Z"/>
        <path class="cls-9" d="M224.4,522.25h37.9s0-71.89,0-71.89c.5.17-1.24-.99-1.62-.99h-29.3s-6.84-1.87-6.84-1.87l38.66-.04.16,71.86c0,1.2-.82,3.45-1.53,4.93h-36.85c-.67,0-1.83-.91-1.6-1.11l1.02-.89Z"/>
        <path class="cls-9" d="M82.81,120.84l-2.42.31c-.69.09.37,2.19,1.02,2.45l8.19,3.25c.6-2.54-6.73-2.79-5.96-5.93,1.95.49,5.39,2.16,7.48,3.36l9.72,5.56c2.49,1.42,4.81,2.92,6.98,4.39-.93,2.09-2.95,3.78-5.09,4.84-.75-4-5.76-5.11-9.22-7.2l-12.35-7.46c-2.69-1.62-5.61-2.79-8.21-3.4.17-.92.46-1.63,1.07-1.53l3.82.67-2.51-3.3c2.94.52,5.98,1.56,7.49,3.99ZM91.33,127.25c.17.26.85,1.63.88,1.61.04-.02,1.15-.37,1.51-.51,1.03-.4-2.03-.56-2.39-1.1Z"/>
        <path class="cls-9" d="M167.5,25.1c-1.99-1.44-4.09-2.46-6.72-3.43-11.67-4.32-10.19-7.06-19.38-7.65l-.66-1.03-.77-1.1c-.26-.37-1.24,1.8-1.24,2.69l-.15,60.05c6.56.43,12.4,1.39,17.99,3.3.06.37-1.97.87-2.9.68l-16.02-3.29.02-65.48c3.7.13,32.14,12.69,29.82,15.27Z"/>
        <path class="cls-9" d="M223.4,545.21v28.96h38.9v-45.93c-.2-.34.99.91.99,1.29l-.02,45.34-40.7.11-.24-44.59c0-.52,1.05-2.43,1.08-2.14v16.97Z"/>
        <path class="cls-9" d="M262.29,374.47c-.09-.25-.6-1.06-1-1v-45.93c0-8.34,1.7-17.31,1-25.96-.05-.46,1.11,1.06,1.09,1.52-.68,22.43,1.07,48.98-1.09,71.37Z"/>
        <path class="cls-9" d="M57.29,112.44c-2.53-.52-5.58-1.4-8.06-2.83l-7.15-4.1c-3.21-1.84-6.7-3.99-10.57-4.43l-6.48,12.37c-1.94,3.7-2.73,7.85-4.09,11.39-2.46,6.43-4.28,13.13-5.98,19.97l-1,3.99v2l-3.12,24.11,3.12-4.14-1.32,5.83-3.51-1.38c-.5-.2.47-2.12.53-2.66,1.81-17.38,3.22-34.73,10.29-50.78l9.73-22.09c1.05-2.37,5.52.31,7.18,1.13l19.3,9.52c.38.19,1.38,1.11,1.63,1.4.17.19-.19.36-.51.69Z"/>
        <path class="cls-9" d="M224.4,301.57v12.98c-1.34.86-1.34,4.13,0,4.99v10.98c-1.47-2.93-1.47,15.91,0,12.98v2c-.03-.25-1.02,1.65-1.02,2.22v23.41c0,.68.98,2.61,1.02,2.33,0,.28.07.75,0,1-.07.26.89.99,1.35.99h35.55c.3.02-1.67,1.13-2.79,1.12l-36.07-.33-.09-71.73c0-.75.28-2.32.43-2.89.1-.38,1.21-.05,1.61-.05Z"/>
        <path class="cls-9" d="M217.41,442.36h-1l-.03-16.02c-.02-11.51-5.2-20.93-10.6-30.2,1.08.35,2.68,1.2,3.25,2.07,8.26,12.68,11.71,30,8.38,44.16Z"/>
        <path class="cls-9" d="M193.41,119.11l-.88,2.9,4.94-1.17-12.83,7.16c-3.61,2.02-8.28,4.56-11.51,6.16-3.83-1.41-6.64,4.56-7.06,2.75l-.52-2.22c2.16,1.37,11.76-7.22,13.67-8.21l14.2-7.38Z"/>
        <path class="cls-9" d="M184.5,303.57v9.99c.15-.23-.81,1.14-1.03,1.37l-.53,60.52-.42-73.87,1.97,2Z"/>
        <path class="cls-9" d="M223.4,382.45v60.91h38.9v-61.91c.32,0,.96.79.97,1.75l.04,57.92c0,1.47-1.15,3.64-2.02,4.34l-38.77-.23c.38-21.39-1.34-46.74.88-64.79v2Z"/>
        <polygon class="cls-9" points="262.29 380.46 226.36 380.48 223.4 379.46 223.4 378.46 262.29 378.46 262.29 380.46"/>
        <path class="cls-9" d="M190.49,40.96c-2.83-1.28-5.29-3.33-8.38-5.88-1.99.46-3.18,4.13-4.25,6.42l-7.23,15.39c-1.39-2.25,7.14-19.74,8.88-22.9s13.16,6.2,10.98,6.96Z"/>
        <path class="cls-9" d="M261.3,192.74c.11.35-.06,1.15-.18,2.03l-39.82-.11,4.1-1.93h35.9Z"/>
        <path class="cls-9" d="M261.24,198.86l-37.23-.2c-1.37,7.79.82,14.49.16,22.12l-.77,8.9c.23.29-.99-.95-.99-1.04l.35-31.71,36.89-.3c1.01,0,1.97,2.16,1.58,2.23Z"/>
        <path class="cls-2" d="M218.41,380.46v1c-.02-.29-1.05,1.66-1.05,2.43l.07,17.54c0,1.26.68,3.93.75,4.88-.32,1.52-.49,2.76-.53.82-2.12-3.71-3.38-6.16-4.32-9.05l3.06,2.47.03-19.11-18.03.02,1.12,2.97c-2.45-.86-4.97-2.28-7.03-3.98h25.93Z"/>
        <path class="cls-9" d="M218.41,374.47v-73.4c.01-1.34-33.22.36-33.73-.98,12.33-.76,22.83-.66,34.7-.18l.05,72.95c0,.82-.71,1.61-1.02,1.61Z"/>
        <path class="cls-9" d="M261.3,229.68c.44.06-.73,2.01-1.53,2-9.31-.05-26.64.52-35.37-1.01.74-.34,2.9-1.03,3.84-1.03l33.06.03Z"/>
        <path class="cls-9" d="M261.3,235.67h-12.97c-.4-.73-.6-.73-1,0h-22.94c-.83-.65,1.22-1.99,1.67-1.99h34.68c.34.96.57,1.63.56,1.99Z"/>
        <polygon class="cls-9" points="260.3 295.58 261.22 297.58 224.67 297.58 225.39 295.58 260.3 295.58"/>
        <path class="cls-5" d="M218.41,373.47c.12.45-.99-1.07-.99-2.41v-68.48s.99,0,.99,0v70.89Z"/>
        <path class="cls-9" d="M187.49,192.74c1.54,1.26,4.72,1.48,5.98,0h8.98c1.6,1.5,5.38,1.5,6.98,0h5.98c.91.68-1.06,1.98-1.47,1.98l-25.31.07c-2.06,0-4.33-.61-5.08-1.56-.63-.79-1.2-3.17-1.14-4.36.57-11.45-.43-22.33-4.02-33.12l1.12-2c3.94,11.44,5.26,26.55,5.03,37.42-.02,1.19,2.56,1.83,2.94,1.58Z"/>
        <path class="cls-9" d="M35.73,92.06c-.84,1.73-.07,4.17,1.76,5.01l9.76,4.46c3.97,1.82,7.72,3.39,11.3,5.85l11.78,5.51,3.92-4.7c.5-.61,2.11-1.39,2.67-1.46-.7,2.37-3.54,6.58-5.78,8.26l-11.9-6.15-24.91-11.28c-.97-.44-2.61-2.86-1.86-3.42.96-.72,2.35-1.62,3.25-2.08Z"/>
        <path class="cls-9" d="M184.43,199.51l-.04,30.34c-.42-.05-1.9-1.16-1.9-1.79l.05-28.96,1.89.42Z"/>
        <polygon class="cls-9" points="213.42 229.68 217.43 231.6 184.56 231.72 185.14 229.93 213.42 229.68"/>
        <path class="cls-9" d="M217.17,573.92c-9.85,2.63-21.62.64-32.16,1.31-.14-.28-.6-1.07-.59-1.07,7.17-1.51,25.49-1.46,32.75-.25Z"/>
        <path class="cls-9" d="M218.41,380.46h-25.93l.41-2h23.99c.87,0,1.53,1.48,1.53,2Z"/>
        <path class="cls-6" d="M231.38,449.35h29.3c.38,0,2.12,1.17,1.62,1h-36.81c.23,4.62-1.05,9.24-1.09,12.98v-13.98h6.98Z"/>
        <path class="cls-9" d="M261.3,301.57h-1.99c-.4-.73-.6-.73-1,0h-1.99c-.29,0-.74-.01-1,0,3.66-1.51-23.7-1.48-20.94,0h-4.99l-4.81-1.9,35.21-.14c.95,0,1.51,1.51,1.51,2.04Z"/>
        <path class="cls-9" d="M218.19,406.31c-.07-.95-.75-3.63-.75-4.88l-.07-17.54c0-.77,1.03-2.72,1.05-2.43,1.46-2.75,1.66,28.55-.23,24.86Z"/>
        <path class="cls-9" d="M217.25,573.09l.17-44.93c.28,0,.99.96.99,1.56l.05,42.2-1.2,1.16Z"/>
        <path class="cls-9" d="M134.64,123.02l-.28-42.05c0-.22-.04-.59-.07-.85,2.3-2.77,1.69,46.44.35,42.9Z"/>
        <path class="cls-1" d="M134.64,123.02l-1.03-.04c.18-14.07-.51-28.24.75-42.01l.28,42.05Z"/>
        <path class="cls-11" d="M174.53,28.98l1.99,3-1,2c-.11.21-.05.69,0,1-1.21,1.22-1.89,3.17-1.99,4.99-.46.33-.75,1.48-1,2-2.94,6.04-7.67,18.05-9.97,24.96l-1,3-1,2h-1c.13-1.29.49-3.52,1.04-4.9l6.84-17.29,7.2-18.21-5.1-4.54,4.99,2Z"/>
        <path class="cls-5" d="M235.44,90.9c.73,1.13,2.37,2.63,2.75,4.01.03.88-.86,2.4-1.68,2.79l-15.03,7.1c-4.32,2.04-8.52,3.68-12.04,6.06-2.12,1.44-4.59,2.73-6.98,3.86l-.94-.18c-2.26-2.22-4.45-5.53-5.76-8.51,1.28.27,2.78,1.46,3.72,2.7l2.07,2.73c.56.74,3.06-.13,3.92-.54l13.36-6.44c6.42-3.09,12.48-5.43,19.16-9.07l-4.77-4.22,2.22-.29Z"/>
        <path class="cls-9" d="M209.44,198.73h-5.98c1.55-2.35-19.2.13-18.93-1.55,11.25-.63,22.17-.52,32.86-.28l-7.94,1.82Z"/>
        <path class="cls-9" d="M212.6,64.85l.53-2.85c-4.02-3.85-7.72-7.75-10.92-11.97.86.12,2.57,1.04,3.33,1.79l8.84,8.63c.57.56,1.19,3.07.56,3.35l-2.34,1.04Z"/>
        <path class="cls-1" d="M262.29,374.47l-1,1h-35.55c-.46-.01-1.42-.74-1.35-1,10.15-.03,27.8.49,36.9-1,.39-.06.9.75,1,1Z"/>
        <path class="cls-9" d="M170.47,57.7l-4.29,12.63c-.63,1.85-1.92,3.64-2.8,4.49l1.91-6.38c1.02-3.42,1.84-6.42,2.25-9.51l2.93-1.23Z"/>
        <path class="cls-9" d="M167.55,58.94c-2.14,1.5-2.33,9.05-4.99,7.99,2.3-6.91,7.04-18.92,9.97-24.96.51.17.98.18.87.47l-.65,1.72-3.33,8.76c-.79,2.07-1.64,4.22-1.88,6.02Z"/>
        <path class="cls-9" d="M218.41,375.46c-.06.06-.85.74-1.12,1.04l-31.28-.04c-.6,0-1.56-.67-1.5-.99h33.91Z"/>
        <path class="cls-1" d="M218.41,374.47v1h-33.91c.05-.26,0-.71,0-1h33.91Z"/>
        <path class="cls-9" d="M207.66,173.77c-4.74-4-9.43-8.29-13.14-13.16,2.51-1.49,11.27,8.49,13.14,13.16Z"/>
        <path class="cls-9" d="M65.48,70.79l-4.73,1-1.91-.88c-.98-.45-2.36-2.05-2.99-3,.37-.62.67-1.32,1.08-1.1l2.76,1.5.03-3.44c2.38,1.1,3.92,4.32,5.76,5.9Z"/>
        <path class="cls-9" d="M262.29,229.68l-.2-30.76c1.88-2.39,1.73,30.81.2,30.76Z"/>
        <path class="cls-14" d="M215.42,295.58c.5-.17-1.24.99-1.62.99h-29.3s0-.99,0-.99h30.92Z"/>
        <path class="cls-9" d="M218.41,229.68v-30.95c1.59,1.11,1.55,30.81,0,30.95Z"/>
        <path class="cls-14" d="M218.41,228.68c.2.48-1-1.26-1-1.69v-28.34c.43,0,.83.04,1,.07v29.96Z"/>
        <path class="cls-9" d="M137.63,113.85l.19,9.8c-2.13-8.51-1.31-18.1-.63-27.83.41,5.99.33,12.02.45,18.03Z"/>
        <path class="cls-1" d="M261.3,327.54v-25.96h1c.7,8.65-1,17.62-1,25.96Z"/>
        <path class="cls-9" d="M209.44,110.86c3.53-2.38,7.73-4.02,12.04-6.06l15.03-7.1c.81-.38,1.7-1.91,1.68-2.79l2.87,1.3c-7.36,4.7-13.97,7.54-21.59,10.93-3.39,1.51-6.45,4.09-10.03,3.73Z"/>
        <path class="cls-9" d="M163.3,75.65l-1,3.98c-.75-.38-1.99-1.93-1.74-2.73l2.74-1.26Z"/>
        <polygon class="cls-9" points="160.57 76.91 158.57 77.91 160.57 71.92 161.56 69.92 162.34 71.31 160.57 76.91"/>
        <path class="cls-9" d="M245.2,107.86c-1.24-2.11-2.08-3.87-3.55-7.08l-5.29,2.26c1.15-1.99,3.16-3.44,5.33-4.36,2.5,3.71,3.86,6.02,3.51,9.19Z"/>
        <path class="cls-11" d="M60.75,71.79l2.76,3.97-.78.04c-2.18-.31-3.42-2.62-3.88-4.89l1.91.88Z"/>
        <path class="cls-9" d="M75.32,115.73c-.17-1.39,1.06-3.08,2.46-3.62.07,1.57-.98,3.12-2.46,3.62Z"/>
        <path class="cls-9" d="M173.53,39.96c.1-1.82.78-3.77,1.99-4.99.29,1.92-.7,4.06-1.99,4.99Z"/>
        <path class="cls-9" d="M77.01,105.98c.28-1.43,1.82-3.61,2.98-5.01l1.9-1.09c-.27,2.61-2.41,5.05-4.88,6.1Z"/>
        <path class="cls-9" d="M58.92,63.85l-2.18-.33c-.37-.06.59-1.8.93-2.1l6.16-5.48c-2.86,4.55-5.23,3.6-4.91,7.91Z"/>
        <path class="cls-9" d="M173.53,85.69c2.36,2.01-14.03-5.42-8.98-4.92,3.14,1.41,6.42,2.86,8.98,4.92Z"/>
        <path class="cls-9" d="M94.73,88.82c-.03.52-.05,1.95-.6,1.98l-2.37.1c.66-.95,1.87-1.78,2.97-2.07Z"/>
        <path class="cls-9" d="M174.53,28.98l-4.99-2c-.42-.38-.91-1.3-1.15-1.84,1.88.1,5.04,2.1,6.14,3.84Z"/>
        <path class="cls-9" d="M80.87,107.94c-.35,1.07-1.18,2.25-2.08,2.92l.16-2.34c.04-.55,1.43-.35,1.92-.58Z"/>
        <path class="cls-9" d="M175.53,33.97l1-2c.29.43,1.57,1.35,1.06,1.48l-2.06.52Z"/>
        <path class="cls-12" d="M64.83,76.91v1c-.56-.13-1.36-.25-1.54-.71l-.56-1.4.78-.04c.33.29.98.87,1.32,1.15Z"/>
        <path class="cls-9" d="M90.76,91.75l-.1,1.53c-.02.34-1.09.94-1.27.65l-.63-1.04,1.99-1.14Z"/>
        <path class="cls-11" d="M84.77,95.88v1l-1,1-1,1-.89,1-1.9,1.09,1.88-2.52c.74-1,.73-3.24-.09-4.56l2.99,2Z"/>
        <path class="cls-9" d="M202.45,126.81l-2.1-2.97c.48.02,1.97.04,2,.61l.1,2.36Z"/>
        <polygon class="cls-11" points="189.49 97.88 187.49 96.88 187.49 95.88 188.49 94.88 189.49 94.88 189.49 97.88"/>
        <path class="cls-9" d="M211.43,71.92v1c-.43.35-1.45.75-1.99,1l.63-1.73c.11-.31,1.2-.26,1.36-.27Z"/>
        <path class="cls-11" d="M69.81,81.9l-4.99-2.97v-1.02s0-1,0-1c1.39,1.12,3.8,3.45,4.99,4.99Z"/>
        <path class="cls-11" d="M218.36,67.24l-6.93,5.67v-1c2.48-1.08,4.38-5.62,6.93-4.67Z"/>
        <path class="cls-9" d="M184.5,92.89c1.7-2.2,3.78-4.29,5.98-5.99-1.24,1.88-3.96,5.22-5.98,5.99Z"/>
        <path class="cls-11" d="M75.8,87.98c-1.63-1.27-3.33-2.44-3.99-4.09,1.48,1.18,2.88,2.58,3.99,4.09Z"/>
        <path class="cls-9" d="M200.31,122.84l-.85-2c.61,0,.82,1.36.85,2Z"/>
        <path class="cls-9" d="M192.48,109.86l-1.11-1c.31.25.91.68,1.11,1Z"/>
        <path class="cls-9" d="M204.45,72.92l1-1c-.22.28-.73.76-1,1Z"/>
        <path class="cls-9" d="M199.46,77.91l1-1c-.24.26-.72.78-1,1Z"/>
        <path class="cls-9" d="M74.8,79.99c-.3-.21-.79-.78-1-1.09l1,1.09Z"/>
        <path class="cls-9" d="M84.77,96.88v-1c.74.44.73.64,0,1Z"/>
        <path class="cls-11" d="M196.47,87.89c1.7-2.2,3.78-4.29,5.98-5.99-1.86,2.13-3.8,4.21-5.98,5.99Z"/>
        <path class="cls-11" d="M193.7,102.83l-2.22-2.95,1.97,1.39c.42.3.56,1.39.25,1.56Z"/>
        <path class="cls-9" d="M72.02,122.84l.9-.95-.9.95Z"/>
        <path class="cls-9" d="M70.89,124.81l1.07-.97-1.07.97Z"/>
        <path class="cls-9" d="M82.78,87.89c-.27-.26-.79-.71-1-1l1,1Z"/>
        <path class="cls-9" d="M176.52,87.89l-1-1c.3.18.74.72,1,1Z"/>
        <path class="cls-9" d="M87.76,92.89l-1.99-2,1.99,2Z"/>
        <path class="cls-9" d="M81.78,92.89l-1-1c.28.22.74.72,1,1Z"/>
        <path class="cls-9" d="M82.78,98.88l1-1-1,1Z"/>
        <path class="cls-9" d="M98.87,28.02c.24-.25.69-.73.99-.87l-.99.87Z"/>
        <path class="cls-9" d="M187.49,96.88c-.74-.44-.73-.64,0-1v1Z"/>
        <path class="cls-11" d="M191.48,92.89l1-1c-.25.28-.68.84-1,1Z"/>
        <polygon class="cls-9" points="189.49 94.88 188.49 94.88 189.49 93.88 189.49 94.88"/>
        <path class="cls-14" d="M218.41,267.63c.16.51-.99-1.24-.99-1.66v-30.29c.28,0,1,.89,1,1.68v30.27Z"/>
        <path class="cls-14" d="M217.41,295.58v-24.26c0-.46,1.21-2.15,1-1.7v24.57c0,.5-.68,1.39-1,1.39Z"/>
        <path class="cls-13" d="M184.5,263.63c-1.5-1.6-1.5-5.39,0-6.99v6.99Z"/>
        <path class="cls-13" d="M184.5,292.59c-1.34-.86-1.34-4.13,0-4.99v4.99Z"/>
        <path class="cls-13" d="M184.5,277.61l-.91-1.49c-.23-.38.7-1.25.91-1.51v3Z"/>
        <path class="cls-6" d="M15.96,144.81h-1c1.71-6.84,3.52-13.54,5.98-19.97.43.18,1,.33.92.62l-.62,2.11-5.28,17.25Z"/>
        <path class="cls-5" d="M131.81,72.85c-.6-2.61.28-56.83-.39-57.13l-2.86-1.26,4.04-1.72c-.23,19.75.85,38.92-.79,60.11Z"/>
        <path class="cls-13" d="M108.86,64.93c.17.52.66,1.47.72,2.02.26,2.2,1.05,5.97,1.84,9.77-2.38-3.47-4.09-6.77-5.31-12.39l2.75.61Z"/>
        <path class="cls-13" d="M209.44,192.74c-1.6,1.5-5.38,1.5-6.98,0h6.98Z"/>
        <path class="cls-13" d="M193.48,192.74c-1.26,1.48-4.44,1.26-5.98,0h5.98Z"/>
        <path class="cls-13" d="M216.24,170.02c-4.15-6.4-2.82-18.53-7.83-24.08l-17.88-.67,17.16-.72c.67-.03,2.07-2.25,2.42-2.82.44-.72,2.13,2.66,3.03,2.92,4.85,1.4,13.41,3.26,18.13,6.06-1.44,1.22-18.67-6.58-18.49-3.26.4,7.22,3.74,14.3,3.45,22.57Z"/>
        <path class="cls-13" d="M188.56,146.29c-1.42.27-3.16.28-5.12.03,1.42-.27,3.16-.28,5.12-.03Z"/>
        <circle class="cls-13" cx="232.87" cy="151.8" r=".63"/>
        <path class="cls-13" d="M82.81,120.84c.21-.03.62.03.82.08-.77,3.14,6.56,3.39,5.96,5.93l-8.19-3.25c-.65-.26-1.71-2.36-1.02-2.45l2.42-.31Z"/>
        <path class="cls-13" d="M154.33,90.83c1.35-2.76,1.74-1.33,2.17.29l-1.53,2.86-.64-3.15Z"/>
        <rect class="cls-14" x="225.39" y="529.24" width="35.9" height="42.94"/>
        <polygon class="cls-14" points="262.29 573.17 262.29 574.17 260.3 574.17 262.29 573.17"/>
        <path class="cls-5" d="M262.29,381.46v59.91c.22.44-.98-1.25-.99-1.74l-.53-56.07-.5,58.8-34.74.02c-.07-1.2-.14-2.39-.14-3,1.54-1.95,1.54-6.04,0-7.99v-2c-.22.53,1-1.32,1-1.77v-42.4c0-.45-1.22-2.3-1-1.77,0-.53.62-2,1.48-2h35.42Z"/>
        <path class="cls-7" d="M225.39,429.38v-45.93c-.22-.53,1,1.32,1,1.77v42.4c0,.45-1.22,2.3-1,1.77Z"/>
        <path class="cls-13" d="M223.4,409.41v-26.96c.02-.26,1.02,1.66,1.02,2.5v22.16c0,.64-.97,2.57-1.02,2.29Z"/>
        <path class="cls-7" d="M225.39,439.37v-7.99c1.54,1.95,1.54,6.04,0,7.99Z"/>
        <rect class="cls-1" x="225.39" y="236.67" width="34.91" height="57.91"/>
        <path class="cls-13" d="M248.33,235.67h-1c.4-.73.6-.73,1,0Z"/>
        <rect class="cls-5" x="185.5" y="302.57" width="30.92" height="70.89"/>
        <polygon class="cls-7" points="209.44 302.57 185.5 302.57 185.5 308.56 185.55 302.57 209.44 302.57"/>
        <path class="cls-7" d="M259.3,302.57c.63,12.35-1.27,35.63,1,45.93l.02,24.97h-34.96s.17-59.97.17-59.97l.62-10.61,8.22-.32c6.95-.27,14.34.74,20.94-1,.26-.01.71,0,1,0l2.99,1Z"/>
        <path class="cls-12" d="M260.3,348.5c-2.27-10.3-.36-33.58-1-45.93,1.79,14.95.99,30.55,1,45.93Z"/>
        <path class="cls-13" d="M255.31,301.57c-6.6,1.74-13.99.73-20.94,1v-1c-2.76-1.48,24.6-1.51,20.94,0Z"/>
        <path class="cls-13" d="M224.4,373.47c-.04.28-1.01-1.65-1.01-2.33v-23.41c0-.57.98-2.48,1.01-2.22v27.96Z"/>
        <path class="cls-13" d="M224.4,343.51c-1.47,2.93-1.47-15.91,0-12.98v12.98Z"/>
        <path class="cls-13" d="M224.4,319.55c-1.34-.86-1.34-4.13,0-4.99v4.99Z"/>
        <path class="cls-13" d="M259.3,301.57h-1c.4-.73.6-.73,1,0Z"/>
        <path class="cls-12" d="M249.33,199.73l.47,2.03c.11.48,1.34-.88,1.52-1.03l4.99-.21c.43,1.3.58,1.37,1,.04h1.99s-.02,17.88-.02,17.88c0,.63.95,2.54,1.02,2.26v3c-.79,2.12-2.14,3.07-5.29,3.19l-.7,1.8-29.14-.06.39-28.91h23.76ZM246.34,201.22c0-.28-.22-.5-.5-.5s-.5.22-.5.5.22.5.5.5.5-.22.5-.5Z"/>
        <path class="cls-1" d="M260.3,220.7c-.07.29-1.02-1.63-1.02-2.26l.02-17.88c1.57,6.34,1,13.41,1,20.14Z"/>
        <path class="cls-1" d="M254.31,228.68l.7-1.8c3.15-.13,4.5-1.07,5.29-3.19v5s-5.98-.01-5.98-.01Z"/>
        <path class="cls-1" d="M251.32,200.72c-.18.15-1.41,1.51-1.52,1.03l-.47-2.03c.6,0,1.63.65,1.99,1Z"/>
        <path class="cls-1" d="M256.31,200.51l1,.04c-.42,1.32-.57,1.25-1-.04Z"/>
        <path class="cls-8" d="M262.29,450.35v71.89s-37.9,0-37.9,0l-.8-1c.53-5.35,1.21-10.91.33-16.52-.62-3.98.12-7.5.16-11.54l.31-29.86c.04-3.74,1.32-8.36,1.09-12.97h36.81Z"/>
        <path class="cls-13" d="M91.33,127.25c.36.54,3.42.7,2.39,1.1-.36.14-1.47.49-1.51.51-.04.02-.71-1.35-.88-1.61Z"/>
        <circle class="cls-1" cx="245.84" cy="201.22" r=".5"/>
        <g>
          <path class="cls-9" d="M97.77,170.77l-.03,157.76c-.66-.95-1.97-3.44-1.97-5.61l-.02-150.42c0-1.29,1.78-2.12,2.03-1.74Z"/>
          <path class="cls-9" d="M97.74,582.16c0,.65-1.49,1.99-2.7,1.99H.27c-.14-1-.27-1.63-.27-1.99h97.74Z"/>
          <path class="cls-9" d="M0,567.18v-40.94l1.52.04c.37,0,.48,1.18.48,2.23l.02,37.13c0,.83-1.96,1.93-2.01,1.54Z"/>
          <path class="cls-9" d="M97.74,376.46c.21.54-1-1.33-1-1.62v-41.69c0-.29,1.21-2.16,1-1.62v44.93Z"/>
          <path class="cls-9" d="M97.74,450.35c-.04.27-1.02-1.67-1.02-2.21v-18.42c0-.68.99-2.6,1.02-2.34v22.97Z"/>
          <path class="cls-9" d="M97.74,409.41c-1.59-3-1.59-7.98,0-10.98v10.98Z"/>
          <path class="cls-9" d="M0,579.16v-4.99c1.21-.16,2.25,1.2,2.24,2.49s-1.03,2.67-2.24,2.5Z"/>
          <path class="cls-9" d="M97.74,391.44c-1.54-1.95-1.54-6.04,0-7.99v7.99Z"/>
          <path class="cls-9" d="M97.74,480.31c-1.54-1.95-1.54-6.04,0-7.99v7.99Z"/>
          <path class="cls-9" d="M97.74,425.39c-1.43-1.25-1.43-4.74,0-5.99v5.99Z"/>
          <path class="cls-9" d="M97.74,521.25c-.29-.13-1.42-1.14-1.18-1.6l1.18-2.39v3.99Z"/>
          <path class="cls-9" d="M97.74,417.4c-.31-.18-1.1-.99-1.1-1.5s.79-1.32,1.1-1.5v3Z"/>
          <path class="cls-9" d="M97.74,496.28l-1.1-.58c-.46-.24.95-1.45,1.1-1.42v2Z"/>
          <path class="cls-2" d="M88.63,301.54v72.87c0,.21-.04.6-.06.86l-15.76.2c-1.6-1.5-5.38-1.5-6.98,0h-2.99c-1.95-1.54-6.03-1.54-7.98,0-.3,0-1.02-.82-1.02-1.12l.02-6.87v-55.92c0-3.18.13-6.52.32-9.99l34.45-.03Z"/>
          <path class="cls-14" d="M84.77,522.25h-2.99c-2.3-1.56-6.68-1.56-8.98,0h-2.99c3.23-1.47-17.2-1.47-13.96,0h-1v-71.89s31.9,0,31.9,0l.05,65.95c-.12,2.34-.84,4.41-2.03,5.94Z"/>
          <path class="cls-2" d="M88.64,381.53l-.04,61.67-.88.05-33.97.12.2-15.11c.09-6.92,2.88-13.62,5.05-19.76.08-.59.14-.91.13-1.04.91-.35,2.11-1.73,2.64-2.84l2.98-6.32,8.22-8.95c3.91-4.22,10.25-7.39,15.68-7.8ZM86.77,384.45h-1v54.92h1v-54.92Z"/>
          <path class="cls-8" d="M63.83,528.24h17.95l5.99.04v45.9s-33.95,0-33.95,0l.25-21.06c.05-4.1.98-9.19,1.91-12.89,1.02-4.02,4.08-8.26,5.86-11.98h1.99Z"/>
          <path class="cls-8" d="M57.95,149.8c-.16,1.76-.39,4.15-.8,5.99-.92,4.1-1.7,8.36-2.44,12.95l-3.85,24H10.75c.65-8.78,3.94-10.3,5.15-16.1,5.77-8.12,12.02-15.42,20.37-20.98,7.8-1.31,14.12-5.73,21.67-5.85Z"/>
          <path class="cls-1" d="M92.48,153.67c-4.59,13.07-3.69,24.89-3.71,39.07h-24.93l-8.29-.06c2.45-6.15,4.24-12.23,7.91-17.11l9.38-12.5,1.03-.09.94-1.36c4.18-.08,16.47-11.74,17.68-7.94Z"/>
          <path class="cls-2" d="M78.79,380.46c-2.14,5.16-5.32,2.52-10.37,6.81-6.85,5.82-10.86,13.59-14.69,21.16l.13-4v-23.96h24.93Z"/>
          <path class="cls-8" d="M89.46,148.1l.12.74-9.57,4.24c-1.05.47-2.75,1.94-3.28,2.66-.22.08-.62.17-.86.23-.61.09-1.98.28-2.24.85l-.76,1.73-10.89,10.28c-.6.57-1.5,1.35-2.02,1.75l-.8-.9,4.66-21.88c.35-.06.88-.18,1.16-.18l24.47.47Z"/>
          <path class="cls-2" d="M87.76,449.35l1,1v68.9l-1,3h-2.99c1.19-1.54,1.91-3.6,2.03-5.94l-.05-65.95h-31.9s0,71.9,0,71.9h-1v-72.89s33.91,0,33.91,0Z"/>
          <path class="cls-10" d="M47.87,295.58H10.97v-59.91s36.9,0,36.9,0v59.91ZM45.88,236.67H11.97v57.91h33.91v-57.91Z"/>
          <path class="cls-11" d="M88.76,235.67v60.69c-.94.12-1.63.22-1.99.22.26-.07-1.55-1.04-2.08-1.04l-8.89.04h-19.95c-.31.25-2.03-1.3-2.03-2.08l.03-10.9v-44.93c-.07-1.2.91-2.03,3.49-2.02l31.42.03ZM54.85,238.67l-.03,28.04c0,2.38.52,5.3,1.03,8.01-1.55,6.09-.96,12.86-.97,19.85l32.04.06-.22-57.83-5.28.18-6.62-.3h-16.95l-2.36.11c-.53.02-.59,1.35-.63,1.89Z"/>
          <path class="cls-9" d="M53.85,199.73v29.96s33.86,0,33.86,0c-.51-12.35.85-19.28.75-30.91l-34.61-.05c-.27-.3.64-1.95,1.45-1.95l29.22-.16c2.09-.01,5.05-.12,5.38,1.31.27,1.19.07,3.26.05,4.95l-.29,28.86-36.81-.13v-30.22c0-.41,1.17-2.15,1-1.65Z"/>
          <path class="cls-2" d="M46.87,302.57v71.89s-35.9,0-35.9,0c-.05-.26,0-.71,0-1l.15-71.91c10.08.05,27.04-.47,35.75,1.01ZM45.88,302.57H11.97v70.89h33.91v-70.89Z"/>
          <path class="cls-9" d="M10.97,199.73v29.96s36.9,0,36.9,0v-30.96s-20.95,0-20.95,0c-.4-.73-.6-.73-1,0h-14.96c-.3-.25.64-2,1.43-2l33.4-.02c1.55,0,4.19,2.58,4.17,4.4l-.32,30.54H9.16s-.21-32.89-.21-32.89l2.02.97Z"/>
          <path class="cls-11" d="M12.97,380.46h34.81c.06,1.16.16,2.38.09,3-1.63,14.75-.85,43.65-1.03,59.13-12.3,1.31-23.59.79-35.88.54v-60.55c.01-1.26,2.08-2.61,2-2.11ZM11.97,441.37v1h33.91v-60.91H12.97c.14-.47-1,1.11-1,2.09v57.82Z"/>
          <path class="cls-9" d="M47.87,295.58v-59.91s-36.9,0-36.9,0v59.91c-.52,0-2.05-.53-2.05-1.22l.17-60.44,37.76-.37c.91.7,2.02,2.77,2.02,4.43v55.55c-.01.89-1.17,2.51-1.01,2.04Z"/>
          <path class="cls-9" d="M70.68,125.73l-5.49,17.42c11.55-.66,21.5-.16,32.23,1.5l4.14-3.63-2.18,4.78-13.93-.76c.53.59,1.79,1.5,3.29,2.5,2.36-.75,2.31-.53.71.56l-24.47-.47c.53-1.57.15-3.44-.66-5.04.24-4.12,2.93-7.7,1.55-12.67l-4.81,14.3-11.93,3.84c2.99.27,5.79-.26,9.24-.78.01-.01-.36,1.82-.43,2.52-7.55.12-13.87,4.55-21.67,5.85.57-1.63,2.8-3.33,4.6-3.8l2.04-.53c.41-.11-.17-1.74-.56-1.56l-1.93.89c-1.36.62-3.91,1.04-5.51,1.14,3.33-2.49,10.89-5.31,15.15-6.8l9.66-2.54,3.77-11.86,4.61-13.49.96-.89c.2-.18.55-.17.71.08.14.23.5,1.61.4,1.87l-3.89,10.26c-.15.41.84,2.79,1.04,2.41l1.01-1.96c.61-1.19,1.57-2.53,2.36-3.15ZM47.98,148.8c0-.61-.5-1.11-1.11-1.11s-1.11.5-1.11,1.11.5,1.11,1.11,1.11,1.11-.5,1.11-1.11Z"/>
          <path class="cls-10" d="M53.85,199.73v-1l34.61.05c.1,11.63-1.27,18.56-.75,30.91h-33.86s0-29.96,0-29.96ZM86.77,199.73h-30.92v28.96h30.92v-28.96Z"/>
          <path class="cls-11" d="M19.95,528.24h26.85s.07,3.99.07,3.99v3l.05,35.17c0,1.19-1.12,2.8-2.04,2.77H10.97v-44.93h8.98ZM45.88,572.17v-42.94H12.97c-.06-.29-1,1.63-1,2.32v38.08c0,.93.91,2.83,33.91,2.53Z"/>
          <path class="cls-9" d="M88.76,522.25v-71.89l-1-1h-33.91s0,68.9,0,68.9c0-.01-.77.72-.73.82.06.19.59.95.73,1.17v2c-.51,0-1.99-.58-1.99-1.22l-.03-67.4c0-2.3.55-4.48,1.52-5.2.81-.6,3.21-1.22,4.29-1.21l32.02.39.13,72.45c0,.67-.96,2.48-1.05,2.19Z"/>
          <path class="cls-9" d="M47.87,522.25c.02-.37.11-.79,0-1l-1-2v-10.98c1.34-.86,1.34-4.13,0-4.99v-6.99c.73-.4.73-.6,0-1v-18.97c.73-.4.73-.6,0-1v-23.96l1.97-1.78.04,71.1c0,.74-.71,1.57-1.02,1.57Z"/>
          <path class="cls-10" d="M25.93,198.73h21.94s0,30.96,0,30.96H10.97s0-29.96,0-29.96v-1h14.96ZM46.87,199.73H11.97v28.96h34.91v-28.96Z"/>
          <path class="cls-9" d="M55.98,540.22c-.94,3.69-1.86,8.78-1.91,12.89l-.25,21.06h33.95s0-45.9,0-45.9l-5.99-.04c.26-.03-1.67-1.03-2.18-1.03h-13.57c-.55,0-2.47,1-2.2,1.03h-1.99c-.29,0,.78-2.12,1.67-2.11l26.15.37.07,48.47-33.95.27c-1.09,0-3.77-.84-3.81-1.88l-.15-4.45c-.08-2.4-.41-31.25,4.16-28.7Z"/>
          <path class="cls-9" d="M53.85,311.56v14.98c-.29.35-1.19,1.22-1.03,1.69.21.63.7,1.65,1.03,2.3v24.96c-1.59,3.35-1.59,8.64,0,11.98l-.02,6.87c0,.3.72,1.12,1.02,1.12h17.95l15.76-.2-.05,1.28-36.62-.31.09-74.81,1.87,10.13Z"/>
          <path class="cls-9" d="M10.97,373.47c0,.29-.05.74,0,1,.06.32.89,1.01,1.42,1.01h35.48c.54-.18-1.23,1.03-1.84,1.02l-36.9-.13.34-74.58.49,70.56c.21.23,1,1.12,1,1.12Z"/>
          <path class="cls-7" d="M11.97,522.25l-1.99-1,.21-23.03c.04-4.44,1.24-9.33.75-14-.98-9.41-1.77-19.1.04-27.87h1v65.9Z"/>
          <path class="cls-12" d="M47.87,374.47v1H12.39c-.53,0-1.36-.68-1.42-1h35.91s0-71.89,0-71.89c.26.04.67.01,1,0v71.89Z"/>
          <path class="cls-9" d="M42.88,449.35H10.97c-.49.59-.81-2-.21-2l35.87.08-3.75,1.92Z"/>
          <path class="cls-9" d="M10.97,450.35c0,1.65.08,4.48,0,5.99-1.8,8.76-1.01,18.46-.04,27.87.49,4.68-.71,9.56-.75,14l-.21,23.03c.07.5-.99-1.07-.99-1.68v-69.76c.76.21,1.42.34,1.99.55Z"/>
          <path class="cls-9" d="M31.91,528.24h-1.99c-.86-1.35-4.13-1.35-4.99,0h-4.99c-1.95-1.54-6.03-1.54-7.98,0h-1c.21-.54-1,1.33-1,1.62v41.69c0,.29,1.21,2.16,1,1.62h14.96c-.24.02,1.65,1.03,2.15,1.03h11.66c.5,0,2.39-1.01,2.15-1.03h2.99l2.04,1.95-36.01.1c-.71-.56-1.98-2.96-1.98-4.12l.1-44.74,37.95.18c-4.64.77-8.47.73-13.27.68l-1.8,1.03Z"/>
          <path class="cls-9" d="M49.87,192.74c.39.06-.7,2.01-1.78,2.01H10.13c-.75-7.06,2.26-13.15,5.78-18.1-1.22,5.8-4.5,7.31-5.15,16.09h39.11Z"/>
          <path class="cls-9" d="M88.62,374.41v-72.87c.31,0,1.11.86,1.11,1.36l.33,46.28c.02,2.23,1.13,25.67-1.44,25.23Z"/>
          <path class="cls-9" d="M53.85,237.67v2c-1.54,1.95-1.54,6.04,0,7.99v7.99c-1.43,1.25-1.43,4.74,0,5.99v2c-1.54,1.95-1.54,6.04,0,7.99v10.98l-1.04,1.8c.06,4.15.14,7.38-.8,11.31l-.17-60.08,2.01,2.03Z"/>
          <path class="cls-11" d="M46.87,451.35v67.9c0,.6.65,1.63,1,2,.11.21.02.63,0,1-.76,0-2.25-.12-2.99,0v-1c.45-1.15,1.01-3.31,1.01-4.92l-.02-65.84-3.99-.14v-1h1c1.71-.28,3.79.34,3.99,2Z"/>
          <path class="cls-9" d="M47.87,374.47v-73.4c.01-1.34-36.93.36-37.72-.99,13.67-.78,25.48-.68,38.68-.15l.03,72.91c0,.55-1.07,2.13-1,1.62Z"/>
          <path class="cls-9" d="M47.87,383.45c.07-.62-.03-1.83-.09-3H12.97c-.16-.43,1.23-2.03,2.14-2.03l31.62.02c.92.51,2.21,2.97,2.2,4l-.56,60.97-.49-59.97Z"/>
          <path class="cls-9" d="M59,408.49c-2.17,6.14-4.96,12.84-5.05,19.76l-.2,15.11,33.97-.12c.38.12-.59,2.13-1.52,2.13l-33.36-.04c-2.51-12.03-.64-23.96,3.76-35.14.26-.67.56-1.57.93-1.6l1.47-.12Z"/>
          <path class="cls-9" d="M63.83,192.74c2.3,1.56,6.68,1.56,8.98,0h5.98l8.82,1.84-32.41.15c-2.06-7.68,4.89-13.02,6.82-20.47l-2.05-3.68c.52-.41,1.42-1.19,2.02-1.75l.52,4.5c3.69-4.54,6.05-8.76,10.33-10.26l-9.38,12.5c-3.67,4.89-5.46,10.96-7.91,17.11l8.29.06Z"/>
          <path class="cls-9" d="M88.6,443.2l.04-61.67c1.82,20.36,1.88,41.68-.04,61.67Z"/>
          <path class="cls-9" d="M55.85,295.58h1.99c1.25,1.43,4.74,1.43,5.98,0h11.97c-.23.02,1.63,1.05,2.14,1.05l8.83-.05c.36,0,1.05-.1,2-.22v-60.69c.31,0,1.02.86,1.02,1.23l-.07,60.49-35.86.16,1.98-1.97Z"/>
          <path class="cls-9" d="M50.86,192.74l3.85-24c.74-4.59,1.52-8.85,2.44-12.95.3.27.99,3.07.81,4.08l-5.23,30.76c-.13.74-.01,2.05-.39,2.06l-1.48.04Z"/>
          <path class="cls-9" d="M88.76,192.74c.02-14.17-.87-26,3.71-39.07,1.33,3.82-1.27,9.32-1.63,14l-.8,10.22c-.41,5.29.08,10.66-1.29,14.85Z"/>
          <path class="cls-9" d="M53.85,383.45v7.99l-.91,1.49c-.23.38.69,1.24.91,1.51v4.99c-1.34.86-1.34,4.13,0,4.99l-.13,4-1.91-.2c.32-9.48-.81-18.97,1.04-27.77l.14,2.37c.02.32.35.39.85.63Z"/>
          <path class="cls-9" d="M78.79,380.46h-25.93c-.51-1.05,1.54-2.02,2.27-2.02l24.48.04-.82,1.98Z"/>
          <polygon class="cls-9" points="46.87 535.23 46.87 532.23 48.79 528.17 48.66 573.24 46.87 535.23"/>
          <path class="cls-9" d="M44.88,521.25v1c-8.13,1.27-24.17,1.88-32.91,0l18.99-.06c4.85-.74,9.42-1.01,13.93-.94Z"/>
          <path class="cls-9" d="M63.83,147.8l-4.66,21.88c-1.56-6.19,1.84-12.99,2.47-20,.19-.58.48-1.66.83-1.71l1.36-.17Z"/>
          <rect class="cls-9" x="53.86" y="299.43" width="34.41" height="1.29" transform="translate(-2.59 .62) rotate(-.49)"/>
          <rect class="cls-9" x="54.35" y="233.68" width="33.41" height="1"/>
          <path class="cls-9" d="M64.74,398.29l-2.98,6.32c-.52,1.11-1.73,2.49-2.64,2.84-.04-2.64,2.74-8.76,5.61-9.16Z"/>
          <path class="cls-2" d="M69.81,522.25h-13.96c-3.23-1.47,17.2-1.47,13.96,0Z"/>
          <path class="cls-9" d="M76.73,155.73c.53-.72,2.23-2.19,3.28-2.66l9.57-4.24c-2.4,3.09-9.38,5.68-12.85,6.9Z"/>
          <path class="cls-2" d="M81.78,522.25h-8.98c2.3-1.56,6.68-1.56,8.98,0Z"/>
          <path class="cls-9" d="M75.87,155.96c-.51,1.18-1.73,2.19-2.99,2.59l.76-1.73c.25-.57,1.62-.77,2.24-.85Z"/>
          <polygon class="cls-14" points="88.76 522.25 87.76 522.25 88.76 519.25 88.76 522.25"/>
          <path class="cls-9" d="M57.84,522.25l-1.49.94c-.38.24-1.27-.72-1.5-.94h2.99Z"/>
          <path class="cls-9" d="M74.8,161.61l-.94,1.36s.23-1.54.27-1.9c.04-.27.26.12.66.54Z"/>
          <path class="cls-13" d="M53.85,367.48c-1.59-3.35-1.59-8.64,0-11.98v11.98Z"/>
          <path class="cls-13" d="M62.83,375.46h-7.98c1.95-1.54,6.03-1.54,7.98,0Z"/>
          <path class="cls-13" d="M72.8,375.46h-6.98c1.6-1.5,5.38-1.5,6.98,0Z"/>
          <path class="cls-13" d="M53.85,330.53c-.33-.65-.82-1.67-1.03-2.3-.16-.47.74-1.34,1.03-1.69v3.99Z"/>
          <rect class="cls-5" x="85.77" y="384.45" width="1" height="54.92"/>
          <path class="cls-13" d="M81.78,528.24h-17.95c-.26-.02,1.66-1.03,2.2-1.03h13.57c.52,0,2.44,1,2.18,1.03Z"/>
          <path class="cls-13" d="M72.8,192.74c-2.3,1.56-6.68,1.56-8.98,0h8.98Z"/>
          <path class="cls-13" d="M53.85,404.42c-1.34-.86-1.34-4.13,0-4.99v4.99Z"/>
          <path class="cls-13" d="M53.85,394.44c-.23-.27-1.15-1.13-.91-1.51l.91-1.49v3Z"/>
          <path class="cls-13" d="M53.85,520.25c-.14-.22-.67-.98-.73-1.17-.03-.1.74-.84.73-.82v2Z"/>
          <path class="cls-14" d="M88.76,450.35l-1-1,1,1Z"/>
          <rect class="cls-6" x="10.97" y="235.67" width="36.9" height="59.91"/>
          <path class="cls-12" d="M55.85,274.72l2.21-.14c.74-.05,1.02-2.64,1.67-2.99l5.4-2.94c5.42-17.12-.62-7.41,8.82-18.69,1.76-2.11,2.49-4.01,3.63-6.9.74-1.89,4.43-3.71,3.83-6.09l5.28-.18.22,57.83-32.04-.06c0-6.99-.59-13.77.97-19.85Z"/>
          <path class="cls-7" d="M64.83,236.67c-.04.15,1.14,1.54,1.42,1.1.18-.29.41-.76.57-1.1h1.99c1.25,1.43,4.74,1.43,5.98,0l6.62.3c.6,2.37-3.08,4.2-3.83,6.09-1.14,2.89-1.87,4.79-3.63,6.9-9.44,11.28-3.4,1.57-8.82,18.69l-5.4,2.94c-.65.35-.93,2.95-1.67,2.99l-2.21.14c-.51-2.7-1.03-5.63-1.03-8.01l.03-28.04,2.99-2h6.98Z"/>
          <path class="cls-13" d="M86.77,296.58l-8.83.05c-.51,0-2.37-1.02-2.14-1.05l8.89-.04c.54,0,2.35.97,2.08,1.04Z"/>
          <path class="cls-13" d="M53.85,271.62c-1.54-1.95-1.54-6.04,0-7.99v7.99Z"/>
          <path class="cls-13" d="M53.85,247.65c-1.54-1.95-1.54-6.04,0-7.99v7.99Z"/>
          <path class="cls-13" d="M63.83,295.58c-1.25,1.43-4.74,1.43-5.98,0h5.98Z"/>
          <path class="cls-13" d="M53.85,261.63c-1.43-1.25-1.43-4.74,0-5.99v5.99Z"/>
          <path class="cls-12" d="M74.8,236.67c-1.25,1.43-4.74,1.43-5.98,0h5.98Z"/>
          <path class="cls-12" d="M57.84,236.67l-2.99,2c.04-.54.1-1.87.63-1.89l2.36-.11Z"/>
          <path class="cls-12" d="M66.82,236.67c-.16.33-.39.8-.57,1.1-.28.44-1.46-.95-1.42-1.1h1.99Z"/>
          <rect class="cls-5" x="11.97" y="302.57" width="33.91" height="70.89"/>
          <rect class="cls-7" x="11.97" y="381.46" width="33.91" height="60.91"/>
          <path class="cls-12" d="M11.97,441.37v-57.82c0-.99,1.13-2.57,1-2.09h-1v59.91Z"/>
          <circle class="cls-13" cx="46.87" cy="148.8" r="1.11"/>
          <rect class="cls-2" x="53.85" y="198.77" width="34.61" height="30.91"/>
          <path class="cls-7" d="M15.96,529.24l.43,2.05c.08.37,1.56-.21,1.56-.58v-1.47h2c-.45-.22,1.23,1,1.69,1h24.24s0,41.94,0,41.94l-32.91-42.94h2.99Z"/>
          <path class="cls-1" d="M10.97,573.17c.21.54-1-1.33-1-1.62v-41.69c0-.29,1.21-2.16,1-1.62v44.93Z"/>
          <path class="cls-12" d="M45.88,572.17c-33,.3-33.91-1.6-33.91-2.53v-38.08c0-.69.93-2.61,1-2.32l32.91,42.94Z"/>
          <path class="cls-12" d="M45.88,530.23h-24.24c-.46,0-2.15-1.21-1.69-1h25.93v1Z"/>
          <path class="cls-13" d="M41.89,573.17c.25.02-1.65,1.03-2.15,1.03h-11.66c-.49,0-2.39-1.01-2.15-1.03h15.96Z"/>
          <path class="cls-13" d="M19.95,528.24h-7.98c1.95-1.54,6.03-1.54,7.98,0Z"/>
          <path class="cls-13" d="M29.92,528.24h-4.99c.86-1.35,4.13-1.35,4.99,0Z"/>
          <path class="cls-12" d="M17.95,529.24v1.47c0,.37-1.49.95-1.57.58l-.43-2.05h1.99Z"/>
          <path class="cls-13" d="M46.87,508.27v-4.99c1.34.86,1.34,4.13,0,4.99Z"/>
          <path class="cls-13" d="M47.87,521.25c-.35-.37-1-1.4-1-2l1,2Z"/>
          <path class="cls-13" d="M46.87,476.31v-1c.73.4.73.6,0,1Z"/>
          <path class="cls-13" d="M46.87,496.28v-1c.73.4.73.6,0,1Z"/>
          <rect class="cls-3" x="10.97" y="198.73" width="36.91" height="30.96"/>
          <path class="cls-13" d="M26.93,198.73h-1c.4-.73.6-.73,1,0Z"/>
          <path class="cls-1" d="M41.89,450.35l3.99.14.02,65.84c0,1.61-.56,3.77-1.01,4.92-4.51-.07-9.08.2-13.93.94l-18.99.06v-71.9s29.92,0,29.92,0Z"/>
          <path class="cls-5" d="M41.89,449.35v1H11.97s0,5.99,0,5.99h-1c.08-1.51,0-4.34,0-5.99v-1h30.92Z"/>
        </g>
      </g>
    </g>
  </g>
</svg>